<?xml version="1.0" encoding="utf-8"?>
<!-- Generator: Adobe Illustrator 16.0.3, SVG Export Plug-In . SVG Version: 6.00 Build 0)  -->
<!DOCTYPE svg PUBLIC "-//W3C//DTD SVG 1.1//EN" "http://www.w3.org/Graphics/SVG/1.1/DTD/svg11.dtd">
<svg version="1.1"
	 id="Layer_1" xmlns:ns1="http://sozi.baierouge.fr" xmlns:sodipodi="http://sodipodi.sourceforge.net/DTD/sodipodi-0.dtd" xmlns:inkscape="http://www.inkscape.org/namespaces/inkscape" xmlns:svg="http://www.w3.org/2000/svg" xmlns:dc="http://purl.org/dc/elements/1.1/" xmlns:cc="http://web.resource.org/cc/" xmlns:rdf="http://www.w3.org/1999/02/22-rdf-syntax-ns#"
	 xmlns="http://www.w3.org/2000/svg" xmlns:xlink="http://www.w3.org/1999/xlink" x="0px" y="0px"
	 viewBox="0 0 120 120" enable-background="new 0 0 120 120" xml:space="preserve">
<g>
	<path fill="#DCE0DF" d="M105.674,120.438c7.922,0,14.326-6.428,14.326-14.35V14.776c0-7.922-6.404-14.349-14.326-14.349H14.359
		C6.437,0.427,0.01,6.854,0.01,14.776v91.31c0,7.922,6.427,14.35,14.349,14.35h91.314V120.438L105.674,120.438z"/>
	<path fill="#FFFFFF" d="M14.359,2.859c-6.579,0-11.92,5.35-11.92,11.92v91.309c0,6.572,5.342,11.93,11.92,11.93h91.316
		c6.558,0,11.892-5.354,11.892-11.93V14.776c0-6.571-5.334-11.92-11.892-11.92H14.361L14.359,2.859z"/>
</g>
<g>
	<g transform="translate(0.000000,512.000000) scale(0.100000,-0.100000)">
		<path d="M840.82,5006.186c-2.539-0.981-5.078-3.521-5.654-5.864c-0.986-3.12-2.158-3.716-7.021-2.539
			c-3.906,0.781-5.283,0.581-4.492-0.981c0.771-1.172,0-2.734-1.563-3.325c-3.125-1.172-2.344-4.692,0.977-4.692
			c1.172,0,1.367,0.776,0.791,1.958c-0.596,0.981,0,1.372,1.563,0.791c1.748-0.586,2.539-2.544,1.963-4.697
			c-0.986-3.516-1.367-3.516-5.078-0.977c-6.27,4.292-9.785,3.711-8.203-1.172c0.781-2.349,0.576-3.911-0.205-3.315
			c-0.977,0.386-4.111,1.958-6.826,3.315c-4.297,2.148-6.064,1.953-11.328-0.586c-3.32-1.753-6.064-4.487-6.064-6.055
			c0-1.572-1.768-2.93-3.916-2.93c-4.492,0-13.672-5.273-13.672-7.813c0-0.977,1.367-1.958,2.93-2.349
			c2.734-0.581,2.734-0.977,0-4.883c-1.758-2.544-5.078-4.487-7.422-4.487c-4.707,0-18.174-4.297-20.313-6.445
			c-2.363-2.344,6.816-9.18,12.305-9.18c5.664,0,4.883-2.739-0.791-2.93c-13.281-0.977-13.281-0.977-9.775-3.711
			c2.539-1.963,2.93-2.93,1.172-4.697c-2.91-2.925-3.311-2.729,11.934-3.325c12.48-0.581,21.68-3.711,21.68-7.612
			c0-1.177,2.148-4.492,4.688-7.432c2.734-2.729,4.492-5.464,3.906-6.055c-0.391-0.391,0.762-4.888,2.93-9.775
			c3.516-8.003,3.516-9.37,1.172-11.909c-2.168-2.153-2.344-3.12-0.391-3.716c1.758-0.786,1.758-1.177,0-1.177
			c-3.125-0.19-3.32-4.097-0.195-4.097c1.172,0,3.711,1.367,5.488,2.93c2.91,2.729,3.711,2.539,8.203-0.981
			c5.078-3.906,8.594-11.719,5.078-11.719c-0.996,0-3.516,0.977-5.664,2.153c-2.168,0.977-5.879,1.753-8.203,1.367
			c-3.73-0.581-3.125-1.367,3.516-4.297c4.297-1.753,9.18-2.925,11.133-2.539c2.539,0.786,3.125-0.195,2.539-4.292
			c-0.391-2.734-0.781-5.469-0.977-6.06c-0.391-0.581-0.391-1.563-0.195-2.349c0-0.786-2.734-2.349-6.25-3.521
			c-5.273-1.567-5.469-1.758-0.977-1.172c3.125,0.391,5.664-0.396,6.25-1.963c1.367-3.315-1.172-4.893-4.492-2.92
			c-3.32,2.144-10.352,0.186-9.375-2.549c0.391-1.162,3.711-2.729,7.422-3.315l6.641-1.177l-7.813-0.391
			c-5.469-0.19-7.031-0.781-5.078-1.953c3.516-2.354,4.492-7.627,1.758-9.375c-1.367-0.586-1.563-0.19-0.781,0.977
			c0.781,1.372,0.391,2.349-0.586,2.349c-3.906,0-2.148-4.097,3.516-8.984c4.102-3.521,5.469-5.869,4.688-9.18l-1.172-4.297
			l3.887,4.487l4.102,4.297l4.512-3.906c4.492-4.102,4.492-4.102,0.391-1.958c-2.734,1.172-4.492,1.362-4.492,0.195
			c0-0.981,1.172-2.349,2.539-2.935c1.172-0.576,0.391-0.576-1.953,0c-3.535,0.791-4.492,0.186-4.492-2.935
			c0-2.139,1.758-4.292,3.906-5.078s3.516-2.144,2.93-3.13c-0.801-0.977-0.195-1.758,0.986-1.758c1.357,0,1.943-1.357,1.172-2.925
			c-0.586-1.958,0.186-2.93,2.725-2.93c1.953,0,4.277-1.753,4.893-3.906c0.586-2.144,2.139-3.901,3.311-3.901
			s3.711-1.367,5.664-3.125c3.125-2.939,4.111-2.939,9.775,0c6.641,3.311,10.547,2.539,8.779-2.153
			c-0.586-1.558-0.391-2.153,0.596-1.558c1.172,0.576,2.529-0.195,3.516-1.758c0.977-1.758,3.711-2.354,8.203-1.567
			c4.492,0.581,5.664,1.362,3.926,2.539c-1.758,1.172-1.973,1.753-0.391,1.753c1.172,0,1.953,2.153,1.563,4.893
			c-0.195,2.725,0.176,4.883,0.977,4.883c2.93,0,3.496,7.813,0.566,9.375c-2.539,1.563-2.539,2.148,0.195,4.688
			c1.563,1.753,2.539,3.525,1.973,3.906c-0.391,0.581,0.391,2.153,2.148,3.521c3.496,2.925,3.906,7.817,0.586,7.817
			c-1.572,0-0.986,1.367,1.172,2.93c3.301,2.539,3.301,2.93,0.566,4.102c-4.482,1.563-4.082,4.688,0.391,4.688
			c2.363,0,3.535,1.367,3.32,3.33c0,2.148,1.182,3.521,3.721,3.521s3.906,1.367,3.906,3.711c0,2.153,1.172,4.102,2.539,4.497
			c1.563,0.581,1.953-0.195,1.172-2.153c-1.172-2.925-0.605-2.925,3.906-0.977c2.734,1.367,5.078,3.516,5.078,5.078
			c0,1.372,1.172,2.539,2.734,2.539c3.711,0,4.883,2.153,5.859,9.565c0.391,3.33,1.563,7.231,2.93,8.604
			c1.172,1.558,1.563,3.325,0.781,3.906c-0.586,0.781,0.586,1.367,2.91,1.367c6.836,0,25.215,13.276,26.777,19.146
			c0.781,2.925,1.367,5.664,1.367,6.25c-0.195,0.581,1.172,1.758,2.734,2.539c1.563,0.786,2.734,2.349,2.734,3.125
			c0,2.539-16.23-1.367-18.555-4.487c-0.977-1.367-3.516-2.925-5.469-3.716c-3.125-1.172-3.125-0.981-0.195,3.521
			c1.758,2.734,3.906,4.883,4.883,4.883s1.758,0.981,1.758,2.153s-1.367,1.563-3.125,0.981c-2.148-0.776-2.93-0.391-2.148,1.563
			c0.781,1.748-0.195,3.32-2.148,3.711c-2.148,0.581-1.367,0.977,1.758,1.172c2.734,0,6.641-1.172,8.789-2.734
			c4.277-3.325,10.547-3.906,10.547-0.786c0,0.981,0.977,1.367,1.953,0.786c3.516-2.148,1.973,2.153-1.953,5.864
			c-2.168,1.958-3.906,2.93-3.906,1.958c0-0.781-1.172-0.581-2.363,0.391c-3.691,2.925-15.215,4.683-15.215,2.539
			c0-1.172-0.977-1.958-1.953-1.958c-1.191,0-1.758,0.581-1.758,1.563c0.586,3.711-0.391,4.487-3.125,2.344
			c-2.539-2.148-2.734-1.958-1.758,0.776c1.367,3.711,0,3.906-5.664,0.786c-3.105-1.563-2.539-0.581,1.758,3.901
			c3.906,3.716,7.422,5.664,9.785,5.083c2.148-0.386,5.449,0.591,7.422,2.153c3.711,2.925,3.711,2.925,0.195,5.659
			c-3.125,2.153-3.34,3.325-1.367,5.669c1.953,2.349,1.738,2.935-1.563,3.906c-2.148,0.586-3.516,0.195-2.93-0.781
			c0.566-0.776-1.758-0.581-5.273,0.781l-6.445,2.148l5.859,1.182l5.879,1.172l-5.293,3.32c-2.734,1.963-6.25,3.33-7.813,3.125
			c-6.445-0.791-7.617,0.19-5.469,4.102c1.191,2.148,3.516,3.906,5.078,3.906s2.363,0.767,1.758,1.953
			c-0.586,0.981-3.711,1.367-7.012,0.586c-5.098-0.981-5.488-0.586-4.316,2.539c1.172,3.32,0.977,3.32-1.758,1.172
			s-3.516-1.963-5.664,1.963c-1.367,2.539-2.344,5.269-2.148,6.25c0.41,0.781-0.391,2.729-1.758,4.287
			c-1.172,1.567-1.738,4.106-0.977,5.664c1.367,3.525-0.977,3.906-4.297,0.586c-1.758-1.758-2.344-1.758-2.344,0
			c0,1.172,1.563,3.115,3.516,4.102c3.125,1.958,3.125,1.958-0.195,2.148c-2.344,0-3.125,0.781-1.953,2.539
			c0.781,1.172,1.563,4.297,1.563,6.836c0.176,3.115-0.977,4.297-4.102,4.297c-4.512,0-10.547-7.432-10.547-13.086
			c-0.195-2.539-0.977-2.153-3.125,1.953c-1.563,2.93-3.711,5.273-4.902,5.273c-1.152,0-1.543-0.781-0.977-1.748
			c0.586-0.776-0.176-3.33-1.953-5.278c-2.93-3.516-2.93-3.516-1.738,0.596c0.977,3.516,0.371,3.906-2.754,3.12
			c-2.148-0.581-5.078-2.153-6.25-3.716c-1.152-1.558-3.125-2.734-4.102-2.734c-3.691,0,2.93,6.06,9.57,8.794
			c10.547,4.487,7.227,8.203-5.859,7.231c-1.973-0.19-3.125,0.391-2.539,1.372C854.307,5008.339,846.68,5008.339,840.82,5006.186z
			 M850.205,5003.452c0-0.386-1.963-1.753-4.307-2.925c-4.297-2.153-4.297-1.963-0.771,0.781
			C849.219,5004.624,850.205,5005.014,850.205,5003.452z M832.031,4993.486c-0.576-0.581-2.344-0.786-3.711-0.19
			c-1.563,0.581-0.977,1.172,1.172,1.172C831.641,4994.663,832.812,4994.082,832.031,4993.486z M931.65,4933.134
			c0-1.558-0.771-2.93-1.748-2.93c-0.771,0-1.553,1.372-1.553,2.93c0,1.563,0.781,2.925,1.553,2.925
			C930.879,4936.059,931.65,4934.697,931.65,4933.134z M927.363,4900.903c0.586-0.981,0.195-1.958-0.791-1.958
			c-1.162,0-2.139,0.977-2.139,1.958c0,1.172,0.381,1.958,0.781,1.958C925.791,4902.851,926.777,4902.075,927.363,4900.903z
			 M930.879,4891.127c-0.586-2.148-1.768-3.906-2.744-3.906c-1.953,0-2.344,4.697-0.381,6.45
			C930.293,4896.21,931.855,4895.039,930.879,4891.127z M808.203,4836.44c-0.596-0.981-2.363-1.958-3.516-1.958
			c-1.387,0-1.182,0.781,0.576,1.958C808.984,4838.784,809.766,4838.784,808.203,4836.44z M820.312,4827.456
			c-0.586-0.581-2.344-0.791-3.711-0.195c-1.563,0.581-0.977,1.172,1.172,1.172C819.922,4828.623,821.084,4828.037,820.312,4827.456
			z"/>
		<path d="M701.357,4982.744c4.111-4.487,2.539-5.464-3.701-2.344c-5.869,2.93-15.449,2.344-21.104-1.172
			c-2.334-1.558-2.148-2.539,1.963-6.06l4.688-4.102l-5.859,1.367c-14.258,3.325-23.633,4.102-27.148,2.344
			c-1.963-1.167-8.008-2.344-13.086-2.534c-5.283-0.391-10.547-1.367-11.533-1.958c-3.33-2.153-2.148-4.492,3.125-5.674
			c3.311-0.981,4.688-2.344,3.906-4.102c-1.367-3.711-1.182-3.711,6.24,0.195c7.822,3.901,17.188,2.925,16.426-1.567
			c-0.391-2.539,1.172-3.115,8.789-3.315c5.273,0,11.719,0.977,14.648,2.144c5.664,2.153,16.016,0.586,14.453-2.144
			c-0.586-0.981-4.893-2.158-9.375-2.935c-10.938-1.748-14.453-4.683-9.961-8.193c2.93-2.153,2.93-2.539,0.586-2.539
			c-1.563,0-4.688,1.167-6.641,2.725c-2.148,1.563-7.422,2.935-11.719,2.935h-7.813l6.641-5.659c3.711-3.33,9.18-6.836,12.109-8.203
			c7.021-2.93,5.078-6.064-2.344-3.525c-7.813,2.93-16.416,1.567-17.197-2.539c-0.576-2.539,0.596-3.521,4.297-3.521
			c3.711,0,5.088-0.977,5.088-3.901c0-2.539,1.357-3.906,3.896-3.906c2.158,0,3.916-0.786,3.916-1.958
			c0-3.135-9.004-2.349-11.729,0.981c-1.367,1.558-4.492,2.92-7.236,2.92c-3.896,0-4.473-0.781-3.496-3.901
			c0.762-2.539,0.381-3.906-1.377-3.906c-4.287,0-7.998-3.325-6.436-5.664c0.977-1.753,1.953-1.753,3.896-0.19
			c1.758,1.563,2.939,1.563,3.916,0c1.953-3.33,14.648-2.539,14.648,0.981c0,2.539,0.762,2.539,5.264-0.391
			c3.33-2.349,5.479-2.734,5.869-1.172c0.977,2.539,8.398,0.981,8.398-1.772c0-2.539,11.914,0,15.449,3.33
			c2.715,2.539,0,3.521-15.254,5.469c-6.25,0.781-1.172,4.297,6.445,4.297c6.445,0,7.813,0.576,7.422,3.32
			c-0.391,2.93,0.391,3.315,5.664,2.148c4.688-0.977,5.879-0.581,4.688,1.177c-0.781,1.558,0.215,3.521,2.754,5.269
			c6.035,4.297,5.254,8.604-1.758,8.604c-3.125,0-5.879,0.977-5.879,1.958c0,2.158,1.367,2.349,12.695,2.158
			c4.297,0,6.641,0.386,5.469,0.981c-5.469,2.344-2.324,5.078,4.316,3.901c8.789-1.758,14.648,0,14.648,4.292
			c0.176,2.148,4.688,5.469,12.695,9.18c13.281,6.26,16.602,9.971,6.836,7.817c-4.512-0.981-5.859-0.581-5.859,1.753
			c0,3.516,5.859,5.469,14.258,4.893c8.008-0.586,15.41,1.748,14.434,4.688c-0.977,2.93-8.203,4.888-19.727,5.083
			c-5.254,0.19-12.891,1.172-17.168,2.539c-6.27,1.753-8.008,1.753-9.395-0.195c-0.977-1.753-1.953-1.958-2.715-0.386
			c-1.758,2.734-9.004,2.734-9.004,0c0-1.177-1.563-1.563-3.32-0.981c-1.953,0.596-6.055,1.563-9.375,2.344
			C699.795,4985.092,699.199,4984.897,701.357,4982.744z"/>
		<path d="M611.894,4959.501c0-0.977-1.963-1.958-4.102-1.958c-3.525,0-3.721-0.581-1.758-2.93c1.953-2.344,1.758-3.12-0.781-4.102
			c-1.963-0.786-2.935-2.534-2.354-3.906c0.771-1.753-0.391-2.729-3.12-2.729c-3.911,0-3.911-0.195-0.791-3.716
			c2.539-2.734,5.083-3.521,10.737-2.734c4.102,0.586,9.18,0,11.143-1.172c3.125-1.753,2.549-1.958-3.516-2.153
			c-8.203,0-9.189-1.748-3.896-6.445c4.492-4.102,16.016-6.641,16.016-3.716c0,1.177,1.367,1.758,2.93,1.177
			c1.953-0.786,2.93,0,2.93,2.153c0,2.148,0.977,2.925,2.734,2.344c1.563-0.591,3.906,0.195,5.078,1.758
			c1.367,1.563,3.906,2.729,5.664,2.925c2.148,0,1.748,0.581-1.172,1.758c-3.125,1.167-4.492,3.521-4.492,6.831
			c0,4.297-0.586,4.883-4.893,3.716c-3.711-0.981-4.873-0.391-4.873,1.958c0,1.748-1.563,3.12-3.525,3.12s-5.664,2.148-8.203,4.883
			C616.973,4961.45,611.894,4963.022,611.894,4959.501z"/>
		<path d="M933.213,4945.825c0.576-0.981,1.563-1.963,2.158-1.963c0.381,0,0.781,0.981,0.781,1.963c0,1.172-0.977,1.958-2.148,1.958
			C933.027,4947.783,932.637,4946.997,933.213,4945.825z"/>
		<path d="M553.872,4932.934c6.445-3.521,6.831-6.641,0.977-6.641c-3.711,0-3.906-0.391-1.558-1.963
			c1.558-0.977,6.445-1.958,10.547-1.958c4.497,0,9.18-1.367,11.328-3.325c2.344-2.153,4.297-2.539,5.664-1.172
			c2.93,2.93-5.273,12.3-10.947,12.3c-2.344,0-5.464,1.367-6.831,2.925c-1.367,1.563-5.273,2.93-8.599,2.93l-6.06-0.19
			L553.872,4932.934z"/>
		<path d="M586.489,4926.689c0-3.33,4.883-6.255,10.161-6.255c6.25,0,7.231,2.925,1.758,5.864
			C593.916,4928.637,586.489,4928.833,586.489,4926.689z"/>
		<path d="M510.898,4916.132c0.981-2.93,10.742-2.734,13.872,0.386c1.362,1.367-0.581,1.958-6.445,1.958
			S510.303,4917.7,510.898,4916.132z"/>
		<path d="M932.832,4915.161c1.758-0.386,4.883-0.386,6.836,0c1.748,0.586,0.195,0.977-3.516,0.977
			C932.451,4916.137,930.879,4915.747,932.832,4915.161z"/>
		<path d="M482.964,4912.031c-4.893-0.981-11.143-3.521-14.072-5.469c-2.729-1.958-6.055-3.711-7.231-3.711
			c-4.482,0-1.753-3.12,4.487-5.083c6.255-1.958,6.836-1.558,9.775,3.521c3.711,6.06,6.06,6.836,7.813,2.539
			c0.786-2.539,1.753-2.539,4.883-0.581c2.153,1.367,3.33,3.125,2.734,4.102c-0.581,0.981,0,2.539,1.367,3.325
			C496.831,4913.203,491.948,4913.989,482.964,4912.031z"/>
		<path d="M597.231,4904.023c4.688-3.711,13.276-4.102,12.3-0.581c-0.586,1.172-4.297,2.539-8.599,2.93
			C593.726,4906.953,593.53,4906.757,597.231,4904.023z"/>
		<path d="M525.352,4903.442c-0.786-0.581,0-2.734,1.753-4.692c1.758-1.958,2.539-4.487,1.758-5.469
			c-1.758-3.12-9.966-2.539-12.7,0.786c-1.367,1.563-3.906,2.93-5.664,2.93c-1.753,0-4.292,0.977-5.464,2.153
			c-2.539,2.539-12.305,0.781-12.305-2.153c0-1.172,0.981-1.958,1.963-1.958c1.167,0,1.958-0.981,1.958-1.958
			c0-1.177-1.177-1.958-2.349-1.758c-5.273,0.581-7.622-0.195-6.25-2.344c0.977-1.563,5.864-1.758,15.625-0.981
			c14.849,1.367,20.317-1.172,7.622-3.516c-3.911-0.786-6.45-2.158-5.869-3.325c1.753-2.734,10.352-2.153,17.188,1.362
			c3.325,1.758,10.156,3.325,14.854,3.521c7.026,0.195,8.984,0.981,9.565,3.906c0.977,4.297-3.521,9.375-4.888,5.659
			c-1.172-3.516-6.445-0.781-8.599,4.492C531.992,4904.604,528.086,4906.176,525.352,4903.442z"/>
		<path d="M576.924,4899.731c1.558-1.758,1.558-2.734,0.195-2.734c-1.177,0-2.734,0.977-3.33,1.958
			c-1.753,2.93-4.883,2.349-4.883-0.786c0-1.563-1.172-3.325-2.349-3.711c-1.362-0.596,0.581-1.177,4.692-1.177
			c6.255-0.19,6.836-0.771,6.06-4.292c-0.981-3.315-0.386-3.906,3.521-3.315c2.734,0.386,5.659,2.544,6.836,5.469
			c3.311,7.617,1.362,10.933-6.255,11.133C575.747,4902.465,574.966,4902.075,576.924,4899.731z"/>
		<path d="M613.828,4901.093c0-0.977,1.367-2.729,2.93-4.097c1.758-1.367,2.539-3.906,1.963-5.659
			c-0.391-1.758-0.186-4.102,0.576-5.278c2.148-3.516,12.129-5.078,15.244-2.539c2.158,1.758,2.93,1.563,3.916-0.977
			c1.172-3.325,7.617-4.297,9.365-1.563c0.576,0.981,3.711,1.367,7.236,0.786c3.896-0.591,6.836,0,7.813,1.753
			c1.563,2.349,2.148,2.153,3.906-0.581c2.344-4.102,11.523-4.692,11.523-0.781c0,1.558,1.563,3.32,3.32,3.901
			c2.725,1.177,2.148,2.158-3.32,5.278c-5.273,3.315-8.203,3.711-15.43,2.725c-4.902-0.786-9.961-2.148-11.338-3.325
			c-1.553-1.172-3.506-1.172-5.859,0c-2.354,1.367-4.893,1.367-7.217,0c-2.93-1.558-4.102-1.362-5.469,1.177
			c-0.986,1.753-3.711,3.13-6.064,3.13c-3.916,0.19-4.102,0.396-0.986,2.729c1.963,1.367,2.93,3.125,2.148,3.711
			C626.152,4903.442,613.828,4903.046,613.828,4901.093z"/>
		<path d="M453.267,4878.042c-4.692-0.781-5.078-1.362-3.12-4.487c1.958-2.925,1.753-4.482-0.786-7.227
			c-4.102-4.697-6.25-14.263-3.12-14.263c1.172,0,4.297-1.958,6.641-4.102c4.102-3.711,4.883-3.906,10.352-1.558
			c3.325,1.558,6.06,3.521,6.06,4.292c0,2.734,12.505,13.481,19.341,16.411c4.883,1.963,6.064,3.315,4.497,4.888
			C489.6,4875.502,462.256,4879.604,453.267,4878.042z"/>
		<path d="M602.31,4870.039c-1.948-4.502-1.948-6.836-0.2-9.966c2.354-4.697,8.799-5.664,7.031-1.177
			c-0.781,2.153,0.391,2.93,4.688,2.93c3.916,0,6.846,1.563,9.785,5.864l4.102,5.864h-5.664c-3.125,0-8.408,0.581-11.523,1.177
			C605.439,4875.698,604.463,4875.117,602.31,4870.039z"/>
		<path d="M581.025,4871.982c-7.236-0.586-8.203-1.167-6.06-3.516c3.315-3.906-1.367-9.771-5.469-6.45
			c-1.367,1.372-3.12,1.758-3.911,1.177c-1.558-1.563,3.125-7.231,5.869-7.231c1.172,0,4.692-2.349,7.617-5.273
			c4.492-4.297,6.06-4.888,7.222-2.734c0.981,1.367,2.734,1.958,3.911,1.367c1.167-0.776,2.925,0.786,4.287,4.102
			c1.558,4.487,1.377,5.864-1.362,7.813c-1.958,1.362-4.297,2.539-5.273,2.539c-1.172,0-0.386,1.758,1.367,3.716
			C593.325,4871.982,591.953,4872.773,581.025,4871.982z"/>
		<path d="M637.275,4866.328c-4.307-3.521-5.869-6.255-5.088-9.18c0.586-2.158,0.205-4.893-0.781-6.06
			c-1.367-1.758,0.586-3.125,6.445-5.083c7.617-2.344,7.822-2.539,2.744-3.315c-7.217-0.981-5.664-5.273,1.748-5.078
			c3.125,0,6.055-0.581,6.641-1.367c1.758-2.344,27.148-5.273,27.93-3.12c0.4,1.172,2.148,0.977,4.688-0.386
			c2.734-1.372,4.697-1.372,5.479-0.391c0.576,1.172-1.377,3.325-4.307,4.883c-7.012,3.716-4.473,3.911,4.307,0.391
			c3.701-1.558,6.826-3.911,6.826-4.883c0-1.177,1.172-2.153,2.539-2.153c1.563,0,4.297-1.758,6.055-3.711
			c3.32-3.521,3.32-3.911-0.195-4.697c-2.148-0.781-1.748-0.977,1.377-0.781c6.064,0.386,16.797-6.836,18.154-12.109
			c0.605-2.539-0.762-5.659-3.711-8.599c-2.93-2.925-4.297-6.06-3.516-7.817c1.172-3.32-6.641-6.641-13.477-5.464
			c-3.711,0.596-9.18-2.925-9.18-6.06c0-2.344,18.164-1.367,19.727,0.981c0.791,0.977,2.93,0.195,5.078-1.963
			c2.168-2.139,5.283-4.292,7.031-5.078c1.758-0.591,3.33-2.344,3.33-3.906c0-2.344,11.729-8.599,23.047-12.104
			c4.092-1.177,4.502-0.981,2.744,2.344c-1.191,1.958-4.307,4.883-7.031,6.445c-2.734,1.367-5.078,3.33-5.078,4.297
			c0,2.153,7.422,0.776,10.156-1.958c1.367-1.367,3.32-2.349,4.688-2.349s2.93-1.172,3.516-2.344
			c0.586-1.367,0.781-0.195,0.391,2.925c-0.391,2.93,0.195,5.278,1.172,5.278c0.791,0,0.195,2.148-1.563,4.883
			c-1.748,2.729-3.906,4.888-5.078,4.888c-2.148,0-11.133,9.961-11.328,12.505c0,0.977,1.367,0.591,2.93-0.776
			c2.539-2.153,2.734-1.963,1.758,0.776c-0.596,1.753-0.4,3.13,0.586,3.13c3.516,0,12.295-4.888,12.295-6.836
			c0-1.172,1.768-3.13,3.916-4.482c3.516-2.158,3.906-1.963,3.906,1.558c0,2.148,0.586,3.711,1.563,3.711
			c3.711-0.581,6.445,0.391,5.459,1.958c-0.596,0.981,0.205,2.344,1.963,2.925c1.563,0.596,2.344,2.158,1.758,3.325
			c-0.791,1.177-2.539,1.563-4.102,0.981c-1.367-0.581-3.145-0.19-3.721,0.786c-0.781,1.172-3.115,1.963-5.459,1.963
			c-2.93,0-3.516,0.581-1.758,1.748c2.148,1.177,2.148,1.963,0,3.521c-1.367,1.177-4.102,1.958-5.859,1.958
			c-1.963,0-6.445,1.563-10.166,3.521c-6.064,3.325-6.436,4.102-4.688,9.18c1.162,2.93,2.725,5.469,3.906,5.469
			c0.986,0,1.162,0.981,0.576,1.963c-0.576,1.172-3.516,1.367-6.436,0.781c-4.297-0.977-4.873-0.781-2.744,1.362
			c3.73,4.106,2.744,5.864-2.52,4.492c-2.93-0.776-4.902-0.391-4.902,0.981c0,1.167-1.348,2.148-3.115,2.148
			c-1.553,0-2.334,0.977-1.748,1.958c1.953,3.12-4.502,4.683-7.813,1.958c-2.344-1.958-2.93-1.958-2.93,0
			c0,1.367-1.563,1.958-3.906,1.367c-4.297-1.172-5.078,0.581-1.953,3.716c2.93,2.925-1.172,6.06-10.352,7.617
			c-6.641,1.367-7.617,0.981-8.604-2.734c-1.162-4.487-3.701-5.464-5.078-1.558c-0.576,1.753-1.563,1.753-4.102-0.391
			c-4.287-3.711-6.25-1.367-3.525,4.487c1.768,3.906,1.377,5.273-2.539,8.989c-4.102,3.901-5.254,4.097-11.719,1.958
			c-4.678-1.563-6.436-2.925-4.883-3.906c1.563-0.981,0.781-1.758-2.334-2.734c-4.102-1.177-4.307-1.367-0.986-3.906
			c4.102-3.325,4.307-5.078,0-5.078c-2.734,0-2.734-0.391,0.41-3.906c2.539-2.93,2.91-4.697,1.553-6.06
			c-2.354-2.349-7.021-0.581-5.469,2.148c0.576,0.981,0.186,2.153-0.791,2.734c-0.977,0.596-2.344,4.297-3.125,8.203
			c-0.977,5.269-0.391,8.003,2.168,10.742c3.125,3.516,3.125,3.706-1.758,3.706C645.684,4871.596,640.605,4869.252,637.275,4866.328
			z"/>
		<path d="M487.847,4861.245c-12.505-7.036-10.356-12.896,4.487-13.091c2.539,0,3.906-0.781,3.325-1.953
			c-0.581-0.981-3.711-1.958-6.831-1.958c-3.125,0-6.255-0.786-6.836-1.958c-0.786-1.177,3.516-1.963,11.523-1.963
			c6.836,0,15.044-1.172,18.169-2.344c5.273-2.344,5.078-2.539-5.273-2.93c-5.869-0.386-12.896-1.172-15.239-1.753
			c-6.836-1.367-2.344-5.864,7.427-7.422c5.078-0.791,7.813-2.349,7.813-4.102c0-4.297,14.258-3.716,26.958,0.776
			c9.37,3.516,10.942,3.516,17.383,0.977c7.026-3.125,16.216-2.349,16.216,1.172c0,1.177-1.753,1.958-4.102,1.958
			c-2.344,0-3.325,0.786-2.539,2.153c0.581,1.172,3.711,1.753,6.836,0.977c8.789-1.748,6.641,2.153-3.521,7.041
			c-7.026,3.315-9.57,5.659-9.966,9.375c-0.386,2.729-1.563,5.659-2.539,6.641c-0.981,1.172-1.758,3.516-1.758,5.469
			c0,3.706-5.464,7.422-10.942,7.422c-2.734,0-3.125-1.362-1.963-7.813c1.372-9.18-1.362-10.352-4.482-1.958
			c-1.758,5.273-8.008,8.394-8.008,4.097c0-3.516-6.445-4.097-8.789-0.977c-1.567,2.349-3.911,2.93-7.432,1.958
			c-3.906-0.981-5.269-0.581-5.269,1.753C502.495,4866.909,497.021,4866.328,487.847,4861.245z"/>
		<path d="M796.484,4859.877c-1.563-2.539,3.516-7.813,7.422-7.813c1.563,0,3.896,1.172,5.078,2.539
			c1.563,2.153,0.977,3.125-2.93,4.888C800,4862.417,798.047,4862.417,796.484,4859.877z"/>
		<path d="M601.528,4850.893c-0.581-0.581-0.581-2.349,0-3.906c0.601-1.758,0-2.734-1.558-2.349
			c-1.753,0.391-2.734-1.558-2.734-6.06c0-6.25,0.591-6.831,8.389-9.375c4.512-1.558,8.223-3.711,8.223-4.688
			c0-0.786-1.172-1.177-2.734-0.581c-1.563,0.581-3.32,0-4.102-1.177c-0.586-1.172-0.195-1.753,1.172-1.558
			c4.492,1.172,3.711-3.716-1.172-6.25c-3.125-1.758-4.883-4.297-4.883-7.432c0-4.106-0.4-4.297-2.93-2.354
			c-1.563,1.367-2.93,4.106-2.93,6.064c0,2.148-0.781,3.721-1.753,3.721c-0.981,0-3.521,0.576-5.469,1.162
			c-3.32,0.977-3.32,0.977,0-1.162c1.758-1.182,3.325-2.739,3.325-3.525c0-2.148-27.935-1.177-34.175,1.362
			c-3.125,1.367-8.799,1.768-13.091,1.177c-6.25-1.177-7.427-1.958-7.026-5.469c0.386-2.354-0.195-4.502-1.367-4.692
			c-0.981-0.396-1.958,0.386-1.958,1.563c0,3.711-11.143,7.231-17.588,5.269c-5.659-1.558-20.508-0.386-20.508,1.758
			c0,0.586,1.558,2.349,3.516,3.721c3.906,2.92,3.521,2.92-12.3,6.055c-5.273,1.172-13.872,3.711-19.145,5.659
			c-7.813,3.135-9.966,3.33-13.472,0.981c-3.33-2.153-4.297-2.153-5.864,0.19c-1.372,1.958-2.153,1.958-2.93,0.195
			c-1.563-4.102-5.273-2.93-10.933,3.711c-2.93,3.516-4.893,5.078-4.297,3.315c1.177-2.93-0.195-3.906-14.067-9.966
			c-3.12-1.367-7.026-3.521-8.789-5.083c-3.33-2.729-8.394-1.563-6.45,1.563c0.391,0.786,5.083,3.325,9.966,5.659
			c4.888,2.349,8.398,4.888,7.817,5.469c-0.596,0.786-3.325,0.195-6.06-0.981c-2.739-1.357-6.836-3.32-9.375-4.492
			s-5.273-1.758-6.45-1.563c-5.464,0.981-8.984-0.391-7.808-3.33c0.977-2.539,0.195-2.725-5.083-1.558
			c-3.521,0.581-8.984,2.349-12.3,3.716c-13.281,5.464-19.922,7.422-27.349,7.813c-4.487,0.19-11.909,1.172-16.606,1.953
			c-4.883,0.981-11.909,1.372-15.815,1.177c-4.492-0.19-7.817,0.786-9.57,2.734c-1.753,2.148-5.078,2.925-10.156,2.539
			c-4.888-0.195-8.203,0.581-9.18,2.153c-1.372,2.148-2.539,2.148-6.255-0.581c-2.539-1.758-6.641-3.125-8.984-3.125
			c-2.544,0-4.487-0.781-4.487-1.958c0-0.977-2.153-1.958-4.888-1.958c-4.888,0-14.648-7.617-14.648-11.523
			c0-1.172-3.12-2.544-6.831-3.325c-9.375-1.758-10.161-3.906-2.544-7.817c3.521-1.748,7.222-4.487,8.008-5.864
			c0.786-1.558,3.716-2.725,6.255-2.725c2.729,0,4.888-0.786,4.888-1.563c0-0.981,2.344-2.539,5.464-3.525
			c5.078-1.958,4.883-2.148-4.487-3.711c-6.641-0.977-9.775-0.786-10.356,0.776c-0.977,3.13-4.687,2.734-14.253-1.563l-8.398-3.906
			l5.659-2.153c4.102-1.563,5.083-2.539,3.125-3.711c-1.367-0.977-1.758-2.148-0.786-2.734c3.521-2.144,19.145-1.943,23.633,0.391
			c2.344,1.177,4.297,1.958,4.497,1.758c1.367-5.273,0.386-11.914-2.153-12.7c-1.558-0.581-4.883-1.753-7.227-2.935
			c-2.153-1.172-5.078-1.558-6.064-0.776c-1.958,1.167-10.156-10.161-10.156-14.067c0-1.172,2.734-2.539,5.864-3.325
			c3.325-0.786,5.864-2.153,5.864-2.93c0-0.981-1.367-1.367-2.925-0.786c-3.521,1.367-3.906-2.344-0.581-4.482
			c1.362-0.786,4.687-1.563,7.422-1.563c3.906,0,5.083-1.177,5.469-5.273c0.591-4.888,1.172-5.273,4.497-3.325
			c2.93,1.558,4.692,1.362,6.836-0.386c1.958-1.563,3.521-1.758,4.292-0.586c0.786,1.172,3.33,1.563,5.659,0.977
			c4.102-1.172,4.102-1.367,0.791-8.008c-1.758-3.711-5.474-8.008-8.599-9.365c-5.278-2.549-7.236-6.26-3.125-6.26
			c1.172,0,4.292,1.758,7.026,3.901c2.739,2.158,6.255,3.911,7.622,3.911c1.563,0,2.734,1.367,2.734,2.925
			c0,1.567,0.581,2.935,1.563,2.935c0.781,0,4.292,1.748,7.808,3.901c5.083,3.125,6.06,4.692,4.502,6.646
			c-1.563,1.748,0.386,4.688,7.813,11.523c8.794,8.198,15.435,10.352,15.435,4.883c0-0.977-0.776-1.357-1.948-0.581
			c-2.739,1.753-9.775-6.255-8.608-9.771c1.177-2.734,1.758-2.734,5.864,0c2.544,1.558,6.06,2.93,7.622,2.93
			c2.344,0,2.925,1.167,1.958,3.711c-1.753,5.469,2.153,6.831,9.18,3.32c3.325-1.748,7.231-3.12,8.794-3.12
			c1.367,0,2.539-0.781,2.539-1.753c0-0.786,5.864-2.153,13.086-2.734c7.231-0.781,13.481-1.958,14.067-2.734
			c0.591-0.977,3.901-3.516,7.427-5.859c4.292-3.12,6.445-3.711,7.021-1.958c0.586,1.768,1.567,1.563,4.297-0.581
			c3.33-2.729,3.33-2.539,1.953,1.958c-1.162,4.297-0.776,4.102,4.697-1.958c3.12-3.711,5.864-7.813,6.064-8.984
			c0-1.172,1.748-3.711,3.896-5.664c2.153-1.958,3.325-4.292,2.739-5.269c-0.586-0.981,0.386-1.567,2.344-1.177
			c2.539,0.386,3.906-0.781,4.292-3.711c0.396-2.734,1.563-3.906,3.325-3.325c1.958,0.786,2.349,0,1.567-2.935
			c-0.786-2.92,0.781-5.859,5.269-9.961c3.521-3.125,7.231-5.869,8.398-5.869c1.563,0,1.563-0.576,0-2.148
			c-3.911-3.906-0.581-9.37,6.44-10.737c3.721-0.581,6.646-2.349,6.646-3.711c0-1.372,1.758-2.93,3.711-3.521
			c4.888-1.177,10.742-10.356,9.18-14.268c-0.977-2.725-1.357-2.725-4.292,0c-4.487,4.697-9.375,4.106-6.641-0.586
			c1.172-2.354,1.753-13.276,1.367-26.963c-0.786-21.289-0.195-25,4.883-33.789c0.786-1.563,2.158-4.297,2.935-5.864
			c0.781-1.558,1.748-3.325,2.344-3.906c0.586-0.581,2.93-4.292,4.888-8.394c2.534-5.083,6.255-8.403,11.724-10.947
			c6.831-2.925,8.599-5.078,11.523-13.867c2.144-5.664,5.859-12.505,8.599-15.244c3.12-3.125,4.487-6.25,3.906-8.599
			c-0.786-2.729,0.581-4.692,4.688-7.017c3.12-1.963,6.255-5.283,6.836-7.441c1.177-4.688,12.505-16.406,12.505-12.891
			c0,1.172-1.177,2.93-2.544,3.711c-1.357,0.781-3.711,4.707-5.269,8.398c-2.534,6.641-12.104,21.685-16.992,26.958
			c-1.362,1.367-2.539,4.697-2.539,7.236c0,7.422,7.622,3.701,11.719-5.659c1.963-4.502,6.836-10.942,10.547-14.653
			c3.906-3.711,7.026-7.808,7.026-9.175c0-1.563,0.581-2.734,1.563-2.734c0.786,0,5.273-4.512,9.966-9.961
			c6.255-7.227,8.794-11.914,8.794-16.602c0.386-6.074,7.427-16.426,11.328-16.426c0.981,0,8.398-3.125,16.606-7.031
			c12.7-5.859,16.416-6.836,23.247-5.645c7.207,0.977,8.984,0.371,14.844-4.512c5.586-5.02,18.672-10.879,23.945-11.074
			c2.93,0,12.109-11.133,12.891-15.625c0.586-2.139,1.953-3.887,3.32-3.887s4.492-1.758,6.816-4.102
			c2.344-2.168,6.641-4.707,9.785-5.469c2.93-0.586,5.273-2.148,5.273-3.34c0-1.172,0.977-1.367,1.953-0.762
			c1.172,0.762,1.563,1.953,0.977,2.93c-1.563,2.539,4.492,6.25,8.398,5.078c6.055-1.973,4.102-9.57-3.125-11.719
			c-3.906-1.191-6.25-2.93-6.25-5.078c0-1.973-1.367-3.926-2.93-4.707c-1.563-0.586-2.93-2.344-2.93-3.906
			c0-1.367-1.367-3.125-2.93-3.906c-1.953-0.586-2.539-2.93-1.953-7.031c0.576-3.125,1.367-8.398,1.953-11.523
			c0.586-4.668-0.586-7.227-6.445-13.477c-7.988-8.594-12.09-15.996-12.09-22.266c0-2.734,0.977-3.516,2.91-2.734
			c4.492,1.563,3.506-1.563-1.953-6.641c-3.711-3.516-4.297-5.273-2.734-8.008c0.977-2.148,1.367-3.711,0.586-3.711
			s0.771-2.148,3.32-4.688c4.883-4.883,9.18-12.695,19.336-34.961c5.273-11.523,7.441-13.887,16.406-18.965
			c13.691-7.813,16.816-11.523,17.197-20.703c0.596-12.891-2.148-43.75-4.287-47.656c-0.977-1.953-1.963-5.664-1.963-8.203
			c0-15.82-1.758-29.297-5.078-37.695c-1.963-5.273-4.307-9.961-4.893-10.352c-0.781-0.391-0.977-3.906-0.391-8.008
			c0.605-4.102,0-9.18-1.172-11.523c-2.539-4.902-0.781-10.742,2.93-9.375c1.963,0.781,2.539-1.563,2.148-10.547
			c-0.186-6.445-0.977-11.719-1.553-11.719c-0.791,0-1.748-2.754-2.549-6.074c-0.977-5.078-1.738-5.645-3.906-3.887
			c-1.953,1.563-3.125,1.738-4.102,0.176c-0.586-0.977,0.205-2.539,1.963-3.105c1.758-0.801,2.744-2.539,2.158-3.926
			c-0.596-1.543-0.195-2.715,0.977-2.715s1.172-1.367-0.195-3.926c-1.172-2.324-1.758-5.645-1.172-7.402
			c0.586-1.777,1.563-6.27,1.953-9.98c0.391-4.102,2.734-8.203,6.064-11.133c6.25-5.449,6.25-5.449,14.248-2.539
			c5.479,1.758,5.879,2.734,4.902,8.604c-0.781,5.283-0.195,6.846,3.125,8.604c2.148,1.367,4.102,3.906,4.102,5.859
			c0,1.973,2.148,5.088,4.883,6.836c5.273,3.516,6.641,8.984,1.963,8.984c-1.563,0-3.916,1.953-5.088,4.297
			c-1.953,3.721-1.553,4.883,3.916,9.375c3.311,2.93,6.064,6.641,6.064,8.389c0,1.768,0.781,3.525,1.748,4.102
			c0.977,0.576,1.162,4.678,0.771,8.994c-0.977,7.813-0.977,7.813,4.883,6.641c6.25-1.367,8.018,0.186,8.604,7.813
			c0.391,4.102,1.563,5.078,5.479,5.078c9.961,0,18.936,3.906,21.289,8.984c1.563,3.711,1.748,5.869,0.186,7.617
			c-1.162,1.377-1.748,3.525-1.553,4.492c0.391,1.172-1.172,3.525-3.32,5.078c-3.906,2.93-3.711,2.93,1.172,3.125
			c2.734,0,5.664-0.586,6.26-1.367c0.781-0.586,3.711-1.367,6.436-1.563c5.664-0.195,16.426,10.352,16.426,16.211
			c0.195,3.516,6.445,12.109,9.18,12.109c3.516,0.195,10.352,14.258,10.352,21.309c0,4.678,1.367,8.584,3.516,10.352
			c6.23,5.654,17.969,11.328,23.633,11.328c2.93,0,6.836,1.563,8.398,3.525c4.492,5.264,11.523,18.35,10.547,19.521
			c-0.605,0.391,0,2.734,1.172,4.893c1.172,2.139,2.344,9.365,2.539,16.006c0.195,8.203,1.367,13.281,3.711,15.82
			c14.453,16.23,17.773,22.07,16.992,30.078c-0.781,8.789-2.539,11.729-6.25,11.729c-2.344,0-7.227,2.725-10.938,5.85
			c-6.445,5.664-11.914,7.031-28.125,6.465c-3.516,0-5.078,0.781-4.893,2.93c0.186,2.139-2.725,4.287-8.213,6.035
			c-7.813,2.93-8.398,2.744-11.113-0.977c-1.973-2.93-4.316-3.906-7.832-3.32c-2.734,0.586-4.863,1.758-4.863,2.734
			s-1.387,1.191-2.939,0.586c-4.502-1.758-3.525,1.953,1.943,7.813c5.283,5.664,6.064,8.008,3.125,9.961
			c-0.977,0.586-2.344,3.535-3.125,6.445c-1.738,8.027-13.457,16.016-23.242,16.016c-6.641,0-9.365,1.367-16.406,8.008
			c-5.273,4.883-9.57,7.422-11.523,6.836c-2.148-0.771-2.539-0.391-1.953,1.758c0.781,1.563,0.391,3.32-0.586,3.906
			s-1.367,2.539-0.781,4.492c0.977,2.93,0.781,2.93-1.191-0.195c-1.152-1.758-3.105-2.93-4.082-2.344
			c-0.977,0.781-1.367,2.148-0.781,3.105c1.758,2.539-4.297,2.168-8.789-0.586c-3.125-1.953-4.707-1.953-7.813-0.195
			c-1.973,1.367-5.098,1.973-6.855,1.367c-1.738-0.762-4.688,0.195-6.816,2.168c-2.734,2.324-5.273,2.91-9.766,1.953
			c-5.664-1.172-6.055-1.758-4.902-7.246c1.191-4.473,0.801-5.664-1.152-5.078c-3.145,1.191-2.734,13.887,0.176,14.844
			c1.191,0.391,1.367,1.563,0.801,2.539c-0.586,1.191-2.363,0.977-4.316-0.586c-1.758-1.348-2.539-1.543-1.758-0.371
			c0.605,1.172,0.195,3.711-1.152,5.469c-2.754,3.711-8.613,4.297-17.402,2.148c-4.297-1.172-6.25-0.391-10.352,4.102
			c-4.492,5.078-4.883,6.836-4.102,17.188c1.172,14.639-0.977,16.797-15.039,16.797h-10.742l1.367,6.445
			c2.344,9.961,3.32,13.281,6.25,20.508c1.563,3.906,1.172,4.297-4.883,4.297c-8.984,0-12.891-1.758-12.891-5.664
			c0-5.273-4.902-10.547-9.98-11.133c-10.938-1.367-16.787,1.172-22.256,9.375c-5.864,8.594-6.641,17.383-3.516,36.523
			c1.362,8.789,2.539,11.138,7.422,14.263c10.166,6.06,13.096,6.831,21.299,5.269c11.504-2.349,12.285-2.144,13.457,1.963
			c0.801,2.93,2.539,3.711,9.785,3.311c4.863-0.186,10.156-1.357,11.719-2.734c2.148-1.953,3.32-1.953,4.297-0.391
			c2.148,3.32,10.742-5.659,10.742-11.138c0-2.539,2.148-7.808,4.668-11.714l4.902-7.031l2.148,4.688
			c1.758,3.926,1.367,7.051-1.758,15.635c-2.344,5.664-4.102,12.5-4.102,14.849c0,4.097,11.914,18.169,15.234,18.169
			c0.977,0,4.492,2.734,8.027,6.255c4.102,4.102,5.469,6.641,3.906,7.427c-1.563,1.172-1.563,1.753,0.391,2.734
			c1.953,0.776,2.148,1.558,0.586,2.144c-1.367,0.581-1.953,2.935-1.367,4.883c0.586,2.158,0.195,3.911-0.977,3.911
			s-1.563,1.958-0.977,4.102c1.172,3.906,1.367,3.906,3.516-1.367c2.148-4.692,2.734-5.078,3.906-2.349
			c0.781,1.758,0.781,4.297,0,5.474c-0.586,0.977,0,1.953,1.563,1.953c3.125,0,5.859,5.078,4.297,7.817
			c-0.781,1.367,4.883,4.292,13.867,6.831c2.949,0.791,4.297,2.734,4.297,5.869c0,6.25,2.93,9.771,10.742,12.891
			c3.516,1.367,6.641,3.125,7.227,3.711c1.758,2.349,12.715,5.083,16.621,4.297c3.125-0.786,2.539-1.367-2.93-3.13
			c-3.711-1.172-7.031-3.716-7.441-5.469c-0.762-4.106,4.102-4.692,7.246-0.981c1.172,1.567,5.664,3.911,9.961,5.278
			c4.297,1.362,7.813,3.325,7.813,4.292c0,0.771,1.172,1.563,2.734,1.563s3.516,0.981,4.297,2.349
			c0.977,1.367,0.391,1.758-1.758,0.977c-2.344-0.786-2.734-0.391-1.953,1.958c0.781,2.148,0.391,2.729-0.977,1.753
			c-1.367-0.771-2.344-2.734-2.344-4.292c0-4.102-12.324-3.521-16.23,0.786c-1.953,1.958-3.311,5.078-3.311,6.641
			c0,1.758-1.563,3.711-3.33,4.482c-3.125,1.372-2.92,1.758,0.977,2.739c5.879,1.558,5.664,4.883-0.381,5.659
			c-5.654,0.786-15.635-3.906-23.057-10.938c-3.125-2.729-5.469-4.492-5.469-3.711c0,2.349,14.063,16.992,16.416,16.992
			c1.172,0,3.311,1.758,4.678,3.906c2.148,3.521,4.502,3.911,19.746,3.911c14.453,0,17.969,0.581,21.689,3.906
			c2.539,2.144,6.436,3.896,8.975,3.896c9.18,0,10.742,12.305,1.963,16.606c-5.078,2.539-6.064,2.539-8.975,0
			c-3.525-3.13-7.832-3.906-7.832-1.362c0,0.977,3.125,2.925,6.846,4.292l7.021,2.734l-7.227,2.734
			c-9.375,3.906-15.82,10.742-15.82,16.992c0,2.734-1.563,6.641-3.32,8.599c-1.758,1.753-3.115,4.102-3.115,4.883
			c0,0.786-1.367,3.521-3.115,6.06c-3.73,5.474-7.832,4.487-9.57-2.344c-0.596-2.734-1.758-4.492-2.354-3.911
			c-0.576,0.581-2.344,0-3.896-1.558c-3.32-3.325-6.455-3.711-6.455-0.981c0,1.177-2.158,1.958-4.502,1.958
			c-4.297,0-4.688,0.791-4.102,9.775c0.195,5.273-0.195,9.565-0.781,9.565c-3.906-0.581-6.641,0.786-10.742,5.273
			c-3.906,4.297-6.826,5.269-17.188,5.654c-13.867,0.791-16.602,0-13.281-4.097c1.758-2.153,1.758-3.315-0.195-5.664
			c-1.748-1.953-1.748-2.925-0.186-2.925c3.115,0,2.725-8.203-0.596-12.7c-2.539-3.516-2.148-4.487,2.93-10.352
			c3.125-3.521,5.664-7.622,5.664-9.18c0-3.711-9.18-14.263-13.867-15.625c-2.734-0.981-3.33-1.963-2.148-3.521
			c4.492-5.864,4.688-24.614,0.195-21.689c-0.986,0.581-1.758,0-1.758-1.167c0-1.177-2.539-0.195-5.664,2.344
			c-5.859,4.487-8.594,11.914-8.398,21.685c0.195,4.893-0.391,5.273-7.441,5.273c-4.102,0-8.184,0.977-8.77,1.958
			c-0.605,1.177-2.734,1.958-4.707,1.958c-1.953,0-5.859,2.153-8.789,4.888c-4.883,4.487-15.049,7.817-20.508,6.45
			c-1.563-0.391-3.33,1.953-4.502,5.864c-1.182,4.287-2.744,6.25-5.654,6.25c-2.168,0-4.307,1.362-5.088,3.12
			c-1.758,4.883,2.92,17.383,8.984,24.028c3.135,3.325,5.078,6.44,4.482,7.041c-0.576,0.581,0.391,0.981,2.158,0.981
			c5.869,0,5.469,3.896-0.986,6.641c-7.217,3.125-2.725,4.292,5.078,1.172c4.102-1.563,5.088-1.367,5.088,1.172
			c0,2.148,1.182,2.734,3.115,1.958c3.73-1.367,10.557,1.958,10.557,5.464c0,1.372-3.525,4.102-7.813,6.06
			c-4.307,1.963-7.236,4.297-6.641,5.083c0.381,0.977,3.896,0.195,7.627-1.563c5.449-2.734,7.217-2.734,9.766-0.581
			c1.748,1.367,2.734,3.711,2.148,5.083c-1.172,2.925,4.102,5.269,5.664,2.725c0.781-1.172,2.734-1.953,4.492-1.953
			c2.344,0,2.52,0.586,0.781,2.349c-3.711,3.711-2.734,6.44,1.162,2.925c4.307-3.906,8.408-4.297,11.729-0.977
			c3.115,3.115,2.93,8.394-0.586,11.328c-1.563,1.367-2.93,3.711-2.93,5.273c0,1.758,1.172,2.544,2.93,1.758
			c4.102-1.563,3.711,3.325-0.586,5.859c-6.25,3.906-16.016,5.273-16.016,2.349c0-1.558,0.977-3.711,2.344-5.078
			c1.758-1.753,1.367-2.539-0.977-3.521c-1.758-0.586-3.32-2.148-3.32-3.521c0-1.172-1.758-4.297-3.906-7.026l-3.77-4.912
			l-4.512,4.287c-3.301,3.315-3.691,5.078-2.148,6.646c1.563,1.558,1.758,3.516,0.391,6.06c-2.539,4.692-5.078,4.487-6.641-0.386
			c-1.758-5.664-4.297-4.897-5.859,1.958c-0.977,4.482-2.344,5.859-6.055,5.859c-5.078,0-6.055,1.758-2.734,5.078
			c1.563,1.567,1.172,2.935-0.977,4.692c-1.563,1.362-2.93,4.106-2.93,6.06c0,2.349-2.148,4.487-5.078,5.664
			C602.9,4852.451,603.091,4852.451,601.528,4850.893z"/>
		<path d="M586.489,4827.646c0-1.563-1.172-2.93-2.344-2.93c-5.083-0.19,5.269-5.864,10.547-5.864c6.836,0,7.021,2.544,0.381,7.622
			C588.833,4831.357,586.489,4831.552,586.489,4827.646z"/>
		<path d="M746.269,4825.297c1.367-0.581,3.125-0.386,3.711,0.195c0.791,0.591-0.381,1.172-2.539,0.981
			C745.293,4826.474,744.707,4825.893,746.269,4825.297z"/>
		<path d="M697.256,4812.211c-0.576-1.362-0.205-3.516,0.977-4.692c2.734-2.729,9.375,0.586,9.375,4.492
			C707.607,4815.732,698.613,4815.922,697.256,4812.211z"/>
		<path d="M651.152,4786.811c-1.172-3.12-1.758-6.055-1.172-6.636c0.391-0.591,0-2.153-1.172-3.711
			c-1.758-1.963-1.563-2.544,0.762-2.544c1.563,0,3.34-0.977,3.73-2.148c0.371-1.367,2.334-1.367,5.859,0.386
			c2.91,1.177,4.873,3.13,4.297,3.906c-1.758,2.93,3.701,1.958,7.217-1.367c2.354-2.153,4.697-2.734,7.031-1.558
			c3.125,1.362,3.125,1.558-0.791,2.148c-2.539,0.586-4.473,1.958-4.473,3.12c0,2.539-10.547,9.18-14.648,9.18
			c-1.377,0-2.939,1.177-3.516,2.544C653.691,4791.313,652.324,4789.946,651.152,4786.811z"/>
		<path d="M387.241,4725.097c0-0.981,1.372-1.958,2.93-1.958c1.563,0,2.925,0.977,2.925,1.958c0,1.172-1.362,1.953-2.925,1.953
			C388.613,4727.05,387.241,4726.269,387.241,4725.097z"/>
		<path d="M298.359,4723.33c-0.581-1.172-1.958-1.753-2.93-1.172c-0.967,0.581-2.148,0.19-2.729-0.786
			c-0.786-0.977-0.195-2.539,0.977-3.125c2.349-1.558,9.185,4.102,7.231,5.869C300.317,4724.902,299.145,4724.306,298.359,4723.33z"
			/>
		<path d="M393.301,4718.056c0-2.153,0.581-2.734,1.177-1.172c0.581,1.362,0.386,3.12-0.195,3.716
			C393.691,4721.381,393.105,4720.209,393.301,4718.056z"/>
		<path d="M402.866,4710.439c0-2.93,3.521-7.817,4.697-6.641c0.586,0.581-0.195,2.734-1.758,4.883
			C404.238,4710.639,403.061,4711.611,402.866,4710.439z"/>
		<path d="M252.461,4706.533c-3.12-3.716-0.195-3.716,4.692,0c3.12,2.344,3.32,2.925,0.781,2.925
			C256.367,4709.467,253.828,4708.1,252.461,4706.533z"/>
		<path d="M239.956,4699.892c-0.786-0.981,0.581-1.367,2.729-0.786c4.492,1.172,5.083,2.539,1.177,2.539
			C242.3,4701.655,240.547,4700.869,239.956,4699.892z"/>
		<path d="M405.215,4694.038c0.386-1.367,1.367-2.349,2.153-2.349c2.344,0.195,1.753,2.93-0.581,3.906
			C405.405,4695.986,404.624,4695.209,405.215,4694.038z"/>
		<path d="M801.738,4670.986c-2.129-3.125-4.473-8.398-5.254-11.724c-0.605-3.521-2.158-6.445-3.125-6.445
			c-0.977,0-1.758-0.977-1.758-2.153c0-1.172,3.516-1.953,8.398-1.753c13.672,0.581,13.867,0.581,10.938-3.325
			c-2.148-2.93-1.758-2.734,1.758,0.195c4.307,3.711,4.492,3.711,7.031,0.195c1.758-2.544,2.93-2.93,3.916-1.177
			c0.771,1.177,0,2.734-1.758,3.325c-1.748,0.786-2.734,2.539-2.158,3.911c0.586,1.558,0.195,2.729-0.977,2.729
			s-1.748,1.367-0.977,2.93c0.771,2.148-0.195,2.925-3.711,2.925c-2.539,0-5.273,0.981-5.869,1.958
			c-0.791,1.177-2.148,1.563-3.115,0.981c-0.977-0.786-1.758-0.391-1.758,0.776c0,0.977,0.781,2.344,1.758,2.925
			c2.344,1.563,4.102,8.979,2.148,8.979C806.25,4676.259,803.906,4673.911,801.738,4670.986z"/>
		<path d="M433.54,4667.27c2.349-1.563,6.641-5.273,9.775-7.813c5.078-4.297,10.347-6.255,10.347-3.521
			c0,3.325-11.909,12.119-17.583,13.281C429.438,4670.39,429.438,4670.39,433.54,4667.27z"/>
		<path d="M661.309,4491.269c-5.273-1.953-2.344-4.102,3.125-2.344c4.492,1.563,7.031,1.367,11.719-0.977
			c3.145-1.758,7.041-3.125,8.398-3.125c1.367,0,4.883-2.148,7.813-4.883c3.516-3.145,7.617-4.883,11.719-4.883h6.455l-4.893,3.906
			c-2.734,2.148-6.445,3.896-8.203,3.896c-1.953,0-3.516,0.986-3.516,1.963c0,1.172-1.172,1.953-2.734,1.953
			c-1.367,0-5.273,1.367-8.203,2.93C677.519,4492.441,666.191,4493.417,661.309,4491.269z"/>
		<path d="M285.659,4473.105c0-0.977,0.981-1.963,1.958-1.963c1.177,0,1.963,0.986,1.963,1.963c0,1.172-0.786,1.953-1.963,1.953
			C286.641,4475.058,285.659,4474.277,285.659,4473.105z"/>
		<path d="M718.926,4471.347c2.734-2.93,2.539-3.32-2.734-4.287l-5.654-1.377l6.826-0.391c3.711-0.371,8.203-0.371,9.775-0.186
			c1.553,0.186,5.283,0.596,8.193,0.791c3.125,0.195,5.469,0.977,5.469,1.563c0,2.148-11.523,6.25-18.359,6.641
			C716.396,4474.472,715.996,4474.082,718.926,4471.347z"/>
		<path d="M748.613,4465.292c0-0.977,1.367-1.963,3.125-1.963c1.563,0,2.344,0.986,1.758,1.963
			c-0.586,1.172-1.953,1.953-3.125,1.953C749.394,4467.246,748.613,4466.464,748.613,4465.292z"/>
		<path d="M693.535,4463.925c1.182-0.391,3.516-0.391,4.893,0c1.162,0.576,0.186,0.977-2.549,0.977
			C693.154,4464.902,692.168,4464.501,693.535,4463.925z"/>
		<path d="M809.18,4334.414c0-3.125,0.977-4.102,4.492-3.516c2.334,0.391,4.297,1.953,4.297,3.516s-1.963,3.125-4.297,3.516
			C810.156,4338.515,809.18,4337.539,809.18,4334.414z"/>
		<path d="M686.504,4087.314c0-3.115,0.391-4.307,0.977-2.354c0.391,1.758,0.391,4.492,0,5.879
			C686.894,4091.992,686.504,4090.625,686.504,4087.314z"/>
		<path d="M690.019,4016.982c1.367-1.563,3.32-2.93,4.297-2.93s0.586,1.367-1.172,2.93c-1.563,1.563-3.525,2.93-4.297,2.93
			C688.262,4019.912,688.652,4018.554,690.019,4016.982z"/>
		<path d="M699.004,4012.304c-0.781-1.367-0.977-2.93-0.391-3.525c1.758-1.748,3.721,0.791,2.744,3.525
			C700.566,4014.443,700.176,4014.443,699.004,4012.304z"/>
	</g>
</g>
</svg>
