<?xml version="1.0" encoding="UTF-8" standalone="no"?>
<!-- Generator: Adobe Illustrator 16.0.3, SVG Export Plug-In . SVG Version: 6.00 Build 0)  -->

<svg
   xmlns:dc="http://purl.org/dc/elements/1.1/"
   xmlns:cc="http://creativecommons.org/ns#"
   xmlns:rdf="http://www.w3.org/1999/02/22-rdf-syntax-ns#"
   xmlns:svg="http://www.w3.org/2000/svg"
   xmlns="http://www.w3.org/2000/svg"
   xmlns:sodipodi="http://sodipodi.sourceforge.net/DTD/sodipodi-0.dtd"
   xmlns:inkscape="http://www.inkscape.org/namespaces/inkscape"
   version="1.1"
   id="Layer_1"
   x="0px"
   y="0px"
   viewBox="0.5 0.5 120 120"
   enable-background="new 0.5 0.5 120 120"
   xml:space="preserve"
   sodipodi:docname="Arrowhead.svg"
   inkscape:version="0.92.2 (5c3e80d, 2017-08-06)"><metadata
     id="metadata13"><rdf:RDF><cc:Work
         rdf:about=""><dc:format>image/svg+xml</dc:format><dc:type
           rdf:resource="http://purl.org/dc/dcmitype/StillImage" /><dc:title></dc:title></cc:Work></rdf:RDF></metadata><defs
     id="defs11" /><sodipodi:namedview
     pagecolor="#ffffff"
     bordercolor="#666666"
     borderopacity="1"
     objecttolerance="10"
     gridtolerance="10"
     guidetolerance="10"
     inkscape:pageopacity="0"
     inkscape:pageshadow="2"
     inkscape:window-width="1683"
     inkscape:window-height="941"
     id="namedview9"
     showgrid="false"
     inkscape:zoom="1.9666667"
     inkscape:cx="-36.864407"
     inkscape:cy="60"
     inkscape:window-x="0"
     inkscape:window-y="0"
     inkscape:window-maximized="0"
     inkscape:current-layer="Layer_1" /><g
     id="g6"><path
       fill="#DCE0DF"
       d="M106.174,120.719c7.922,0,14.326-6.428,14.326-14.35V15.057c0-7.922-6.404-14.349-14.326-14.349H14.859   C6.937,0.708,0.51,7.135,0.51,15.057v91.31c0,7.922,6.427,14.35,14.349,14.35h91.314L106.174,120.719L106.174,120.719z"
       id="path2" /><path
       fill="#FFFFFF"
       d="M14.859,3.14c-6.579,0-11.92,5.35-11.92,11.92v91.309c0,6.572,5.342,11.93,11.92,11.93h91.316   c6.558,0,11.892-5.355,11.892-11.93V15.057c0-6.571-5.334-11.92-11.892-11.92H14.861L14.859,3.14z"
       id="path4" /></g><path
     style="fill:#000000;stroke-width:0.22"
     d="m 38.407975,82.8891 c -0.38004,-0.239267 -0.75714,-0.542055 -0.83798,-0.672863 -0.21332,-0.34516 -1.11276,-0.291683 -2.05309,0.122067 -0.64571,0.284119 -1.6908,0.37083 -4.96343,0.411816 -3.98835,0.04995 -4.16676,0.03362 -4.70649,-0.430633 -1.11357,-0.957844 -1.41638,-5.805806 -0.50914,-8.151081 l 0.51063,-1.32 -0.79431,-1.21 c -1.47143,-2.241474 -1.32614,-2.114253 -2.04011,-1.786488 -0.34929,0.160354 -1.27835,0.383482 -2.06457,0.49584 -0.88383,0.126311 -1.72359,0.40711 -2.19999,0.735639 -0.42379,0.292243 -1.20617,0.833674 -1.73863,1.20318 -0.75761,0.525756 -1.20225,0.671829 -2.045,0.671829 -1.31034,0 -2.05083,-0.61761 -2.27853,-1.900419 -0.083,-0.467269 -0.42413,-1.146581 -0.75818,-1.509581 -1.38297,-1.502778 -1.45065,-2.614997 -0.30115,-4.94833 l 0.79903,-1.621924 -0.38578,-1.07281 c -0.26251,-0.730024 -0.35039,-1.437729 -0.27505,-2.214874 0.0788,-0.812709 -0.009,-1.445772 -0.30325,-2.195206 -0.64711,-1.64621 -0.54702,-2.820741 0.3857,-4.526278 l 0.79969,-1.462268 -0.90969,-1.809271 c -0.89839,-1.786827 -1.16918,-3.306809 -0.77302,-4.339183 0.2894,-0.754164 1.27684,-1.012147 3.28363,-0.857892 2.30581,0.177238 2.96511,0.560063 3.99159,2.317742 0.93656,1.603698 1.64506,2.160294 2.74985,2.160294 0.47431,0 1.56033,0.297 2.41336,0.66 0.85304,0.363 1.77922,0.66 2.05817,0.66 0.35239,0 0.94965,-0.494382 1.95696,-1.619871 0.79738,-0.89093 1.44978,-1.722376 1.44978,-1.847659 0,-0.125286 -0.297,-0.792396 -0.66,-1.48247 -0.61058,-1.160729 -0.66,-1.425981 -0.66,-3.542341 0,-2.521196 0.21906,-3.009083 1.4794,-3.294971 0.33583,-0.07617 1.09882,-0.276694 1.69553,-0.445594 2.51349,-0.711454 3.86507,-0.118028 3.86507,1.697003 0,0.866811 0.0239,0.902457 0.38572,0.575029 1.3988,-1.265895 4.39904,-1.860291 5.78148,-1.145401 0.7309,0.377964 1.3128,1.349678 1.3128,2.192253 0,0.825942 0.48609,0.890433 2.0357,0.270081 2.8484,-1.140291 6.04821,-0.978599 8.94853,0.452184 1.43419,0.707513 1.74352,0.965945 2.22505,1.858912 0.30761,0.570436 0.78408,1.276446 1.05884,1.568912 l 0.49956,0.531756 1.47116,-0.519271 c 1.69395,-0.597909 2.81477,-0.65499 4.34623,-0.221346 0.59671,0.168962 1.66459,0.369052 2.37307,0.44464 1.56852,0.167351 2.00739,0.37915 3.01413,1.454598 l 0.78226,0.835661 1.30773,-0.307617 c 2.53616,-0.596572 3.25764,-0.404732 4.60899,1.225512 1.02754,1.23961 1.41477,1.385553 2.93203,1.105073 0.66964,-0.123789 1.85591,-0.225073 2.63616,-0.225073 1.66765,0 2.38397,0.363924 3.60663,1.832332 l 0.81606,0.980093 1.87187,-0.116783 c 3.11238,-0.194174 4.8087,0.445998 5.96293,2.25035 0.41688,0.651684 0.83336,1.228447 0.92551,1.281691 0.0922,0.05324 0.86056,0.01098 1.70756,-0.09393 1.9132,-0.236957 2.52356,-0.04378 3.955795,1.251978 0.602705,0.545262 1.34522,1.049792 1.65002,1.121178 1.02574,0.240226 2.08948,0.980573 2.81616,1.960004 l 0.72197,0.973087 h 1.7133 c 1.6556,0 1.75301,0.02963 2.89276,0.88 0.64871,0.484 1.40909,0.88 1.68973,0.88 1.08363,0 1.87226,1.476374 1.39898,2.618981 -0.38739,0.93524 -1.60598,2.171794 -2.31581,2.34995 -0.34256,0.08598 -1.09683,0.03485 -1.67615,-0.113628 -1.02107,-0.261692 -1.09573,-0.246417 -2.44002,0.499237 -0.7627,0.423056 -1.83029,0.88631 -2.37241,1.029451 -0.54212,0.143143 -1.68907,0.646303 -2.54877,1.118134 -1.37108,0.752491 -1.741365,0.857875 -3.014295,0.857875 -1.27193,0 -1.70247,0.122296 -3.48526,0.99 -1.11874,0.5445 -2.15389,0.99 -2.30033,0.99 -0.14645,0 -0.92278,0.307217 -1.72518,0.682706 -1.5469,0.723884 -2.40541,0.767798 -3.77715,0.193211 -0.64913,-0.271907 -0.72764,-0.24191 -1.92994,0.737369 -1.73796,1.415593 -2.69569,1.570477 -4.56858,0.738826 l -0.79517,-0.353095 -2.28483,1.175902 c -2.81133,1.446874 -4.16778,1.771238 -5.94495,1.4216 -1.14276,-0.224822 -1.40092,-0.20386 -2.33243,0.189374 -0.57609,0.243199 -1.52134,0.509978 -2.10055,0.592841 -0.57921,0.08286 -1.76721,0.485443 -2.64,0.894625 -0.99478,0.466374 -2.20254,0.827363 -3.23689,0.967475 -0.9075,0.122931 -2.38509,0.474531 -3.28353,0.781338 -2.34946,0.802305 -3.42948,0.749384 -4.88936,-0.239573 l -1.17711,-0.797399 -1.32,0.726684 c -1.18993,0.655079 -1.55846,0.741031 -3.74,0.872287 -1.68498,0.101383 -2.78751,0.290607 -3.63,0.623014 -1.81767,0.717167 -3.25442,0.816492 -4.101,0.283509 z"
     id="path3715"
     inkscape:connector-curvature="0" /></svg>