<?xml version="1.0" encoding="utf-8"?>
<!-- Generator: Adobe Illustrator 16.0.3, SVG Export Plug-In . SVG Version: 6.00 Build 0)  -->
<!DOCTYPE svg PUBLIC "-//W3C//DTD SVG 1.1//EN" "http://www.w3.org/Graphics/SVG/1.1/DTD/svg11.dtd">
<svg version="1.1"
	 id="Layer_1" xmlns:ns1="http://sozi.baierouge.fr" xmlns:sodipodi="http://sodipodi.sourceforge.net/DTD/sodipodi-0.dtd" xmlns:inkscape="http://www.inkscape.org/namespaces/inkscape" xmlns:svg="http://www.w3.org/2000/svg" xmlns:dc="http://purl.org/dc/elements/1.1/" xmlns:cc="http://web.resource.org/cc/" xmlns:rdf="http://www.w3.org/1999/02/22-rdf-syntax-ns#"
	 xmlns="http://www.w3.org/2000/svg" xmlns:xlink="http://www.w3.org/1999/xlink" x="0px" y="0px"
	 viewBox="0 0 120 120" enable-background="new 0 0 120 120" xml:space="preserve">
<g>
	<path fill="#DCE0DF" d="M105.965,119.843c7.924,0,14.354-6.397,14.354-14.321V14.169c0-7.924-6.43-14.338-14.354-14.338H14.626
		c-7.924,0-14.353,6.414-14.353,14.338v91.347c0,7.924,6.429,14.322,14.353,14.322h91.338L105.965,119.843L105.965,119.843z"/>
	<path fill="#FFFFFF" d="M14.626,2.262c-6.58,0-11.924,5.343-11.924,11.909v91.347c0,6.565,5.344,11.908,11.924,11.908h91.34
		c6.572,0,11.916-5.343,11.916-11.908V14.176c0-6.566-5.344-11.909-11.916-11.909H14.627L14.626,2.262z"/>
	<path d="M28.857,98.449c9.616,0,17.419-7.803,17.419-17.434c0-9.609-7.802-17.412-17.419-17.412
		c-9.594,0-17.396,7.803-17.396,17.412C11.461,90.648,19.264,98.449,28.857,98.449L28.857,98.449z M7.499,81.018
		c0-11.803,9.579-21.356,21.358-21.356c11.81,0,21.381,9.556,21.381,21.356c0,11.812-9.571,21.365-21.381,21.365
		c-11.78,0-21.358-9.557-21.358-21.367V81.018z"/>
	<path d="M91.758,98.652c9.594,0,17.396-7.787,17.396-17.418c0-9.617-7.803-17.42-17.396-17.42c-9.617,0-17.42,7.803-17.42,17.42
		c0.002,9.627,7.805,17.418,17.422,17.418H91.758z M70.376,81.229c0-11.81,9.586-21.356,21.382-21.356
		c11.779,0,21.357,9.548,21.357,21.356c0,11.813-9.578,21.367-21.357,21.367c-11.796,0-21.382-9.559-21.382-21.369V81.229
		L70.376,81.229z"/>
	<path d="M70.436,29.093c4.435,0,8.039-3.583,8.039-8.015c0-4.432-3.604-8.045-8.039-8.045c-4.433,0-8.045,3.613-8.045,8.045
		C62.391,25.51,66.004,29.093,70.436,29.093z"/>
	<path d="M70.771,48.592c-1.17,0.022-2.422-0.562-3.349-2.019l-5.215-8.159l-10.77,10.664l9.981,5.252
		c4.104,1.965,3.491,5.579,3.491,5.579v22.603c0,2.559-2.063,4.646-4.63,4.646c-2.558,0-4.623-2.088-4.623-4.646V64.41
		l-17.313-9.617c-2.065-1.154-3.461-3.354-3.461-5.867c0-1.738,0.637-3.324,1.73-4.509L53.595,27.4
		c2.11-2.383,5.055-2.003,5.055-2.003c3.56,0,5.427,3.104,5.427,3.104l8.827,13.829L86.3,42.308c4.819,0,4.819,6.285,0,6.285
		L70.771,48.592L70.771,48.592z"/>
</g>
</svg>
