<?xml version="1.0" encoding="utf-8"?>
<!-- Generator: Adobe Illustrator 16.0.3, SVG Export Plug-In . SVG Version: 6.00 Build 0)  -->
<!DOCTYPE svg PUBLIC "-//W3C//DTD SVG 1.1//EN" "http://www.w3.org/Graphics/SVG/1.1/DTD/svg11.dtd">
<svg version="1.1"
	 id="Layer_1" xmlns:ns1="http://sozi.baierouge.fr" xmlns:sodipodi="http://sodipodi.sourceforge.net/DTD/sodipodi-0.dtd" xmlns:inkscape="http://www.inkscape.org/namespaces/inkscape" xmlns:svg="http://www.w3.org/2000/svg" xmlns:dc="http://purl.org/dc/elements/1.1/" xmlns:cc="http://web.resource.org/cc/" xmlns:rdf="http://www.w3.org/1999/02/22-rdf-syntax-ns#"
	 xmlns="http://www.w3.org/2000/svg" xmlns:xlink="http://www.w3.org/1999/xlink" x="0px" y="0px"
	 viewBox="0 0 120 120" enable-background="new 0 0 120 120" xml:space="preserve">
<g>
	<path fill="#DCE0DF" d="M105.674,120.438c7.922,0,14.326-6.428,14.326-14.35V14.776c0-7.922-6.404-14.349-14.326-14.349H14.359
		C6.437,0.427,0.01,6.854,0.01,14.776v91.31c0,7.922,6.427,14.35,14.349,14.35h91.314V120.438L105.674,120.438z"/>
	<path fill="#FFFFFF" d="M14.359,2.859c-6.579,0-11.92,5.35-11.92,11.92v91.309c0,6.572,5.342,11.93,11.92,11.93h91.316
		c6.558,0,11.892-5.355,11.892-11.93V14.776c0-6.571-5.334-11.92-11.892-11.92H14.361L14.359,2.859z"/>
</g>
<path d="M106.738,111.287c-2.064,0-4.074-0.479-5.857-1.281c-1.822-0.857-3.886-1.352-6.041-1.352c-2.14,0-4.203,0.492-6.025,1.352
	c-1.805,0.805-3.793,1.281-5.881,1.281c-2.063,0-4.082-0.479-5.855-1.281c-1.829-0.857-3.895-1.352-6.051-1.352
	c-2.131,0-4.193,0.492-6.022,1.352c-1.799,0.805-3.794,1.281-5.882,1.281c-2.087,0-4.074-0.479-5.857-1.281
	c-1.829-0.857-3.893-1.352-6.04-1.352c-2.155,0-4.22,0.492-6.041,1.352c-1.783,0.805-3.786,1.281-5.874,1.281
	c-2.072,0-4.075-0.479-5.866-1.281c-1.829-0.857-3.893-1.352-6.041-1.352c-2.14,0-4.204,0.492-6.033,1.352
	c-1.791,0.805-3.779,1.281-5.865,1.281v-8.801c2.086,0,4.074-0.471,5.865-1.283c1.829-0.827,3.893-1.319,6.033-1.319
	c2.147,0,4.212,0.493,6.041,1.319c1.791,0.813,3.794,1.283,5.866,1.283c2.086,0,4.09-0.471,5.874-1.283
	c1.821-0.827,3.885-1.319,6.041-1.319c2.147,0,4.211,0.493,6.04,1.319c1.784,0.813,3.771,1.283,5.857,1.283
	c2.087,0,4.083-0.471,5.882-1.283c1.829-0.827,3.896-1.319,6.022-1.319c2.156,0,4.222,0.493,6.051,1.319
	c1.773,0.813,3.794,1.283,5.855,1.283c2.086,0,4.074-0.471,5.881-1.283c1.822-0.827,3.888-1.319,6.025-1.319
	c2.155,0,4.219,0.493,6.041,1.319c1.783,0.813,3.793,1.283,5.857,1.283v8.799V111.287z"/>
<polygon points="68.518,8.321 68.518,74.527 14.292,74.527 "/>
<path d="M73.662,23.588c15.958,7.421,34.906,27.204,32.416,50.939H73.663L73.662,23.588L73.662,23.588z"/>
<path d="M99.23,79.314H27.093v13.092c0.812,0.212,1.616,0.447,2.353,0.804c1.791,0.782,3.794,1.261,5.866,1.261
	c2.086,0,4.09-0.479,5.874-1.261c1.821-0.851,3.885-1.351,6.041-1.351c2.147,0,4.211,0.5,6.04,1.351
	c1.784,0.782,3.771,1.261,5.857,1.261c2.087,0,4.083-0.479,5.882-1.261c1.829-0.851,3.895-1.351,6.023-1.351
	c2.156,0,4.221,0.5,6.05,1.351c1.774,0.782,3.794,1.261,5.856,1.261c0.401,0,0.781-0.1,1.162-0.145c0.045,0,0.045,0.045,0.09,0.045
	c0.267,0,0.457-0.113,0.713-0.113c0.479-0.068,0.949-0.121,1.429-0.234c4.264-0.881,7.021-4.205,7.021-4.205l8.293-10.5h-2.408
	L99.23,79.314z"/>
</svg>
