<?xml version="1.0" encoding="utf-8"?>
<!-- Generator: Adobe Illustrator 16.0.3, SVG Export Plug-In . SVG Version: 6.00 Build 0)  -->
<!DOCTYPE svg PUBLIC "-//W3C//DTD SVG 1.1//EN" "http://www.w3.org/Graphics/SVG/1.1/DTD/svg11.dtd">
<svg version="1.1"
	 id="Layer_1" xmlns:ns1="http://sozi.baierouge.fr" xmlns:sodipodi="http://sodipodi.sourceforge.net/DTD/sodipodi-0.dtd" xmlns:inkscape="http://www.inkscape.org/namespaces/inkscape" xmlns:svg="http://www.w3.org/2000/svg" xmlns:dc="http://purl.org/dc/elements/1.1/" xmlns:cc="http://web.resource.org/cc/" xmlns:rdf="http://www.w3.org/1999/02/22-rdf-syntax-ns#"
	 xmlns="http://www.w3.org/2000/svg" xmlns:xlink="http://www.w3.org/1999/xlink" x="0px" y="0px"
	 viewBox="0 0 120 120" enable-background="new 0 0 120 120" xml:space="preserve">
<g>
	<path fill="#DCE0DF" d="M105.951,120.225c7.914,0,14.334-6.406,14.334-14.32V14.573c0-7.914-6.42-14.342-14.334-14.342H14.627
		c-7.914,0-14.342,6.427-14.342,14.342v91.331c0,7.914,6.427,14.318,14.342,14.318L105.951,120.225L105.951,120.225z"/>
	<path fill="#FFFFFF" d="M14.627,2.662c-6.572,0-11.914,5.35-11.914,11.914v91.331c0,6.541,5.342,11.877,11.914,11.877h91.324
		c6.556,0,11.898-5.334,11.898-11.877V14.575c0-6.564-5.344-11.914-11.898-11.914L14.627,2.662L14.627,2.662z"/>
	<path d="M18.899,83.455h-8.802v17.332c0,5.313,4.772,9.645,10.638,9.645h77.059c5.865,0,10.646-4.332,10.646-9.645V83.453h-8.809
		v15.495c0,1.942-1.746,3.521-3.895,3.521H22.787c-2.155,0-3.885-1.578-3.885-3.521V83.439L18.899,83.455z"/>
	<polygon points="88.885,95.041 88.885,81.383 29.568,61.57 29.568,75.236 	"/>
	<path d="M43.25,61.586c-2.042-2.299-15.601-17.977-1.92-31.537C52.735,18.735,54.396,9.234,50.557,4.628
		c0,0,29.025,11.929,11.952,39.596c-2.922,4.697-10.221,10.244-6.405,21.678L43.25,61.586z"/>
	<path d="M61.074,65.342c-0.623-2.322-3.407-7.376,5.084-17.43c4.537-5.357,6.244-13.302,6.654-16.292c0,0,15.033,8.62,0.076,29.708
		L61.074,65.342z"/>
	<polygon points="64.27,68.574 88.885,60.356 88.885,74.016 84.711,75.389 	"/>
	<polygon points="54.191,88.045 29.568,96.248 29.568,82.59 33.757,81.225 	"/>
</g>
</svg>
