<?xml version="1.0" encoding="utf-8"?>
<!-- Generator: Adobe Illustrator 16.0.3, SVG Export Plug-In . SVG Version: 6.00 Build 0)  -->
<!DOCTYPE svg PUBLIC "-//W3C//DTD SVG 1.1//EN" "http://www.w3.org/Graphics/SVG/1.1/DTD/svg11.dtd">
<svg version="1.1"
	 id="Layer_1" xmlns:ns1="http://sozi.baierouge.fr" xmlns:sodipodi="http://sodipodi.sourceforge.net/DTD/sodipodi-0.dtd" xmlns:inkscape="http://www.inkscape.org/namespaces/inkscape" xmlns:svg="http://www.w3.org/2000/svg" xmlns:dc="http://purl.org/dc/elements/1.1/" xmlns:cc="http://web.resource.org/cc/" xmlns:rdf="http://www.w3.org/1999/02/22-rdf-syntax-ns#"
	 xmlns="http://www.w3.org/2000/svg" xmlns:xlink="http://www.w3.org/1999/xlink" x="0px" y="0px"
	 viewBox="0 0 120 120" enable-background="new 0 0 120 120" xml:space="preserve">
<g>
	<path fill="#DCE0DF" d="M105.941,120.525c7.914,0,14.342-6.42,14.342-14.327V14.871c0-7.921-6.428-14.334-14.342-14.334H14.615
		c-7.914,0-14.319,6.413-14.319,14.334v91.332c0,7.906,6.405,14.326,14.319,14.326h91.326V120.525L105.941,120.525z"/>
	<path fill="#FFFFFF" d="M14.615,2.965c-6.556,0-11.891,5.342-11.891,11.906v91.332c0,6.556,5.334,11.891,11.891,11.891h91.324
		c6.578,0,11.914-5.335,11.914-11.891V14.875c0-6.564-5.336-11.906-11.914-11.906H14.613L14.615,2.965z"/>
	<path d="M90.952,80.814c2.83,0,5.106-2.299,5.106-5.139c0-2.808-2.276-5.105-5.106-5.105c-2.839,0-5.114,2.299-5.114,5.105
		C85.838,78.516,88.115,80.814,90.952,80.814z M79.137,75.677c0-6.503,5.282-11.799,11.815-11.799
		c6.511,0,11.792,5.296,11.792,11.799c0,6.534-5.281,11.823-11.792,11.823C84.418,87.5,79.137,82.21,79.137,75.677L79.137,75.677z"
		/>
	<path d="M108.516,63.043l-0.022-11.907c0-4.743-4.22-4.242-4.22-4.242H80.414L71.71,32.212h-5.122l8.703,14.683l-6.594,11.154
		l-15.033-0.022c-5.19-10.662-15.746-9.994-15.746-9.994h-28.5v25.345h4.075c0.547-8.62,8.825-15.457,17.574-15.457
		c8.75,0,17.051,6.853,17.575,15.457L73.418,73.4c0.523-8.629,8.824-15.48,17.574-15.48c8.749,0,17.072,6.854,17.574,15.495
		l1.541,0.015c1.707,0,3.08-1.389,3.08-3.088v-7.301h-4.683L108.516,63.043z"/>
	<path d="M31.028,80.814c2.83,0,5.129-2.299,5.129-5.139c0-2.808-2.299-5.105-5.129-5.105c-2.815,0-5.115,2.299-5.115,5.105
		C25.915,78.516,28.213,80.814,31.028,80.814z M19.229,75.677c0-6.503,5.289-11.799,11.799-11.799
		c6.534,0,11.799,5.296,11.799,11.799c0,6.534-5.267,11.823-11.799,11.823C24.518,87.5,19.229,82.21,19.229,75.677z"/>
</g>
</svg>
