<?xml version="1.0" encoding="utf-8"?>
<!-- Generator: Adobe Illustrator 16.0.3, SVG Export Plug-In . SVG Version: 6.00 Build 0)  -->
<!DOCTYPE svg PUBLIC "-//W3C//DTD SVG 1.1//EN" "http://www.w3.org/Graphics/SVG/1.1/DTD/svg11.dtd">
<svg version="1.1"
	 id="Layer_1" xmlns:ns1="http://sozi.baierouge.fr" xmlns:sodipodi="http://sodipodi.sourceforge.net/DTD/sodipodi-0.dtd" xmlns:inkscape="http://www.inkscape.org/namespaces/inkscape" xmlns:svg="http://www.w3.org/2000/svg" xmlns:dc="http://purl.org/dc/elements/1.1/" xmlns:cc="http://web.resource.org/cc/" xmlns:rdf="http://www.w3.org/1999/02/22-rdf-syntax-ns#"
	 xmlns="http://www.w3.org/2000/svg" xmlns:xlink="http://www.w3.org/1999/xlink" x="0px" y="0px" width="120px" height="120px"
	 viewBox="0 0 120 120" enable-background="new 0 0 120 120" xml:space="preserve">
<g>
	<path fill="#DCE0DF" d="M105.664,120c7.922,0,14.326-6.428,14.326-14.35V14.338c0-7.922-6.404-14.349-14.326-14.349H14.349
		C6.427-0.011,0,6.416,0,14.338v91.311c0,7.922,6.427,14.35,14.349,14.35h91.314L105.664,120L105.664,120z"/>
	<path fill="#FFFFFF" d="M14.349,2.421c-6.579,0-11.92,5.35-11.92,11.92v91.31c0,6.572,5.342,11.93,11.92,11.93h91.316
		c6.558,0,11.892-5.355,11.892-11.93V14.338c0-6.571-5.334-11.92-11.892-11.92H14.351L14.349,2.421z"/>
</g>
<path d="M24.727,53.781c-0.422,0.859-0.727,1.82-0.891,2.852c-0.07,0.516-0.117,1.031-0.117,1.547l0.375,23.633l-8.156,17.578
	c-0.281,0.516-0.492,1.125-0.586,1.758c-0.445,2.906,1.547,5.602,4.453,6.047c2.25,0.352,4.406-0.797,5.438-2.695l8.977-19.219
	c0.188-0.445,0.352-0.914,0.422-1.43c0.023-0.234,0.047-0.492,0.047-0.727l-0.07-14.602l13.797,6.023l2.219,14.273
	c0.453,2.086,2.156,3.75,4.391,4.102c2.906,0.422,5.594-1.57,6.047-4.453c0.063-0.492,0.063-0.992,0.016-1.453l-2.719-17.227
	c-0.328-1.664-1.422-3.094-2.969-3.82L43.07,60.477l7.844-13.656l3.891,4.945c0.406,0.438,0.922,0.813,1.5,1.055l14.844,4.328
	c1.969,0.422,3.984-0.609,4.75-2.508c0.875-2.148-0.156-4.594-2.297-5.461c-0.063-0.023-0.148-0.047-0.203-0.07L60.492,45.32
	l-9.688-11.656c-1.453-1.547-3.406-2.641-5.656-3c-3.938-0.586-7.688,1.297-9.641,4.477L24.727,53.781z"/>
<path d="M67.289,87.648l-0.938,7.078l-25.523,6.211l0.234,4.383h62.258c2.203,0,3.984-1.781,3.984-3.984l-0.063-83.922l-8.531-1.984
	l-4.906,22.055l-8.188,3.445l-7.266,20.352l6.906,15.563l-1.953,5.977L67.289,87.648z"/>
<path d="M49.961,29.633c4.375,0,7.938-3.563,7.938-7.938c0-4.383-3.563-7.945-7.938-7.945c-4.391,0-7.953,3.563-7.953,7.945
	C42.008,26.07,45.57,29.633,49.961,29.633"/>
<path d="M34.148,30.883c0.609-1.086,0.25-2.484-0.844-3.102l-3.844-2.242c-1.102-0.609-2.484-0.266-3.117,0.844L14.484,46.836
	c-0.609,1.086-0.258,2.461,0.844,3.102l3.867,2.219c1.078,0.633,2.461,0.266,3.094-0.82L34.148,30.883z"/>
</svg>
