<?xml version="1.0" encoding="utf-8"?>
<!-- Generator: Adobe Illustrator 16.0.3, SVG Export Plug-In . SVG Version: 6.00 Build 0)  -->
<!DOCTYPE svg PUBLIC "-//W3C//DTD SVG 1.1//EN" "http://www.w3.org/Graphics/SVG/1.1/DTD/svg11.dtd">
<svg version="1.1"
	 id="Layer_1" xmlns:ns1="http://sozi.baierouge.fr" xmlns:sodipodi="http://sodipodi.sourceforge.net/DTD/sodipodi-0.dtd" xmlns:inkscape="http://www.inkscape.org/namespaces/inkscape" xmlns:svg="http://www.w3.org/2000/svg" xmlns:dc="http://purl.org/dc/elements/1.1/" xmlns:cc="http://web.resource.org/cc/" xmlns:rdf="http://www.w3.org/1999/02/22-rdf-syntax-ns#"
	 xmlns="http://www.w3.org/2000/svg" xmlns:xlink="http://www.w3.org/1999/xlink" x="0px" y="0px" width="400px" height="400px"
	 viewBox="0 0 400 400" enable-background="new 0 0 400 400" xml:space="preserve">
<g>
	<path fill="#DCE0DF" d="M352.247,401.46c26.406,0,47.753-21.427,47.753-47.833V49.253c0-26.407-21.347-47.83-47.753-47.83H47.863
		c-26.407,0-47.83,21.423-47.83,47.83V353.62c0,26.407,21.423,47.833,47.83,47.833h304.38v0.007H352.247z"/>
	<path fill="#FFFFFF" d="M47.863,9.53C25.933,9.53,8.13,27.363,8.13,49.263v304.364c0,21.906,17.807,39.767,39.733,39.767H352.25
		c21.86,0,39.64-17.851,39.64-39.767V49.253c0-21.903-17.779-39.733-39.64-39.733H47.87L47.863,9.53z"/>
</g>
<polygon points="321.19,285.066 321.19,141.58 283.334,141.58 283.334,285.066 253.047,285.066 253.047,141.58 215.189,141.58 
	215.189,285.066 184.9,285.066 184.9,141.58 147.043,141.58 147.043,285.066 116.753,285.066 116.753,141.58 78.896,141.58 
	78.896,285.066 78.856,285.066 52.403,326.75 347.597,326.703 "/>
<polygon points="59.927,125.777 340.07,125.777 199.997,46.583 "/>
</svg>
