<?xml version="1.0" encoding="utf-8"?>
<!-- Generator: Adobe Illustrator 16.0.3, SVG Export Plug-In . SVG Version: 6.00 Build 0)  -->
<!DOCTYPE svg PUBLIC "-//W3C//DTD SVG 1.1//EN" "http://www.w3.org/Graphics/SVG/1.1/DTD/svg11.dtd">
<svg version="1.1"
	 id="Layer_1" xmlns:ns1="http://sozi.baierouge.fr" xmlns:sodipodi="http://sodipodi.sourceforge.net/DTD/sodipodi-0.dtd" xmlns:inkscape="http://www.inkscape.org/namespaces/inkscape" xmlns:svg="http://www.w3.org/2000/svg" xmlns:dc="http://purl.org/dc/elements/1.1/" xmlns:cc="http://web.resource.org/cc/" xmlns:rdf="http://www.w3.org/1999/02/22-rdf-syntax-ns#"
	 xmlns="http://www.w3.org/2000/svg" xmlns:xlink="http://www.w3.org/1999/xlink" x="0px" y="0px" width="400px" height="400px"
	 viewBox="0 0 400 400" enable-background="new 0 0 400 400" xml:space="preserve">
<g>
	<path fill="#DCE0DF" d="M353.17,399.92c26.406,0,47.78-21.319,47.78-47.727V47.78C400.95,21.374,379.576,0,353.17,0H48.767
		C22.36,0,0.987,21.374,0.987,47.78v304.41c0,26.406,21.376,47.729,47.78,47.729H353.17L353.17,399.92z"/>
	<path fill="#FFFFFF" d="M48.767,8.1C26.887,8.1,9.08,25.907,9.08,47.787v304.41c0,21.881,17.807,39.66,39.687,39.66h304.39
		c21.903,0,39.688-17.779,39.688-39.66V47.79c0-21.88-17.784-39.687-39.688-39.687H48.753L48.767,8.1z"/>
	<path d="M183.583,140.717c0,10.55-9.61,21.803-22.054,21.803v178.167c0,25.273-34.5,25.273-34.5,0v-178.18
		c-12.14,0-22.69-9.36-22.69-23.4V41.094c0-8.523,12.32-8.877,12.32,0.33v72.47h22.21h-0.91V40.867
		c0-8.193,11.557-8.497,11.557,0.303v72.72h22.053V40.867c0-8.066,12.014-8.373,12.014,0.303v99.53V140.717L183.583,140.717z"/>
	<path d="M291.666,63.923v276.64c0,24.74-34.549,24.38-34.549,0V230.856H238.7V63.914c0-38.823,52.97-38.823,52.97,0v0.01H291.666z"
		/>
</g>
</svg>
