<?xml version="1.0" encoding="utf-8"?>
<!-- Generator: Adobe Illustrator 16.0.3, SVG Export Plug-In . SVG Version: 6.00 Build 0)  -->
<!DOCTYPE svg PUBLIC "-//W3C//DTD SVG 1.1//EN" "http://www.w3.org/Graphics/SVG/1.1/DTD/svg11.dtd">
<svg version="1.1"
	 id="Layer_1" xmlns:ns1="http://sozi.baierouge.fr" xmlns:sodipodi="http://sodipodi.sourceforge.net/DTD/sodipodi-0.dtd" xmlns:inkscape="http://www.inkscape.org/namespaces/inkscape" xmlns:svg="http://www.w3.org/2000/svg" xmlns:dc="http://purl.org/dc/elements/1.1/" xmlns:cc="http://web.resource.org/cc/" xmlns:rdf="http://www.w3.org/1999/02/22-rdf-syntax-ns#"
	 xmlns="http://www.w3.org/2000/svg" xmlns:xlink="http://www.w3.org/1999/xlink" x="0px" y="0px"
	 viewBox="0 0 120 120" enable-background="new 0 0 120 120" xml:space="preserve">
<g>
	<path fill="#DCE0DF" d="M105.674,120.438c7.922,0,14.326-6.428,14.326-14.35V14.776c0-7.922-6.404-14.349-14.326-14.349H14.359
		C6.437,0.427,0.01,6.854,0.01,14.776v91.31c0,7.922,6.427,14.35,14.349,14.35h91.314V120.438L105.674,120.438z"/>
	<path fill="#FFFFFF" d="M14.359,2.859c-6.579,0-11.92,5.35-11.92,11.92v91.309c0,6.572,5.342,11.93,11.92,11.93h91.316
		c6.558,0,11.892-5.355,11.892-11.93V14.776c0-6.571-5.334-11.92-11.892-11.92H14.361L14.359,2.859z"/>
</g>
<polygon points="12.543,20.38 27.599,35.769 33.381,30.579 28.145,20.426 "/>
<path d="M80.412,63.488c2.846,0.781,5.904-0.827,6.716-3.718c0.782-2.846-0.88-5.835-3.748-6.64l-2.231-0.623L78.258,62.85
	L80.412,63.488L80.412,63.488z"/>
<path d="M78.659,51.848l-18.022-5.077c-1.184-0.311-2.375,0.402-2.701,1.586l-1.692,6.025c-0.334,1.184,0.311,2.398,1.525,2.755
	l18.022,5.023L78.659,51.848L78.659,51.848z"/>
<path d="M81.506,68.967c-1.374-1.305-3.082-2.345-5.078-2.892l-21.846-6.116L41.159,36.147c-0.706-1.229-1.843-2.208-3.316-2.611
	c-2.944-0.828-6.002,0.903-6.807,3.847c-0.402,1.397-0.213,2.823,0.425,4.029l16.792,29.449c0,0,1.374,2.207,4.834,3.347
	l30.526,8.56l14.16,14.371c0.472,0.494,1.086,0.873,1.822,1.086c2.131,0.592,4.36-0.684,4.983-2.793
	c0.401-1.494-0.076-3.063-1.14-4.037L81.51,68.967H81.506L81.506,68.967z"/>
<path d="M97.802,74.916l3.173,4.15l6.449-7.043l-5.447-3.034c0.518-3.817-1.852-7.513-5.646-8.583
	c-4.174-1.161-8.515,1.259-9.675,5.433c-1.184,4.196,1.26,8.515,5.434,9.677c1.979,0.567,3.998,0.258,5.71-0.601L97.802,74.916
	L97.802,74.916z"/>
</svg>
