<?xml version="1.0" encoding="utf-8"?>
<!-- Generator: Adobe Illustrator 16.0.3, SVG Export Plug-In . SVG Version: 6.00 Build 0)  -->
<svg version="1.2" baseProfile="tiny"
	 id="Layer_1" xmlns:rdf="http://www.w3.org/1999/02/22-rdf-syntax-ns#" xmlns:cc="http://web.resource.org/cc/" xmlns:dc="http://purl.org/dc/elements/1.1/" xmlns:svg="http://www.w3.org/2000/svg" xmlns:inkscape="http://www.inkscape.org/namespaces/inkscape" xmlns:ns1="http://sozi.baierouge.fr" xmlns:sodipodi="http://sodipodi.sourceforge.net/DTD/sodipodi-0.dtd"
	 xmlns="http://www.w3.org/2000/svg" xmlns:xlink="http://www.w3.org/1999/xlink" x="0px" y="0px" width="300px" height="300px"
	 viewBox="0 0 300 300" xml:space="preserve">
<g>
	<path fill="#DCE0DF" d="M264.686,301.047c19.805,0,35.814-16.069,35.814-35.875V36.893c0-19.805-16.01-35.873-35.814-35.873H36.397
		c-19.805,0-35.873,16.067-35.873,35.873v228.275c0,19.805,16.067,35.875,35.873,35.875h228.285L264.686,301.047L264.686,301.047z"
		/>
	<path fill="#FFFFFF" d="M36.397,7.1c-16.447,0-29.8,13.375-29.8,29.8v228.272c0,16.431,13.355,29.826,29.8,29.826h228.29
		c16.395,0,29.73-13.389,29.73-29.826V36.893c0-16.428-13.336-29.8-29.73-29.8H36.402L36.397,7.1z"/>
</g>
<path fill="none" stroke="#000000" stroke-width="2" stroke-miterlimit="10" d="M223.58,41.923
	c0.102,27.737,36.573,8.672,39.537,21.897"/>
<path fill="none" stroke="#000000" stroke-width="2" stroke-miterlimit="10" d="M148.154,45.573
	c23.299,33.576,79.303,19.292,97.4,47.479c7.179,11.179,4.206,26.472,5.223,38.836c1.347,16.396,19.3,32.469,14.773,32.298"/>
<path fill="none" stroke="#000000" stroke-width="2" stroke-miterlimit="10" d="M112.875,46.181
	c0.454,62.716,66.082,32.315,100.3,52.908c18.992,11.429,10.519,34.843,18.2,51.732c8.19,18.008,25.628,16.22,40.259,24.314"/>
<path fill="none" stroke="#000000" stroke-width="2" stroke-miterlimit="10" d="M37.449,59.563
	c-3.365,32.199,36.433,97.261,69.556,101.144c14.057,1.647,56.017-14.126,66.24,1.794c13.143,20.469-0.237,45.25,27.222,57.646"/>
<path fill="none" stroke="#000000" stroke-width="2" stroke-miterlimit="10" d="M36.232,197.033
	c-1.193,23.841,48.482,8.266,51.704,27.98"/>
<path fill="none" stroke="#000000" stroke-width="5" stroke-miterlimit="10" d="M180.394,41.315
	c6.549,23.967,39.971,22.87,59.034,26.125c19.864,3.391,25.44,36.94,36.465,50.518"/>
<path fill="none" stroke="#000000" stroke-width="5" stroke-miterlimit="10" d="M26.5,138.639
	c15.896,35.799,65.623,36.089,97.963,38.958c47.433,4.214,14.039,67.676,51.064,74.788"/>
<path fill="none" stroke="#000000" stroke-width="2" stroke-miterlimit="10" d="M31.975,175.136
	c-0.558,16.691,48.374,22.64,58.6,24.72c31.052,6.313,33.091,34.292,44.807,59.829"/>
<path fill="none" stroke="#000000" stroke-width="2" stroke-miterlimit="10" d="M76.378,58.955
	c0,76.866,66.26,50.544,110.099,76.188c19.013,11.123,22.636,37.547,33.852,54.701c14.218,21.746,46.146,18.532,56.171,34.562"/>
<g>
	<path d="M121.576,185.081v0.741l-3.614,7.561H116.8l3.602-7.344v-0.025h-4.062v-0.933H121.576z"/>
	<path d="M128.257,189.143c0,2.822-1.047,4.381-2.887,4.381c-1.622,0-2.72-1.52-2.746-4.266c0-2.784,1.2-4.317,2.886-4.317
		C127.26,184.94,128.257,186.499,128.257,189.143z M123.748,189.271c0,2.158,0.664,3.385,1.686,3.385
		c1.149,0,1.699-1.342,1.699-3.462c0-2.043-0.524-3.384-1.686-3.384C124.463,185.81,123.748,187.01,123.748,189.271z"/>
	<path d="M134.81,189.143c0,2.822-1.047,4.381-2.887,4.381c-1.622,0-2.72-1.52-2.746-4.266c0-2.784,1.2-4.317,2.886-4.317
		C133.813,184.94,134.81,186.499,134.81,189.143z M130.301,189.271c0,2.158,0.664,3.385,1.686,3.385
		c1.149,0,1.699-1.342,1.699-3.462c0-2.043-0.524-3.384-1.686-3.384C131.016,185.81,130.301,187.01,130.301,189.271z"/>
</g>
<g>
	<path d="M157.987,50.765c0-1.047,0.626-1.788,1.647-2.222l-0.013-0.038c-0.92-0.435-1.315-1.149-1.315-1.865
		c0-1.315,1.111-2.209,2.567-2.209c1.608,0,2.413,1.009,2.413,2.043c0,0.702-0.345,1.456-1.366,1.941v0.039
		c1.034,0.409,1.673,1.137,1.673,2.146c0,1.443-1.238,2.414-2.822,2.414C159.034,53.013,157.987,51.978,157.987,50.765z
		 M162.457,50.714c0-1.009-0.702-1.495-1.826-1.814c-0.971,0.281-1.494,0.92-1.494,1.711c-0.038,0.843,0.601,1.584,1.66,1.584
		C161.806,52.195,162.457,51.569,162.457,50.714z M159.366,46.563c0,0.83,0.626,1.277,1.584,1.533
		c0.715-0.243,1.265-0.754,1.265-1.507c0-0.664-0.396-1.354-1.405-1.354C159.877,45.235,159.366,45.848,159.366,46.563z"/>
	<path d="M170.159,48.632c0,2.823-1.047,4.381-2.886,4.381c-1.622,0-2.721-1.52-2.746-4.266c0-2.785,1.2-4.317,2.886-4.317
		C169.163,44.43,170.159,45.988,170.159,48.632z M165.651,48.76c0,2.158,0.664,3.384,1.686,3.384c1.149,0,1.698-1.341,1.698-3.461
		c0-2.043-0.523-3.385-1.686-3.385C166.366,45.298,165.651,46.499,165.651,48.76z"/>
	<path d="M176.712,48.632c0,2.823-1.047,4.381-2.886,4.381c-1.622,0-2.721-1.52-2.746-4.266c0-2.785,1.2-4.317,2.886-4.317
		C175.716,44.43,176.712,45.988,176.712,48.632z M172.204,48.76c0,2.158,0.664,3.384,1.686,3.384c1.149,0,1.698-1.341,1.698-3.461
		c0-2.043-0.523-3.385-1.686-3.385C172.919,45.298,172.204,46.499,172.204,48.76z"/>
</g>
</svg>
