<?xml version="1.0" encoding="utf-8"?>
<!-- Generator: Adobe Illustrator 16.0.3, SVG Export Plug-In . SVG Version: 6.00 Build 0)  -->
<!DOCTYPE svg PUBLIC "-//W3C//DTD SVG 1.1//EN" "http://www.w3.org/Graphics/SVG/1.1/DTD/svg11.dtd">
<svg version="1.1"
	 id="Layer_1" xmlns:ns1="http://sozi.baierouge.fr" xmlns:sodipodi="http://sodipodi.sourceforge.net/DTD/sodipodi-0.dtd" xmlns:inkscape="http://www.inkscape.org/namespaces/inkscape" xmlns:svg="http://www.w3.org/2000/svg" xmlns:dc="http://purl.org/dc/elements/1.1/" xmlns:cc="http://web.resource.org/cc/" xmlns:rdf="http://www.w3.org/1999/02/22-rdf-syntax-ns#"
	 xmlns="http://www.w3.org/2000/svg" xmlns:xlink="http://www.w3.org/1999/xlink" x="0px" y="0px"
	 viewBox="0 0 120 120" enable-background="new 0 0 120 120" xml:space="preserve">
<g>
	<path fill="#DCE0DF" d="M105.674,120.438c7.922,0,14.326-6.428,14.326-14.35V14.776c0-7.922-6.404-14.349-14.326-14.349H14.359
		C6.437,0.427,0.01,6.854,0.01,14.776v91.31c0,7.922,6.427,14.35,14.349,14.35h91.314V120.438L105.674,120.438z"/>
	<path fill="#FFFFFF" d="M14.359,2.859c-6.579,0-11.92,5.35-11.92,11.92v91.309c0,6.572,5.342,11.93,11.92,11.93h91.316
		c6.558,0,11.892-5.356,11.892-11.93V14.776c0-6.571-5.334-11.92-11.892-11.92H14.361L14.359,2.859z"/>
</g>
<g id="g1911" transform="matrix(2.20098,0,0,2.20098,-303.0895,-264.0106)">
	<path id="path16" d="M185.676,136.165c0,0.308,0,0.553,0.044,0.803c-0.044,0.455-0.146,1.014-0.248,1.587
		c-0.147,0.528-0.356,1.032-0.606,1.517c-0.205,0.352-0.451,0.702-0.701,0.981c-0.396,0.426-0.811,0.82-1.281,1.172
		c-0.411,0.352-0.876,0.664-1.332,0.943c-0.485,0.323-1.06,0.602-1.619,0.822c-0.426,0.206-0.877,0.381-1.377,0.484
		c-0.557,0.176-1.162,0.277-1.765,0.351c-0.426,0.044-0.851,0.074-1.261,0.045c-0.146,0-0.219-0.076-0.248-0.179
		c0-0.117-0.004-0.175,0.07-0.248c0.103-0.147,0.207-0.278,0.28-0.395l2.319-2.772l-8.557,0.701
		c-0.675,0.073-1.339,0.077-2.013-0.07c-0.558-0.073-1.083-0.209-1.612-0.459c-0.602-0.279-1.306-0.629-1.982-0.981l-2.632,7.073
		c-0.807,0.22-1.658,0.457-2.466,0.707c0.176-0.073-0.702,0.25-1.612,0.574c-0.954,0.352-1.599,0.628-2.23,0.936
		c-1.233,0.603-2.426,1.281-3.6,2.058c-0.587,0.382-1.232,0.836-1.892,1.307c-0.396,0.308-0.819,0.66-1.275,1.057l-1.312,1.261
		c-0.661,0.632-1.292,1.378-1.791,2.141c0.25,0.073,0.504,0.15,0.739,0.223c0.073,0.029,0.175,0.073,0.293,0.102
		c0.587,0.176,1.012,0.28,1.409,0.427c0.279,0.103,0.555,0.203,0.835,0.306c0.646,0.294,1.278,0.529,1.879,0.822
		c0.235,0.103,0.483,0.21,0.733,0.357c0.103,0.059,0.254,0.13,0.357,0.205c0,0.043,0.025,0.04,0.025,0.07
		c0,0,0.045,0.032,0.045,0.075c0.03,0.029,0.032,0.07,0.032,0.07c0,0.103-0.075,0.181-0.134,0.211
		c-0.426,0.102-0.881,0.174-1.306,0.203c-0.675,0.118-1.306,0.248-1.937,0.395c-0.646,0.133-1.278,0.355-1.88,0.561
		c-0.411,0.102-0.883,0.273-1.294,0.42c-0.396,0.147-0.776,0.28-1.128,0.382c-0.103,0.043-0.179,0.073-0.179,0.146
		c0,0.073,0.073,0.102,0.102,0.102c0.029,0,0.032,0,0.032,0l9.456,0.675c0.103,0,0.203,0.032,0.306,0.032
		c0.176,0,0.353-0.032,0.529-0.032c0.602-0.074,1.173-0.217,1.701-0.453c0.705-0.323,1.309-0.745,1.867-1.23
		c0.499-0.499,0.95-1.003,1.332-1.561c0.352-0.528,0.604-1.101,0.809-1.689c0.22-0.529,0.353-1.129,0.427-1.701
		c0.073-0.455,0.102-0.938,0.102-1.408c2.349-0.205,4.643-0.486,6.933-0.809c3.464-0.603,6.88-1.789,10.08-3.492
		c0.881-0.454,1.767-0.909,2.619-1.408c0.558-0.308,1.189-0.705,1.791-1.159c0.528-0.426,1.024-0.84,1.478-1.236
		c0.499-0.455,0.983-0.982,1.453-1.555c0.837-1.013,1.441-2.217,1.823-3.524c0.147-0.587,0.248-1.191,0.351-1.822
		c0-0.22,0.044-0.426,0.044-0.675c0-0.279-0.04-0.601-0.07-0.88c-0.103-0.572-0.253-1.103-0.459-1.631
		C186.026,136.794,185.852,136.474,185.676,136.165z M150.629,154.013c0.661,0,1.204,0.561,1.204,1.237
		c0,0.689-0.544,1.236-1.204,1.236c-0.66,0-1.204-0.547-1.204-1.236C149.425,154.575,149.969,154.013,150.629,154.013z"/>
	<path id="path20" d="M176.941,159.067c-3.538,2.084-7.443,3.464-11.54,4.066l-2.848,0.234l-2.907,0.177l-3.068-0.029
		c0.807-0.5,1.542-1.087,2.188-1.762l0.631-0.734c0.529-0.676,0.954-1.381,1.233-2.159c0.132-0.499,0.25-0.954,0.352-1.438
		l0.176-1.131l3.054-0.323l2.393-0.308l1.615-0.25c0.925-0.176,1.835-0.425,2.76-0.704l2.951-1.058l2.29-1.028l2.335-1.16
		l2.187-1.203l1.718-1.161l2.187-2.041l1.629-2.231l-0.102,0.852c-0.426,2.746-1.454,5.388-2.967,7.752
		c-1.028,1.63-2.334,2.995-3.846,4.052l-0.808,0.572L176.941,159.067z"/>
	<path id="path22" d="M182.696,132.347c-0.676-0.484-1.38-0.91-2.159-1.263l-12.655-5.256l-0.205-0.103
		c-0.044,0-0.073-0.029-0.118-0.029c-0.029,0-0.102,0.029-0.132,0.073c-0.073,0.059-0.073,0.132-0.073,0.205
		c0,0.074,0,0.147,0.073,0.176l3.524,4.58l0.778,1.057c0.176,0.353,0.249,0.705,0.279,1.057c0,0.044,0,0.073,0,0.103
		c0,0.323-0.073,0.675-0.176,0.998l-0.382,0.808l-0.352,0.528c0.763-0.147,1.468-0.279,2.216-0.396
		c0.955-0.176,1.968-0.308,3.025-0.352c0.881-0.03,1.703-0.059,2.54-0.059c0.631,0.029,1.336,0.059,2.041,0.132
		c0.469,0.073,0.88,0.147,1.306,0.25c0.323,0.103,0.646,0.279,0.925,0.455c0.455,0.323,0.808,0.749,1.013,1.233
		c0.176,0.396,0.294,0.852,0.323,1.277c0.146-0.396,0.205-0.778,0.205-1.204c0-0.073,0-0.103,0-0.176
		c-0.03-0.528-0.103-1.028-0.235-1.556c-0.221-0.558-0.5-1.086-0.823-1.542c-0.28-0.352-0.587-0.675-0.91-0.954
		C182.725,132.347,182.696,132.347,182.696,132.347z"/>
	<path id="path24" d="M173.417,162.091c0.661-0.279,1.292-0.587,1.894-0.939c0.073,0.029,0.176,0.029,0.25,0.029
		c0.426,0,0.852-0.029,1.262-0.102c1.233-0.103,2.466-0.28,3.67-0.5c-1.306,0.881-2.54,1.835-3.67,2.864
		c-0.984,0.837-1.864,1.761-2.745,2.657c-0.249,0-0.455-0.073-0.631-0.132c-0.778-0.352-1.482-0.735-2.187-1.16
		c-0.676-0.382-1.263-0.837-1.762-1.366c0.382-0.146,0.778-0.28,1.16-0.396C171.611,162.81,172.522,162.487,173.417,162.091z"/>
</g>
</svg>
