<?xml version="1.0" encoding="utf-8"?>
<!-- Generator: Adobe Illustrator 16.0.3, SVG Export Plug-In . SVG Version: 6.00 Build 0)  -->
<!DOCTYPE svg PUBLIC "-//W3C//DTD SVG 1.1//EN" "http://www.w3.org/Graphics/SVG/1.1/DTD/svg11.dtd">
<svg version="1.1"
	 id="Layer_1" xmlns:ns1="http://sozi.baierouge.fr" xmlns:sodipodi="http://sodipodi.sourceforge.net/DTD/sodipodi-0.dtd" xmlns:inkscape="http://www.inkscape.org/namespaces/inkscape" xmlns:svg="http://www.w3.org/2000/svg" xmlns:dc="http://purl.org/dc/elements/1.1/" xmlns:cc="http://web.resource.org/cc/" xmlns:rdf="http://www.w3.org/1999/02/22-rdf-syntax-ns#"
	 xmlns="http://www.w3.org/2000/svg" xmlns:xlink="http://www.w3.org/1999/xlink" x="0px" y="0px"
	 viewBox="0 0 120 120" enable-background="new 0 0 120 120" xml:space="preserve">
<g>
	<path fill="#DCE0DF" d="M105.494,119.941c7.893,0,14.318-6.426,14.318-14.342V14.285c0-7.922-6.426-14.349-14.318-14.349H14.161
		c-7.914,0-14.342,6.427-14.342,14.349v91.324c0,7.914,6.427,14.342,14.342,14.342h91.333V119.941z"/>
	<path fill="#FFFFFF" d="M14.161,2.353c-6.572,0-11.914,5.364-11.914,11.928v91.324c0,6.563,5.342,11.896,11.914,11.896h91.331
		c6.557,0,11.898-5.334,11.898-11.896V14.279c0-6.564-5.343-11.928-11.898-11.928H14.159L14.161,2.353z"/>
	<path d="M100.346,48.192c0,0-0.992,19.654-18.232,18.022C82.111,66.215,80.191,49.755,100.346,48.192z"/>
	<path d="M86.62,73.826c2.253-2.23,5.356-3.582,8.771-3.582c6.898,0,12.521,5.6,12.521,12.521V83.5h-0.021
		c-0.213,2.701-1.093,6.07-3.135,10.245c0,0-3.506,6.708-6.328,9.796l-0.26,0.234c-1.357,1.375-3.277,2.231-5.363,2.231
		c-2.535,0-4.811-1.235-6.162-3.157h-0.045c-1.383,1.922-3.627,3.157-6.17,3.157c-2.109,0-4.008-0.856-5.381-2.231l-0.258-0.232
		c-2.792-3.088-6.305-9.797-6.305-9.797c-2.043-4.173-2.914-7.564-3.104-10.244h-0.053c-0.022-0.258-0.022-0.477-0.022-0.734
		c0-6.922,5.622-12.521,12.543-12.521c3.413,0.004,6.504,1.354,8.779,3.586"/>
	<rect x="30.254" y="14" width="15.23" height="5.661"/>
	<path d="M19.396,54.854c0,1.851,2.565,3.885,4.629,1.517l5.615-7.331c0.265-0.326,0.592-1.017,0.592-1.775V29.692
		c0-4.902-4.576-0.85-6.306,0.903l-3.885,4.932c-0.645,0.828-0.645,1.138-0.645,1.586V54.854z M15.83,36.855
		c0-1.063,0.318-2.042,0.865-2.868l6.837-8.605c1.973-2.42,4.037-2.14,4.037-2.14h17.605C56.093,24.312,56.109,34.7,56.109,34.7
		v67.391c0,1.775-1.449,3.226-3.225,3.226H19.1c-1.791,0-3.232-1.449-3.232-3.226L15.83,36.857V36.855z"/>
</g>
</svg>
