<?xml version="1.0" encoding="utf-8"?>
<!-- Generator: Adobe Illustrator 16.0.3, SVG Export Plug-In . SVG Version: 6.00 Build 0)  -->
<!DOCTYPE svg PUBLIC "-//W3C//DTD SVG 1.1//EN" "http://www.w3.org/Graphics/SVG/1.1/DTD/svg11.dtd">
<svg version="1.1"
	 id="Layer_1" xmlns:ns1="http://sozi.baierouge.fr" xmlns:sodipodi="http://sodipodi.sourceforge.net/DTD/sodipodi-0.dtd" xmlns:inkscape="http://www.inkscape.org/namespaces/inkscape" xmlns:svg="http://www.w3.org/2000/svg" xmlns:dc="http://purl.org/dc/elements/1.1/" xmlns:cc="http://web.resource.org/cc/" xmlns:rdf="http://www.w3.org/1999/02/22-rdf-syntax-ns#"
	 xmlns="http://www.w3.org/2000/svg" xmlns:xlink="http://www.w3.org/1999/xlink" x="0px" y="0px"
	 viewBox="0 0 120 120" enable-background="new 0 0 120 120" xml:space="preserve">
<g>
	<path fill="#DCE0DF" d="M105.674,120.438c7.922,0,14.326-6.428,14.326-14.35V14.776c0-7.922-6.404-14.349-14.326-14.349H14.359
		C6.437,0.427,0.01,6.854,0.01,14.776v91.31c0,7.922,6.427,14.35,14.349,14.35h91.314L105.674,120.438L105.674,120.438z"/>
	<path fill="#FFFFFF" d="M14.359,2.859c-6.579,0-11.92,5.35-11.92,11.92v91.309c0,6.572,5.342,11.93,11.92,11.93h91.316
		c6.558,0,11.892-5.355,11.892-11.93V14.776c0-6.571-5.334-11.92-11.892-11.92H14.361L14.359,2.859z"/>
</g>
<path d="M36.839,12.641c3.84,0.708,8.22,1.944,12.06,3.384c7.74,2.928,15.551,7.513,20.675,12.132
	c0.445,0.409,6.732,6.457,13.98,13.44l13.188,12.72l-0.707,0.732c-0.686,0.696-7.704,8.1-8.028,8.46
	c-0.132,0.144-1.393-1.056-7.823-7.404c-4.225-4.176-7.717-7.584-7.776-7.584s-1.513,1.404-3.239,3.132l-3.132,3.121l-0.672-0.324
	l-0.673-0.336l-6.096,6.024c-3.348,3.301-7.152,7.068-8.436,8.364c-1.285,1.296-9.457,9.432-18.156,18.096L16.187,102.33
	l-3.744-3.757L8.699,94.83l23.988-23.905l23.977-23.903l-0.432-0.744c-0.24-0.408-0.432-0.768-0.432-0.816s1.849-1.98,4.116-4.308
	c2.256-2.315,4.309-4.512,4.548-4.872c0.731-1.068,0.828-2.268,0.265-3.384c-0.744-1.464-6.384-6.66-10.667-9.828
	c-5.34-3.948-12.012-7.308-19.08-9.588c-0.456-0.144-0.888-0.312-0.936-0.36c-0.18-0.168,0.264-0.84,0.552-0.84
	C34.739,12.281,35.747,12.449,36.839,12.641z"/>
<path d="M85.727,88.709c2.508,1.332,4.584,2.436,4.608,2.46c0.024,0.036,0.504,1.776,1.056,3.876l1.021,3.814l-1.224,3.276
	c-1.008,2.7-1.285,3.324-1.537,3.48c-1.522,0.924-2.194,1.428-2.76,2.1l-0.647,0.769l-1.933-0.564
	c-1.067-0.311-2.291-0.672-2.724-0.803l-0.78-0.24l-1.08,0.624c-0.588,0.336-1.295,0.743-1.56,0.888l-0.504,0.288l-0.433-0.336
	c-0.359-0.265-0.517-0.312-0.863-0.265c-0.24,0.049-0.528,0.156-0.637,0.253c-0.324,0.288-0.793-0.013-1.355-0.888
	c-0.42-0.637-0.648-0.84-1.225-1.142c-0.973-0.491-2.137-0.491-3.119-0.012l-0.672,0.323l-1.801-1.465
	c-0.996-0.804-1.789-1.522-1.765-1.596c0.024-0.072,0.336-1.439,0.696-3.048l0.636-2.903h0.672h0.685l0.563-0.828l0.563-0.815
	l0.563,0.048c0.313,0.036,0.853,0.107,1.2,0.155c0.432,0.084,0.72,0.071,0.924-0.023c0.313-0.145,0.324-0.155,0.36-0.756
	c0.012-0.204,0.118-0.793,0.239-1.319c0.145-0.66,0.215-1.549,0.239-2.869l0.024-1.918l3.035-2.004l3.035-2.004l0.974,0.516
	C80.747,86.068,83.23,87.389,85.727,88.709z"/>
<path d="M103.979,97.301c1.656,0.432,3.108,0.84,3.24,0.889c0.156,0.06,0.77,1.031,1.561,2.425c0.721,1.282,1.381,2.436,1.464,2.579
	c0.146,0.228,0.049,0.313-1.739,1.523c-2.615,1.752-2.893,2.148-2.904,4.188c0,1.032-0.023,1.176-0.203,1.188
	c-0.121,0-1.235,0.097-2.496,0.218l-2.279,0.215l-2.28-1.354l-2.28-1.368l-0.131-1.885l-0.145-1.896l1.044-0.996
	c0.563-0.551,1.332-1.224,1.692-1.5c0.862-0.672,1.14-1.164,1.127-2.004c0-0.371-0.097-0.828-0.217-1.056
	c-0.228-0.444-0.228-0.444,0.564-1.381c0.396-0.442,0.672-0.672,0.792-0.635C100.895,96.484,102.335,96.869,103.979,97.301z"/>
<path d="M58.859,101.021c1.008,0.275,1.428,0.433,1.404,0.552c-0.144,0.601,0.516,1.692,1.116,1.836
	c0.24,0.062,0.301,0.155,0.301,0.433s-0.084,0.396-0.373,0.54c-0.552,0.288-1.271,0.984-1.572,1.522
	c-0.168,0.302-0.336,0.457-0.457,0.421c-0.095-0.023-1.031-0.421-2.064-0.875l-1.895-0.828v-0.638c0-1.438,1.188-3.635,1.848-3.432
	C57.311,100.602,58.067,100.805,58.859,101.021z"/>
</svg>
