<?xml version="1.0" encoding="utf-8"?>
<!-- Generator: Adobe Illustrator 16.0.3, SVG Export Plug-In . SVG Version: 6.00 Build 0)  -->
<!DOCTYPE svg PUBLIC "-//W3C//DTD SVG 1.1//EN" "http://www.w3.org/Graphics/SVG/1.1/DTD/svg11.dtd">
<svg version="1.1"
	 id="Layer_1" xmlns:ns1="http://sozi.baierouge.fr" xmlns:sodipodi="http://sodipodi.sourceforge.net/DTD/sodipodi-0.dtd" xmlns:inkscape="http://www.inkscape.org/namespaces/inkscape" xmlns:svg="http://www.w3.org/2000/svg" xmlns:dc="http://purl.org/dc/elements/1.1/" xmlns:cc="http://web.resource.org/cc/" xmlns:rdf="http://www.w3.org/1999/02/22-rdf-syntax-ns#"
	 xmlns="http://www.w3.org/2000/svg" xmlns:xlink="http://www.w3.org/1999/xlink" x="0px" y="0px"
	 viewBox="0 0 120 120" enable-background="new 0 0 120 120" xml:space="preserve">
<g>
	<path fill="#DCE0DF" d="M105.504,119.729c7.893,0,14.319-6.396,14.319-14.317V14.066c0-7.914-6.427-14.319-14.319-14.319H14.185
		c-7.922,0-14.349,6.405-14.349,14.319v91.347c0,7.922,6.427,14.319,14.349,14.319h91.319V119.729z"/>
	<path fill="#FFFFFF" d="M14.185,2.17c-6.572,0-11.914,5.334-11.914,11.898v91.347c0,6.54,5.342,11.883,11.914,11.883h91.317
		c6.563,0,11.898-5.343,11.898-11.883V14.071c0-6.564-5.336-11.898-11.898-11.898h-91.32L14.185,2.17z"/>
	<path d="M62.178,24.745c4.432,0,8.014-3.604,8.014-8.043c0-4.431-3.582-8.013-8.014-8.013c-4.431,0-8.036,3.582-8.036,8.013
		C54.142,21.14,57.747,24.745,62.178,24.745z"/>
	<path d="M48.617,26.072c0.311-1.236-0.47-2.466-1.684-2.777l-6.686-1.608c-1.252-0.289-2.488,0.448-2.77,1.677l-5.622,23.265
		c-0.311,1.237,0.448,2.466,1.684,2.777l6.708,1.608c1.214,0.311,2.466-0.447,2.755-1.684L48.617,26.072z"/>
	<path d="M79.486,108.813c0,0.045-0.021,0.09-0.021,0.113c0,1.023,0.834,1.852,1.852,1.852c0.926,0,1.707-0.713,1.82-1.608
		l13.477-73.06v-0.144c0-0.994-0.812-1.829-1.827-1.829c-0.927,0-1.642,0.713-1.83,1.616l-13.47,73.057V108.813L79.486,108.813z"/>
	<path d="M34.678,104.014c-0.076,0.379-0.099,0.758-0.099,1.139c0,3.127,2.52,5.639,5.646,5.639c2.565,0,4.719-1.708,5.41-4.027
		l9.698-40.15l9.242,39.914c0.592,2.467,2.823,4.266,5.448,4.266c3.135,0,5.646-2.512,5.646-5.639c0-0.432-0.046-0.834-0.121-1.236
		l-12.68-53.026l1.063-4.674l0.834,3.672c0.758,2.398,2.937,2.633,2.937,2.633l13.065,3.324c0.26,0.045,0.523,0.068,0.782,0.068
		c2.132,0,3.862-1.708,3.862-3.839c0-1.829-1.252-3.37-2.959-3.771l-11.313-2.847l-3.104-12.619
		c-1.472-7.042-8.202-6.875-8.202-6.875c-6.541-0.167-8.18,6.715-8.18,6.715l-16.976,71.324V104.014L34.678,104.014z"/>
</g>
</svg>
