<?xml version="1.0" encoding="utf-8"?>
<!-- Generator: Adobe Illustrator 16.0.3, SVG Export Plug-In . SVG Version: 6.00 Build 0)  -->
<!DOCTYPE svg PUBLIC "-//W3C//DTD SVG 1.1//EN" "http://www.w3.org/Graphics/SVG/1.1/DTD/svg11.dtd">
<svg version="1.1"
	 id="Layer_1" xmlns:ns1="http://sozi.baierouge.fr" xmlns:sodipodi="http://sodipodi.sourceforge.net/DTD/sodipodi-0.dtd" xmlns:inkscape="http://www.inkscape.org/namespaces/inkscape" xmlns:svg="http://www.w3.org/2000/svg" xmlns:dc="http://purl.org/dc/elements/1.1/" xmlns:cc="http://web.resource.org/cc/" xmlns:rdf="http://www.w3.org/1999/02/22-rdf-syntax-ns#"
	 xmlns="http://www.w3.org/2000/svg" xmlns:xlink="http://www.w3.org/1999/xlink" x="0px" y="0px"
	 viewBox="0 0 120 120" enable-background="new 0 0 120 120" xml:space="preserve">
<g>
	<path fill="#DCE0DF" d="M105.941,119.611c7.922,0,14.342-6.396,14.342-14.318V13.968c0-7.922-6.42-14.334-14.342-14.334H14.615
		c-7.914,0-14.319,6.412-14.319,14.334v91.323c0,7.922,6.405,14.318,14.319,14.318h91.326V119.611L105.941,119.611z"/>
	<path fill="#FFFFFF" d="M14.615,2.064c-6.556,0-11.891,5.342-11.891,11.906v91.323c0,6.572,5.334,11.906,11.891,11.906h91.324
		c6.578,0,11.914-5.334,11.914-11.906V13.968c0-6.564-5.336-11.906-11.914-11.906H14.613L14.615,2.064z"/>
	<path d="M50.803,23.371c3.817,0,6.905-3.081,6.905-6.875c0-3.825-3.088-6.905-6.905-6.905c-3.794,0-6.875,3.081-6.875,6.905
		C43.928,20.29,47.009,23.371,50.803,23.371z"/>
	<path d="M101.998,43.214l-7.301-1.396l-4.25,8.445c0.691,0.159,1.404,0.235,2.133,0.235
		C97.113,50.499,100.91,47.418,101.998,43.214z M12.293,57.473c0-5.601,4.53-10.153,10.13-10.153h21.361V31.977
		c0-3.817,3.081-6.898,6.905-6.898c3.817,0,6.898,3.081,6.898,6.898v2.375l10.177,2.603c1.774,0.41,2.913,2.185,2.512,3.961
		c-0.401,1.806-2.187,2.921-3.983,2.52l-8.704-2.042v5.927h10.245l28.028-29.002l-0.834,7.543l13.804,9.174
		c2.276,1.306,3.104,4.25,1.808,6.526c-1.025,1.821-3.066,2.701-4.986,2.345l-1.114-0.205c-1.328,5.372-6.185,9.333-11.951,9.333
		c-1.14,0-2.246-0.167-3.294-0.448l-10.464,21.36v29.306c0,2.513-2.063,4.554-4.575,4.554s-4.554-2.041-4.554-4.554V73.275H46.623
		l-4.128,7.063l8.636,20.587c1.26,2.208,0.47,4.979-1.708,6.216c-2.208,1.252-4.978,0.471-6.237-1.707L33.109,81.673v-7.565
		l-4.508,7.097v22.052c0,2.514-2.042,4.555-4.554,4.555c-2.512,0-4.576-2.041-4.576-4.555v-25.47l3.771-5.903V51.91l-3.748,5.736
		v16.625h-7.209V57.472L12.293,57.473z"/>
</g>
</svg>
