<?xml version="1.0" encoding="utf-8"?>
<!-- Generator: Adobe Illustrator 16.0.3, SVG Export Plug-In . SVG Version: 6.00 Build 0)  -->
<svg version="1.2" baseProfile="tiny"
	 id="Layer_1" xmlns:rdf="http://www.w3.org/1999/02/22-rdf-syntax-ns#" xmlns:cc="http://web.resource.org/cc/" xmlns:dc="http://purl.org/dc/elements/1.1/" xmlns:svg="http://www.w3.org/2000/svg" xmlns:inkscape="http://www.inkscape.org/namespaces/inkscape" xmlns:ns1="http://sozi.baierouge.fr" xmlns:sodipodi="http://sodipodi.sourceforge.net/DTD/sodipodi-0.dtd"
	 xmlns="http://www.w3.org/2000/svg" xmlns:xlink="http://www.w3.org/1999/xlink" x="0px" y="0px" width="300px" height="300px"
	 viewBox="0 0 300 300" xml:space="preserve">
<g>
	<path fill="#DCE0DF" d="M264.686,301.047c19.805,0,35.814-16.069,35.814-35.875V36.893c0-19.805-16.01-35.873-35.814-35.873H36.397
		c-19.805,0-35.873,16.067-35.873,35.873v228.275c0,19.805,16.067,35.875,35.873,35.875h228.285L264.686,301.047L264.686,301.047z"
		/>
	<path fill="#FFFFFF" d="M36.397,7.1c-16.447,0-29.8,13.375-29.8,29.8v228.272c0,16.431,13.355,29.826,29.8,29.826h228.29
		c16.395,0,29.73-13.389,29.73-29.826V36.893c0-16.428-13.336-29.8-29.73-29.8H36.402L36.397,7.1z"/>
</g>
<g>
	<path fill-rule="evenodd" fill="#262223" d="M275.246,216.224c-0.418,0-0.814,0-1.211,0c-32.705,0-65.41-0.004-98.116,0.021
		c-0.899,0-1.358-0.273-1.781-1.069c-13.011-24.43-26.046-48.846-39.099-73.253c-0.376-0.703-0.393-1.208,0.016-1.911
		c6.138-10.576,12.247-21.17,18.345-31.768c0.316-0.55,0.687-0.891,1.313-1.063c4.717-1.289,9.43-2.593,14.131-3.938
		c0.694-0.199,1.045-0.065,1.448,0.525c3.884,5.695,7.824,11.354,11.687,17.065c0.632,0.935,0.942,0.811,1.622,0.091
		c3.639-3.855,7.337-7.655,10.982-11.505c0.541-0.571,1.015-0.758,1.82-0.599c5.996,1.188,12.002,2.328,18.015,3.439
		c0.854,0.158,1.321,0.576,1.741,1.306c19.514,33.833,39.047,67.656,58.573,101.483
		C274.927,215.388,275.228,215.688,275.246,216.224z"/>
	<path fill-rule="evenodd" fill="#262223" d="M164.038,216.178c-46.384,0-92.578,0-138.792,0c0.016-0.517,0.325-0.859,0.528-1.239
		c15.437-28.932,30.883-57.86,46.305-86.8c0.401-0.752,0.909-1.167,1.695-1.427c2.532-0.837,5.055-1.706,7.558-2.625
		c0.689-0.253,1.131-0.147,1.674,0.331c4.397,3.87,8.836,7.695,13.229,11.571c0.6,0.529,0.937,0.532,1.542,0.005
		c3.215-2.801,6.483-5.541,9.711-8.326c0.515-0.445,0.995-0.649,1.696-0.526c2.409,0.424,4.825,0.813,7.247,1.152
		c0.757,0.106,1.029,0.585,1.333,1.152c10.081,18.897,20.168,37.789,30.254,56.683c5.147,9.644,10.294,19.287,15.441,28.931
		C163.628,215.378,163.791,215.7,164.038,216.178z"/>
	<path fill-rule="evenodd" fill="#282526" d="M183.245,56.589c8.907,15.424,17.717,30.681,26.645,46.14
		c-2.764-0.518-5.296-0.987-7.825-1.47c-2.874-0.548-5.748-1.099-8.617-1.675c-0.715-0.144-1.221-0.019-1.753,0.552
		c-2.377,2.549-4.83,5.026-7.212,7.57c-0.565,0.605-0.806,0.568-1.265-0.109c-3.08-4.539-6.22-9.037-9.29-13.582
		c-0.466-0.688-0.874-0.792-1.633-0.573c-4.014,1.158-8.043,2.258-12.325,3.45C167.779,83.369,175.469,70.054,183.245,56.589z"/>
	<path fill-rule="evenodd" fill="#282526" d="M78.706,115.756c5.258-9.848,10.517-19.695,15.874-29.728
		c5.889,11.035,11.688,21.898,17.604,32.982c-1.966-0.313-3.71-0.55-5.435-0.885c-0.738-0.144-1.244,0.047-1.792,0.524
		c-2.405,2.094-4.86,4.13-7.26,6.229c-0.507,0.443-0.783,0.415-1.273-0.017c-3.84-3.381-7.72-6.718-11.554-10.106
		c-0.555-0.49-1.008-0.574-1.68-0.315c-1.41,0.542-2.852,1-4.281,1.492C78.841,115.875,78.773,115.815,78.706,115.756z"/>
</g>
</svg>
