<?xml version="1.0" encoding="utf-8"?>
<!-- Generator: Adobe Illustrator 21.0.2, SVG Export Plug-In . SVG Version: 6.00 Build 0)  -->
<svg version="1.2" baseProfile="tiny"
	 id="Layer_1" xmlns:cc="http://web.resource.org/cc/" xmlns:dc="http://purl.org/dc/elements/1.1/" xmlns:inkscape="http://www.inkscape.org/namespaces/inkscape" xmlns:ns1="http://sozi.baierouge.fr" xmlns:rdf="http://www.w3.org/1999/02/22-rdf-syntax-ns#" xmlns:sodipodi="http://sodipodi.sourceforge.net/DTD/sodipodi-0.dtd" xmlns:svg="http://www.w3.org/2000/svg"
	 xmlns="http://www.w3.org/2000/svg" xmlns:xlink="http://www.w3.org/1999/xlink" x="0px" y="0px" width="120px" height="120px" viewBox="0 0 120 120"
	 overflow="scroll" xml:space="preserve">
<g>
	<path fill="#DCE0DF" d="M105.7,120.2c7.9,0,14.3-6.4,14.3-14.3V14.6c0-7.9-6.4-14.3-14.3-14.3H14.3C6.4,0.2,0,6.6,0,14.6v91.3
		c0,7.9,6.4,14.3,14.3,14.3L105.7,120.2L105.7,120.2L105.7,120.2z"/>
	<path fill="#FFFFFF" d="M14.3,2.6C7.8,2.6,2.4,8,2.4,14.6v91.3c0,6.6,5.3,11.9,11.9,11.9h91.3c6.6,0,11.9-5.4,11.9-11.9V14.6
		c0-6.6-5.3-11.9-11.9-11.9L14.3,2.6L14.3,2.6z"/>
</g>
<path fill="#231F20" d="M60.2,29.8c-3.2,0-5.8-2.6-5.8-5.8c0-3.2,2.6-5.8,5.8-5.8c3.2,0,5.8,2.6,5.8,5.8
	C66.1,27.2,63.5,29.8,60.2,29.8z M107.2,80.7l-3.1-19.3c-0.4-1.8-1.9-3.2-3.8-3.2c-1.1,0-2.2,0.5-2.9,1.3L83.1,72.9
	c-0.2,0.2-0.5,0.4-0.7,0.7c-1.3,1.8-1,4.4,0.9,5.8c0.4,0.3,0.7,0.4,1.1,0.6l3.6,1.2c-3.5,9.8-11.9,17.2-22.2,19.2l0-63.4
	c5.1-2.2,8.6-7.2,8.6-13c0-7.8-6.3-14.1-14.1-14.1c-7.8,0-14.1,6.3-14.1,14.1c0,5.8,3.6,10.9,8.7,13l0,63.5
	c-10.6-1.9-19.3-9.4-22.9-19.3l3.6-1.2c0.4-0.2,0.8-0.3,1.1-0.6c1.8-1.4,2.2-4,0.9-5.8c-0.2-0.3-0.4-0.5-0.7-0.7L22.6,59.5
	c-0.7-0.8-1.8-1.3-2.9-1.3c-1.9,0-3.5,1.4-3.8,3.2l-3.1,19.3c-0.1,0.3-0.1,0.6-0.1,1c0,2.3,1.9,4.1,4.1,4.1c0.4,0,0.8-0.1,1.2-0.2
	l3.4-1.1c5.3,16.2,20.6,27.9,38.6,27.9c18,0,33.3-11.7,38.6-28l3.4,1.1c0.4,0.1,0.8,0.2,1.2,0.2c2.3,0,4.1-1.9,4.1-4.1
	C107.3,81.4,107.3,81,107.2,80.7z"/>
</svg>
