<?xml version="1.0" encoding="utf-8"?>
<!-- Generator: Adobe Illustrator 16.0.3, SVG Export Plug-In . SVG Version: 6.00 Build 0)  -->
<!DOCTYPE svg PUBLIC "-//W3C//DTD SVG 1.1//EN" "http://www.w3.org/Graphics/SVG/1.1/DTD/svg11.dtd">
<svg version="1.1"
	 id="Layer_1" xmlns:ns1="http://sozi.baierouge.fr" xmlns:sodipodi="http://sodipodi.sourceforge.net/DTD/sodipodi-0.dtd" xmlns:inkscape="http://www.inkscape.org/namespaces/inkscape" xmlns:svg="http://www.w3.org/2000/svg" xmlns:dc="http://purl.org/dc/elements/1.1/" xmlns:cc="http://web.resource.org/cc/" xmlns:rdf="http://www.w3.org/1999/02/22-rdf-syntax-ns#"
	 xmlns="http://www.w3.org/2000/svg" xmlns:xlink="http://www.w3.org/1999/xlink" x="0px" y="0px"
	 viewBox="0 0 120 120" enable-background="new 0 0 120 120" xml:space="preserve">
<g>
	<path fill="#DCE0DF" d="M105.965,119.843c7.924,0,14.354-6.397,14.354-14.321V14.169c0-7.924-6.43-14.338-14.354-14.338H14.626
		c-7.924,0-14.353,6.414-14.353,14.338v91.347c0,7.924,6.429,14.322,14.353,14.322h91.338L105.965,119.843L105.965,119.843z"/>
	<path fill="#FFFFFF" d="M14.626,2.262c-6.58,0-11.924,5.343-11.924,11.909v91.347c0,6.565,5.344,11.908,11.924,11.908h91.34
		c6.572,0,11.916-5.343,11.916-12.908V13.176c0-5.566-5.344-10.909-11.916-10.909H14.627L14.626,2.262z"/>
</g>
<g>
	<title>Layer 1</title>
	<path id="path2447" d="M87.969,101.227l-4.309-4.397l-3.747-3.831l-3.243-3.313l-2.791-2.851l-2.377-2.422l-2.016-2.056
		l-1.705-1.736l-1.441-1.46l-1.234-1.247l-1.063-1.071l-0.95-0.948l-0.886-0.879l-0.865-0.859l-0.904-0.885L59.46,72.3l-2.009,2.093
		l-2.002,2.088l-2.009,2.094l-2.009,2.086l-2.002,2.094l-2.009,2.094l-2.003,2.094l-2.009,2.094l-2.009,2.092l-2.002,2.094
		l-2.01,2.094l-2.002,2.094l-2.009,2.093l-2.009,2.093l-2.002,2.096l-2.009,2.1l-0.194-0.014l-0.207-0.033l-0.207-0.057l-0.22-0.072
		l-0.219-0.09l-0.226-0.109l-0.233-0.123l-0.232-0.137l-0.232-0.148l-0.239-0.16l-0.239-0.175l-0.239-0.188l-0.239-0.187l-0.239-0.2
		l-0.232-0.201l-0.233-0.213l-0.232-0.207l-0.227-0.22l-0.22-0.213l-0.213-0.213l-0.414-0.427l-0.387-0.407l-0.343-0.382
		l-0.304-0.342l-0.258-0.306l-0.207-0.237l-0.174-0.354l-0.167-0.343l-0.168-0.35l-0.168-0.343l-0.168-0.343l-0.168-0.344
		l-0.161-0.336l-0.168-0.342l0.743-0.757l1.163-1.169l1.538-1.523l1.854-1.834l2.113-2.09l2.32-2.285l2.474-2.436l2.578-2.533
		l2.61-2.57l2.604-2.563l2.539-2.494l2.417-2.383l2.242-2.21l2.009-1.981L50.5,67.43l1.389-1.383l0.161-0.109l0.129-0.084
		l0.097-0.069l0.083-0.065l0.065-0.068l0.071-0.078l0.083-0.098l0.097-0.129l-1.26-1.285l-1.267-1.291l-1.259-1.285l-1.26-1.288
		l-1.259-1.285l-1.26-1.286l-1.267-1.286l-1.26-1.285l-1.259-1.279l-1.26-1.285l-1.259-1.286l-1.267-1.279l-1.26-1.286l-1.26-1.286
		l-1.26-1.279l-1.26-1.285l-0.698,0.8l-0.698,0.807l-0.691,0.801l-0.691,0.807l-0.685,0.808l-0.685,0.814l-0.678,0.82L27,51.267
		l-0.671,0.82L25.67,52.92l-0.659,0.833l-0.646,0.84l-0.646,0.84l-0.626,0.853l-0.626,0.853l-0.614,0.865l-0.02,0.065l-0.019,0.064
		l-0.013,0.071l-0.007,0.065l-0.155-0.065l-0.148-0.064l-0.155-0.058l-0.155-0.051l-0.743-0.621l-0.736-0.626l-0.743-0.62
		l-0.736-0.626l-0.743-0.62l-0.737-0.62L16,53.678l-0.736-0.626l-0.744-0.62l-0.743-0.62l-0.736-0.621l-0.743-0.62l-0.736-0.62
		l-0.743-0.62l-0.737-0.613l-0.743-0.62l0.336-0.426l0.329-0.42l0.336-0.42l0.336-0.427l0.336-0.419l0.335-0.42l0.33-0.427
		l0.336-0.42l0.336-0.42l0.335-0.426l0.33-0.42l0.336-0.419l0.336-0.426l0.336-0.42l0.329-0.426l0.336-0.42l0.795-0.892l0.801-0.892
		l0.795-0.885l0.801-0.885l0.794-0.873l0.808-0.872l0.801-0.872l0.808-0.866l0.807-0.859l0.808-0.853l0.814-0.853l0.813-0.846
		l0.821-0.84l0.82-0.84l0.827-0.833l0.833-0.827l0.833-0.827l0.833-0.82l0.84-0.82l0.846-0.808l0.853-0.807l0.859-0.808l0.859-0.794
		l0.866-0.794l0.872-0.788l0.872-0.788l0.885-0.782l0.892-0.775l0.891-0.775l0.905-0.762l0.904-0.769l0.917-0.755h0.071h0.077h0.084
		h0.09l0.607,0.71l0.614,0.71l0.62,0.717l0.62,0.723l0.621,0.724l0.626,0.724l0.633,0.73l0.633,0.73l0.64,0.736l0.64,0.736
		l0.646,0.736l0.646,0.743l0.652,0.743l0.653,0.743l0.659,0.743l0.666,0.743l-0.853,0.775l-0.853,0.763l-0.859,0.755l-0.865,0.75
		l-0.872,0.75l-0.873,0.749l-0.872,0.743l-0.872,0.743l-0.872,0.75l-0.866,0.743l-0.866,0.75l-0.859,0.75l-0.853,0.755l-0.846,0.762
		l-0.833,0.769l-0.833,0.775l1.305,1.247l1.305,1.253l1.305,1.247l1.305,1.253l1.305,1.247l1.305,1.253l1.305,1.253l1.305,1.247
		l1.305,1.253l1.305,1.253l1.305,1.253l1.305,1.253l1.305,1.253l1.305,1.253l1.305,1.253l1.305,1.253l0.064,0.007l0.064,0.013
		l0.071,0.02l0.065,0.019l1.247-1.233l1.254-1.234l1.252-1.234l1.254-1.234l1.246-1.234l1.254-1.233l1.254-1.228l1.259-1.234
		l1.254-1.234l1.254-1.234l1.254-1.233l1.252-1.234l1.262-1.234l1.253-1.234l1.254-1.234L79.52,39l-0.023-0.168l-0.085-0.2
		l-0.129-0.233l-0.177-0.265l-0.219-0.291l-0.266-0.317l-0.297-0.342l-0.33-0.368l-0.361-0.388l-0.395-0.4l-0.42-0.42l-0.439-0.439
		l-0.457-0.446l-0.479-0.458L74.959,33.8l-0.505-0.465l-1.015-0.956l-1.026-0.95l-1.001-0.937l-0.963-0.904l-0.452-0.433l-0.44-0.42
		l-0.412-0.4l-0.389-0.388l-0.354-0.362l-0.329-0.342l-0.291-0.316l-0.253-0.297l0.673-0.678l0.678-0.678l0.672-0.678l0.679-0.678
		l0.672-0.672l0.681-0.678l0.671-0.678l0.68-0.678l0.672-0.672l0.679-0.678l0.68-0.672l0.679-0.678l0.672-0.672l0.679-0.671
		l0.687-0.678l0.678-0.672h0.084h0.092h0.084h0.091l2.093,2.093l1.829,1.835l1.582,1.589l1.362,1.363l1.156,1.156l0.963,0.963
		l0.795,0.788l0.64,0.633l0.498,0.491l0.388,0.375l0.277,0.271l0.199,0.181l0.137,0.116l0.085,0.058l0.058,0.032l0.045,0.013
		l0.222-0.219l0.228-0.22l0.219-0.22l0.231-0.22l0.228-0.22l0.228-0.219l0.231-0.22l0.231-0.22l0.354,0.349l0.367,0.343l0.361,0.349
		l0.362,0.342l0.36,0.349l0.36,0.342l0.362,0.349l0.361,0.342l0.36,0.349l0.361,0.342l0.362,0.349l0.36,0.343l0.361,0.342
		l0.36,0.349l0.361,0.342l0.361,0.349l-0.008,0.071l-0.006,0.065l-0.021,0.077l-0.021,0.071l-0.031,0.071l-0.032,0.078l-0.039,0.071
		l-0.045,0.077l-0.099,0.148l-0.108,0.155l-0.129,0.148l-0.129,0.155L97.6,32.883l-0.144,0.142l-0.142,0.142l-0.144,0.136
		l-0.267,0.246l-0.227,0.22l0.35,0.349l0.35,0.349l0.354,0.343l0.351,0.349l0.351,0.349l0.35,0.349l0.349,0.355l0.343,0.355
		l0.344,0.368l0.343,0.368l0.336,0.381l0.336,0.394l0.33,0.401l0.321,0.414l0.322,0.426l0.317,0.446l0.651,1.24l0.658,1.247
		l0.658,1.247l0.665,1.247l0.659,1.247l0.659,1.247l0.665,1.247l0.658,1.253l0.666,1.247l0.658,1.247l0.664,1.253l0.659,1.247
		l0.666,1.253l0.665,1.247l0.659,1.253l0.665,1.247l-1.383-0.633l-1.383-0.626l-1.384-0.626l-1.377-0.633l-1.382-0.626l-1.383-0.626
		l-1.383-0.627l-1.383-0.626l-1.383-0.626l-1.384-0.626l-1.383-0.627l-1.375-0.62l-1.384-0.626l-1.383-0.626l-1.382-0.626
		l-1.383-0.62L90.295,49.4l-0.311-0.304l-0.303-0.297l-0.313-0.297l-0.305-0.304l-0.311-0.297l-0.304-0.297l-0.304-0.297
		L87.84,47.01l-0.304-0.297l-0.304-0.297l-0.303-0.297l-0.306-0.297l-0.306-0.297l-0.303-0.291l-0.305-0.297h-0.02l-0.021,0.007
		l-0.023,0.019l-0.039,0.02L85.49,45.08l-0.199,0.188l-0.305,0.304l-0.445,0.445l-0.613,0.627l-0.801,0.827l-1.033,1.066
		l-1.279,1.331l-1.563,1.627l-1.866,1.944l-2.21,2.3l-2.57,2.681l-2.973,3.094l-3.391,3.541v0.084v0.09v0.099v0.108l2.164,2.066
		l2.162,2.061l2.172,2.067l2.162,2.067l2.164,2.066l2.164,2.066l2.172,2.07l2.164,2.068l2.172,2.066l2.162,2.066l2.173,2.065
		l2.165,2.073l2.17,2.066l2.171,2.072l2.171,2.068l2.17,2.074l-0.051,0.256l-0.078,0.272l-0.104,0.282l-0.121,0.285l-0.144,0.297
		l-0.162,0.297l-0.182,0.305l-0.193,0.311l-0.213,0.311l-0.231,0.313l-0.239,0.31l-0.259,0.312l-0.264,0.304L98.4,102.68
		l-0.282,0.305l-0.298,0.289l-0.305,0.285l-0.305,0.277l-0.314,0.271l-0.316,0.258l-0.316,0.246l-0.322,0.238l-0.321,0.221
		l-0.324,0.207l-0.315,0.187l-0.315,0.175l-0.315,0.154l-0.305,0.13l-0.305,0.116l-0.297,0.09L93.16,106.2l-0.277,0.046
		L87.969,101.227z"/>
</g>
</svg>
