<?xml version="1.0" encoding="utf-8"?>
<!-- Generator: Adobe Illustrator 16.0.3, SVG Export Plug-In . SVG Version: 6.00 Build 0)  -->
<!DOCTYPE svg PUBLIC "-//W3C//DTD SVG 1.1//EN" "http://www.w3.org/Graphics/SVG/1.1/DTD/svg11.dtd">
<svg version="1.1"
	 id="Layer_1" xmlns:ns1="http://sozi.baierouge.fr" xmlns:sodipodi="http://sodipodi.sourceforge.net/DTD/sodipodi-0.dtd" xmlns:inkscape="http://www.inkscape.org/namespaces/inkscape" xmlns:svg="http://www.w3.org/2000/svg" xmlns:dc="http://purl.org/dc/elements/1.1/" xmlns:cc="http://web.resource.org/cc/" xmlns:rdf="http://www.w3.org/1999/02/22-rdf-syntax-ns#"
	 xmlns="http://www.w3.org/2000/svg" xmlns:xlink="http://www.w3.org/1999/xlink" x="0px" y="0px"
	 viewBox="0 0 120 120" enable-background="new 0 0 120 120" xml:space="preserve">
<g>
	<path fill="#DCE0DF" d="M105.664,120.438c7.922,0,14.326-6.428,14.326-14.35V14.776c0-7.922-6.404-14.349-14.326-14.349H14.349
		C6.427,0.427,0,6.854,0,14.776v91.31c0,7.922,6.427,14.35,14.349,14.35h91.315V120.438L105.664,120.438z"/>
	<path fill="#FFFFFF" d="M14.349,2.859c-6.579,0-11.92,5.35-11.92,11.92v91.309c0,6.572,5.342,11.93,11.92,11.93h91.317
		c6.557,0,11.891-5.355,11.891-11.93V14.776c0-6.571-5.334-11.92-11.891-11.92H14.351L14.349,2.859z"/>
</g>
<path d="M71.266,59.647c6.809,0,12.33-5.532,12.33-12.331c0-6.829-5.525-12.354-12.33-12.354l-18.188-0.03v24.714L71.266,59.647
	L71.266,59.647z M71.008,19.756c15.411,0,27.887,12.476,27.887,27.864c0,15.419-12.476,27.887-27.887,27.887l-17.931-0.022v26.47
	H37.013V19.755L71.008,19.756L71.008,19.756z"/>
</svg>
