<svg xmlns="http://www.w3.org/2000/svg" version="1.1" x="0" y="0" viewBox=".5 .5 120 120" enable-background="new .5 .5 120 120" xml:space="preserve"><defs><filter id="a" color-interpolation-filters="sRGB"><feColorMatrix type="hueRotate" values="180" result="color1"/><feColorMatrix values="-1 0 0 0 1 0 -1 0 0 1 0 0 -1 0 1 -0.21 -0.72 -0.07 2 0" result="fbSourceGraphic"/><feColorMatrix result="fbSourceGraphicAlpha" in="fbSourceGraphic" values="0 0 0 -1 0 0 0 0 -1 0 0 0 0 -1 0 0 0 0 1 0"/><feColorMatrix type="hueRotate" values="180" result="color1" in="fbSourceGraphic"/><feColorMatrix values="-1 0 0 0 1 0 -1 0 0 1 0 0 -1 0 1 -0.21 -0.72 -0.07 2 0" result="color2"/></filter><filter id="c" color-interpolation-filters="sRGB"><feColorMatrix type="hueRotate" values="180" result="color1"/><feColorMatrix values="-1 0 0 0 1 0 -1 0 0 1 0 0 -1 0 1 -0.21 -0.72 -0.07 2 0" result="color2"/></filter><filter id="b" color-interpolation-filters="sRGB"><feColorMatrix type="hueRotate" values="180" result="color1"/><feColorMatrix values="-1 0 0 0 1 0 -1 0 0 1 0 0 -1 0 1 -0.21 -0.72 -0.07 2 0" result="color2"/></filter></defs><g filter="url(#a)"><path d="M106.174 120.719c7.922 0 14.326-6.428 14.326-14.35V15.057c0-7.922-6.404-14.349-14.326-14.349H14.859C6.937.708.51 7.135.51 15.057v91.31c0 7.922 6.427 14.35 14.349 14.35h91.314z" fill="#dce0df"/><path d="M14.859 3.14c-6.579 0-11.92 5.35-11.92 11.92v91.309c0 6.572 5.342 11.93 11.92 11.93h91.316c6.558 0 11.892-5.355 11.892-11.93V15.057c0-6.571-5.334-11.92-11.892-11.92H14.861z" fill="#fff"/></g><path d="M0 0a.36.36 0 0 0 0 .512.36.36 0 0 0 .512 0l.724-.723V.813a.364.364 0 0 0 .727 0V-.211l.723.723A.362.362 0 1 0 3.199 0l-.722-.723L3.5-.725a.363.363 0 0 0 0-.726H2.477l.722-.723a.362.362 0 0 0 0-.514.366.366 0 0 0-.513 0l-.721.723-.002-1.021a.364.364 0 1 0-.727 0v1.023l-.724-.725a.365.365 0 0 0-.512 0 .362.362 0 0 0 0 .514l.723.723H-.301a.364.364 0 0 0 0 .726H.723z" fill="#fff" fill-opacity="1" fill-rule="nonzero" stroke="none" transform="matrix(10.25302 0 0 -10.25302 71.6 76.568)" filter="url(#b)"/><path d="M-6.94-.748a.25.25 0 0 1-.251.25.251.251 0 0 1-.252-.25v-1.039L-8.912-.32a.248.248 0 0 1-.353 0 .248.248 0 0 1 0-.354l1.467-1.469h-1.04a.251.251 0 0 1 0-.502l1.645.002c.065 0 .128.024.179.072.048.05.072.114.072.177z" fill="#fff" fill-opacity="1" fill-rule="nonzero" stroke="none" stroke-width=".692" transform="matrix(22.15695 0 0 -22.15695 220.022 6.792)" filter="url(#c)"/></svg>