<?xml version="1.0" encoding="utf-8"?>
<!-- Generator: Adobe Illustrator 16.0.3, SVG Export Plug-In . SVG Version: 6.00 Build 0)  -->
<svg version="1.2" baseProfile="tiny"
	 id="Layer_1" xmlns:ns1="http://sozi.baierouge.fr" xmlns:sodipodi="http://sodipodi.sourceforge.net/DTD/sodipodi-0.dtd" xmlns:inkscape="http://www.inkscape.org/namespaces/inkscape" xmlns:svg="http://www.w3.org/2000/svg" xmlns:dc="http://purl.org/dc/elements/1.1/" xmlns:cc="http://web.resource.org/cc/" xmlns:rdf="http://www.w3.org/1999/02/22-rdf-syntax-ns#"
	 xmlns="http://www.w3.org/2000/svg" xmlns:xlink="http://www.w3.org/1999/xlink" x="0px" y="0px" 
	 viewBox="0 0 300 300" xml:space="preserve">
<g>
	<path fill="#DCE0DF" d="M264.16,300c19.805,0,35.814-16.07,35.814-35.875V35.845c0-19.805-16.01-35.873-35.814-35.873H35.873
		C16.067-0.027,0,16.04,0,35.845v228.278c0,19.805,16.067,35.875,35.873,35.875h228.286L264.16,300L264.16,300z"/>
	<path fill="#FFFFFF" d="M35.873,6.053c-16.448,0-29.8,13.375-29.8,29.8v228.274c0,16.431,13.355,29.826,29.8,29.826h228.29
		c16.396,0,29.73-13.389,29.73-29.826V35.845c0-16.428-13.335-29.8-29.73-29.8H35.877L35.873,6.053z"/>
</g>
<path d="M150,18.75c-45.303,0-82.033,36.72-82.033,82.033c0,12.69,2.883,24.722,8.035,35.44C76.292,136.83,150,281.25,150,281.25
	l73.107-143.235c5.703-11.165,8.922-23.825,8.922-37.235C232.033,55.47,195.308,18.75,150,18.75z M150,150
	c-27.183,0-49.22-22.045-49.22-49.22c0-27.175,22.038-49.217,49.22-49.217c27.172,0,49.221,22.045,49.221,49.22
	C199.221,127.958,177.172,150,150,150z"/>
</svg>
