<?xml version="1.0" encoding="utf-8"?>
<!-- Generator: Adobe Illustrator 16.0.3, SVG Export Plug-In . SVG Version: 6.00 Build 0)  -->
<!DOCTYPE svg PUBLIC "-//W3C//DTD SVG 1.1//EN" "http://www.w3.org/Graphics/SVG/1.1/DTD/svg11.dtd">
<svg version="1.1"
	 id="Layer_1" xmlns:ns1="http://sozi.baierouge.fr" xmlns:sodipodi="http://sodipodi.sourceforge.net/DTD/sodipodi-0.dtd" xmlns:inkscape="http://www.inkscape.org/namespaces/inkscape" xmlns:svg="http://www.w3.org/2000/svg" xmlns:dc="http://purl.org/dc/elements/1.1/" xmlns:cc="http://web.resource.org/cc/" xmlns:rdf="http://www.w3.org/1999/02/22-rdf-syntax-ns#"
	 xmlns="http://www.w3.org/2000/svg" xmlns:xlink="http://www.w3.org/1999/xlink" x="0px" y="0px"
	 viewBox="0 0 120 120" enable-background="new 0 0 120 120" xml:space="preserve">
<g>
	<path fill="#DCE0DF" d="M105.674,120.438c7.922,0,14.326-6.428,14.326-14.35V14.776c0-7.922-6.404-14.349-14.326-14.349H14.359
		C6.437,0.427,0.01,6.854,0.01,14.776v91.31c0,7.922,6.427,14.35,14.349,14.35h91.314V120.438L105.674,120.438z"/>
	<path fill="#FFFFFF" d="M14.359,2.859c-6.579,0-11.92,5.35-11.92,11.92v91.309c0,6.572,5.342,11.93,11.92,11.93h91.316
		c6.558,0,11.892-5.355,11.892-11.93V14.776c0-6.571-5.334-11.92-11.892-11.92H14.361L14.359,2.859z"/>
</g>
<path d="M68.592,51.097v-20.61h7.109c2.967,0,3.49,1.95,3.848,2.329c1.107,1.063,1.844,1.708,3.414,1.708h7.893V17.026h-7.893
	c-1.57,0-2.307-0.645-3.414-1.737c-0.357-0.327-0.881-2.299-3.848-2.299H64.82v35.688l-4.979-3.248L15.99,73.74h10.282v34.223
	h24.897V80.785h17.3v26.559h24.905V73.74h10.244L68.59,51.097H68.592z"/>
</svg>
