<?xml version="1.0" encoding="utf-8"?>
<!-- Generator: Adobe Illustrator 16.0.3, SVG Export Plug-In . SVG Version: 6.00 Build 0)  -->
<!DOCTYPE svg PUBLIC "-//W3C//DTD SVG 1.1//EN" "http://www.w3.org/Graphics/SVG/1.1/DTD/svg11.dtd">
<svg version="1.1"
	 id="Layer_1" xmlns:ns1="http://sozi.baierouge.fr" xmlns:sodipodi="http://sodipodi.sourceforge.net/DTD/sodipodi-0.dtd" xmlns:inkscape="http://www.inkscape.org/namespaces/inkscape" xmlns:svg="http://www.w3.org/2000/svg" xmlns:dc="http://purl.org/dc/elements/1.1/" xmlns:cc="http://web.resource.org/cc/" xmlns:rdf="http://www.w3.org/1999/02/22-rdf-syntax-ns#"
	 xmlns="http://www.w3.org/2000/svg" xmlns:xlink="http://www.w3.org/1999/xlink" x="0px" y="0px"
	 viewBox="0 0 120 120" enable-background="new 0 0 120 120" xml:space="preserve">
<g>
	<path fill="#DCE0DF" d="M105.674,120.438c7.922,0,14.326-6.428,14.326-14.35V14.776c0-7.922-6.404-14.349-14.326-14.349H14.359
		C6.437,0.427,0.01,6.854,0.01,14.776v91.31c0,7.922,6.427,14.35,14.349,14.35h91.314V120.438L105.674,120.438z"/>
	<path fill="#FFFFFF" d="M14.359,2.859c-6.579,0-11.92,5.35-11.92,11.92v91.309c0,6.572,5.342,11.93,11.92,11.93h91.316
		c6.558,0,11.892-5.355,11.892-11.93V14.776c0-6.571-5.334-11.92-11.892-11.92H14.361L14.359,2.859z"/>
</g>
<path d="M13.067,53.176l7.193,4.15l1.92,1.108l-5.607,9.705c-0.508,0.873-0.767,1.844-0.767,2.815c0,0.956,0.235,1.897,0.744,2.755
	c0,0,4.91,8.536,8.909,15.436c0.296-0.973,0.66-1.922,1.168-2.814l10.98-18.971l1.889,1.084l7.209,4.176l-11.223-19.42
	L13.067,53.176L13.067,53.176z"/>
<path d="M34.511,80.35c-0.979,1.686-4.538,7.846-4.538,7.846c-0.629,1.049-0.926,2.209-0.926,3.369c0,1.162,0.296,2.301,0.903,3.324
	c1.168,2.064,3.392,3.316,5.774,3.293h22.15v-17.83c-3.361-0.004-21.323-0.004-23.364-0.004v0.002H34.511z"/>
<path d="M93.473,24.53l-7.209,4.15l-1.922,1.115l-5.576-9.729c-0.494-0.873-1.229-1.586-2.063-2.064
	c-0.828-0.494-1.775-0.729-2.746-0.729h-17.84c0.698,0.729,1.335,1.517,1.837,2.413L68.9,38.658l-1.866,1.115l-7.239,4.15h22.439
	L93.473,24.53z"/>
<path d="M59.204,29.486c-0.972-1.684-4.522-7.854-4.522-7.854c-0.607-1.039-1.457-1.897-2.466-2.488
	c-0.994-0.569-2.125-0.872-3.308-0.896c-2.368,0.022-4.583,1.305-5.736,3.384c0,0-9.341,16.156-11.102,19.191
	c2.777,1.586,12.687,7.3,15.465,8.885C49.194,46.817,58.187,31.239,59.204,29.486z"/>
<path d="M77.604,108.422V97.92l11.192,0.021c1.024,0,2.019-0.266,2.847-0.758c0.834-0.479,1.541-1.16,2.02-2.02
	c0,0,4.955-8.537,8.916-15.438c-0.973,0.213-1.995,0.402-3.014,0.402l-21.94-0.016V77.91l0.028-8.324L66.408,89.012L77.6,108.426
	L77.604,108.422z"/>
<path d="M90.436,76.297h9.063c1.207,0,2.393-0.311,3.416-0.902c0.971-0.568,1.799-1.373,2.412-2.42
	c1.168-2.063,1.139-4.6-0.047-6.641c0,0-9.317-16.17-11.069-19.206c-2.755,1.608-12.688,7.33-15.44,8.917
	c1.67,2.891,10.662,18.492,11.678,20.252H90.436z"/>
</svg>
