<?xml version="1.0" encoding="utf-8"?>
<!-- Generator: Adobe Illustrator 16.0.3, SVG Export Plug-In . SVG Version: 6.00 Build 0)  -->
<!DOCTYPE svg PUBLIC "-//W3C//DTD SVG 1.1//EN" "http://www.w3.org/Graphics/SVG/1.1/DTD/svg11.dtd">
<svg version="1.1"
	 id="Layer_1" xmlns:ns1="http://sozi.baierouge.fr" xmlns:sodipodi="http://sodipodi.sourceforge.net/DTD/sodipodi-0.dtd" xmlns:inkscape="http://www.inkscape.org/namespaces/inkscape" xmlns:svg="http://www.w3.org/2000/svg" xmlns:dc="http://purl.org/dc/elements/1.1/" xmlns:cc="http://web.resource.org/cc/" xmlns:rdf="http://www.w3.org/1999/02/22-rdf-syntax-ns#"
	 xmlns="http://www.w3.org/2000/svg" xmlns:xlink="http://www.w3.org/1999/xlink" x="0px" y="0px"
	 viewBox="0 0 120 120" enable-background="new 0 0 120 120" xml:space="preserve">
<g>
	<path fill="#DCE0DF" d="M105.674,120.438c7.922,0,14.326-6.428,14.326-14.35V14.776c0-7.922-6.404-14.349-14.326-14.349H14.359
		C6.437,0.427,0.01,6.854,0.01,14.776v91.31c0,7.922,6.427,14.35,14.349,14.35h91.314V120.438L105.674,120.438z"/>
	<path fill="#FFFFFF" d="M14.359,2.859c-6.579,0-11.92,5.35-11.92,11.92v91.309c0,6.572,5.342,11.93,11.92,11.93h91.316
		c6.558,0,11.892-5.355,11.892-11.93V14.776c0-6.571-5.334-11.92-11.892-11.92H14.361L14.359,2.859z"/>
</g>
<rect x="59.308" y="20.818" width="6.351" height="80.079"/>
<path d="M36.604,35.472c4.553,0,7.816,3.748,8.499,5.79l5.577,18.355c1.115,3.93-3.9,5.568-5.099,1.73l-5.016-16.84h-2.892
	l8.408,29.928H38.06v23.356c0,3.981-5.987,3.961-5.987,0v-23.5H29.03v23.456c0,4.027-6.017,4.027-6.017,0V74.438h-8.036
	l8.324-29.928h-2.762l-5.032,16.885c-1.184,3.672-6.245,2.186-5.091-1.774l5.577-18.355c0.599-2.086,3.24-5.79,7.816-5.79
	L36.604,35.472L36.604,35.472z"/>
<path d="M30.549,34.098c3.589,0,6.503-2.914,6.503-6.496c0-3.604-2.914-6.518-6.503-6.518c-3.597,0-6.502,2.914-6.502,6.518
	C24.045,31.184,26.952,34.098,30.549,34.098z"/>
<path d="M93.734,33.983c3.604,0,6.52-2.898,6.52-6.503c0-3.582-2.914-6.496-6.52-6.496c-3.582,0-6.496,2.914-6.496,6.496
	c-0.004,3.604,2.91,6.503,6.492,6.503H93.734z"/>
<path d="M84.941,97.057c0,2.021,1.606,3.65,3.627,3.65c2.01,0,3.648-1.632,3.648-3.65v-30.59h3.059v30.588
	c0,2.02,1.641,3.649,3.648,3.649c2.02,0,3.637-1.632,3.637-3.649l0.021-52.739h3.035v19.442c0,3.915,5.091,3.915,5.091,0V43.889
	c0-4.317-3.359-8.537-8.414-8.537L85.055,35.33c-4.621,0-8.324,3.764-8.324,8.438v19.988c0,3.869,5.121,3.869,5.121,0V44.313h3.09
	v52.738V97.057L84.941,97.057z"/>
</svg>
