<?xml version="1.0" encoding="utf-8"?>
<!-- Generator: Adobe Illustrator 16.0.3, SVG Export Plug-In . SVG Version: 6.00 Build 0)  -->
<!DOCTYPE svg PUBLIC "-//W3C//DTD SVG 1.1//EN" "http://www.w3.org/Graphics/SVG/1.1/DTD/svg11.dtd">
<svg version="1.1"
	 id="Layer_1" xmlns:ns1="http://sozi.baierouge.fr" xmlns:sodipodi="http://sodipodi.sourceforge.net/DTD/sodipodi-0.dtd" xmlns:inkscape="http://www.inkscape.org/namespaces/inkscape" xmlns:svg="http://www.w3.org/2000/svg" xmlns:dc="http://purl.org/dc/elements/1.1/" xmlns:cc="http://web.resource.org/cc/" xmlns:rdf="http://www.w3.org/1999/02/22-rdf-syntax-ns#"
	 xmlns="http://www.w3.org/2000/svg" xmlns:xlink="http://www.w3.org/1999/xlink" x="0px" y="0px"
	 viewBox="0 0 120 120" enable-background="new 0 0 120 120" xml:space="preserve">
<path fill="#DCE0DF" d="M105.674,120.438c7.922,0,14.326-6.428,14.326-14.35V14.776c0-7.922-6.404-14.349-14.326-14.349H14.359
	C6.437,0.427,0.01,6.854,0.01,14.776v91.31c0,7.922,6.427,14.35,14.349,14.35h91.314L105.674,120.438L105.674,120.438z"/>
<path fill="#FFFFFF" d="M14.359,2.859c-6.579,0-11.92,5.35-11.92,11.92v91.309c0,6.572,5.342,11.93,11.92,11.93h91.316
	c6.558,0,11.892-5.355,11.892-11.93V14.776c0-6.571-5.334-11.92-11.892-11.92H14.361L14.359,2.859z"/>
<path id="path2072" d="M59.75,84.959h-26.9v8.489c0,10.333-14.95,10.456-14.95,0v-8.489H9.942V58.374
	c0-7.136,5.739-10.907,8.98-11.318l8.181-20.896c1.541-3.979,4.877-7.38,11.167-7.38c41.321-0.055,1.753,0.001,42.934,0
	c6.289,0,9.627,3.401,11.166,7.38l8.182,20.895c3.242,0.412,8.988,4.183,8.988,11.318v26.585h-7.959v8.487
	c0,10.457-14.949,10.334-14.949,0v-8.487h-26.9L59.75,84.959L59.75,84.959z"/>
<path id="path2076_1_" fill="#FFFFFF" d="M59.732,46.564h-32.34l6.161-16.167c0.77-2.311,1.925-3.979,4.621-4.004h43.127
	c2.694,0.025,3.852,1.694,4.621,4.004l6.16,16.167H59.732L59.732,46.564z"/>
<g id="g2078_1_">
	<g id="g2080_1_">
		<path id="path2082_1_" fill="#FFFFFF" d="M25.611,68.705c-3.813,0-6.906-3.155-6.906-7.047c0-3.891,3.092-7.046,6.906-7.046
			s6.905,3.155,6.905,7.046C32.517,65.55,29.425,68.705,25.611,68.705z"/>
	</g>
	<g id="g2086_1_">
		<path id="path2088_1_" fill="#FFFFFF" d="M93.866,68.705c3.813,0,6.905-3.155,6.905-7.047c0-3.891-3.092-7.046-6.905-7.046
			c-3.814,0-6.905,3.155-6.905,7.046C86.961,65.55,90.052,68.705,93.866,68.705z"/>
	</g>
</g>
</svg>
