<?xml version="1.0" encoding="utf-8"?>
<!-- Generator: Adobe Illustrator 16.0.3, SVG Export Plug-In . SVG Version: 6.00 Build 0)  -->
<!DOCTYPE svg PUBLIC "-//W3C//DTD SVG 1.1//EN" "http://www.w3.org/Graphics/SVG/1.1/DTD/svg11.dtd">
<svg version="1.1"
	 id="Layer_1" xmlns:ns1="http://sozi.baierouge.fr" xmlns:sodipodi="http://sodipodi.sourceforge.net/DTD/sodipodi-0.dtd" xmlns:inkscape="http://www.inkscape.org/namespaces/inkscape" xmlns:svg="http://www.w3.org/2000/svg" xmlns:dc="http://purl.org/dc/elements/1.1/" xmlns:cc="http://web.resource.org/cc/" xmlns:rdf="http://www.w3.org/1999/02/22-rdf-syntax-ns#"
	 xmlns="http://www.w3.org/2000/svg" xmlns:xlink="http://www.w3.org/1999/xlink" x="0px" y="0px"
	 viewBox="0 0 120 120" enable-background="new 0 0 120 120" xml:space="preserve">
<g>
	<path fill="#DCE0DF" d="M105.674,120.438c7.922,0,14.326-6.428,14.326-14.35V14.776c0-7.922-6.404-14.349-14.326-14.349H14.359
		C6.437,0.427,0.01,6.854,0.01,14.776v91.31c0,7.922,6.427,14.35,14.349,14.35h91.314V120.438L105.674,120.438z"/>
	<path fill="#FFFFFF" d="M14.359,2.859c-6.579,0-11.92,5.35-11.92,11.92v91.309c0,6.572,5.342,11.93,11.92,11.93h91.316
		c6.558,0,11.892-5.355,11.892-11.93V14.776c0-6.571-5.334-11.92-11.892-11.92H14.361L14.359,2.859z"/>
</g>
<g>
	<path d="M92.037,64.741c-13.32,15.983-27.146,6.907-31.646,3.19c3.48-3.798,5.064-5.865,11.107-10.842
		c6.246,2.55,17.404-2.29,17.404-2.29c-7.512,1.965-13.248,0.852-15.287,0.313c0.432-0.345,7.843-5.709,10.087-8.813
		c6.204,0.192,11.327-5.137,11.327-5.137c-0.174-0.141-3.307,2.262-9.24,2.551c6.145-9.025,5.863-17.326,5.863-17.326
		s-2.271,7.576-8.041,15.888c-1.182-5.898,0.324-9.912,0.149-10.047c0,0-4.015,6.625-2.165,12.715
		c-3.156,3.606-8.133,6.721-9.962,8.115c-0.138-0.375-2.052-6.666-0.19-15.963c0,0-5.061,11.688-1.896,17.752
		c-3.877,2.978-4.908,3.71-11.382,10.947c-14.659-10.971-2.069-30.595,8.91-35.173c11.288-4.708,15.998-3.763,26.343-20.702
		C104.745,26.708,102.893,51.709,92.037,64.741z M29.466,63.037c6.667,3.049,11.292,7.188,14.47,11.148
		c0.036-0.121,0.087-0.211,0.123-0.351c6.04-21.72-27.146-18.699-27.146-18.699s4.584,7.054,7.141,14.746
		c2.955,8.916,15.034,16.327,19.371,5.742C40.294,71.408,35.814,66.793,29.466,63.037z M60.392,67.921
		c-0.047-0.036-2.293-2.063-2.262-2.101c-5.688,6.266-7.909,11.617-8.449,18.434c-0.861-2.345-2.581-6.096-5.751-10.066
		c-0.147,0.521-0.325,0.988-0.51,1.438c3.372,4.536,4.678,10.729,5.445,12.757c0,5.664,0.618,8.496,1.116,13.219
		c0,0,3.047,1.801,3.897-1.561C52.168,97.202,50.479,77.629,60.392,67.921z"/>
</g>
</svg>
