<?xml version="1.0" encoding="utf-8"?>
<!-- Generator: Adobe Illustrator 16.0.3, SVG Export Plug-In . SVG Version: 6.00 Build 0)  -->
<!DOCTYPE svg PUBLIC "-//W3C//DTD SVG 1.1//EN" "http://www.w3.org/Graphics/SVG/1.1/DTD/svg11.dtd">
<svg version="1.1"
	 id="Layer_1" xmlns:ns1="http://sozi.baierouge.fr" xmlns:sodipodi="http://sodipodi.sourceforge.net/DTD/sodipodi-0.dtd" xmlns:inkscape="http://www.inkscape.org/namespaces/inkscape" xmlns:svg="http://www.w3.org/2000/svg" xmlns:dc="http://purl.org/dc/elements/1.1/" xmlns:cc="http://web.resource.org/cc/" xmlns:rdf="http://www.w3.org/1999/02/22-rdf-syntax-ns#"
	 xmlns="http://www.w3.org/2000/svg" xmlns:xlink="http://www.w3.org/1999/xlink" x="0px" y="0px"
	 viewBox="0 0 120 120" enable-background="new 0 0 120 120" xml:space="preserve">
<g>
	<path fill="#DCE0DF" d="M105.674,120.438c7.922,0,14.326-6.428,14.326-14.35V14.776c0-7.922-6.404-14.349-14.326-14.349H14.359
		C6.437,0.427,0.01,6.854,0.01,14.776v91.31c0,7.922,6.427,14.35,14.349,14.35h91.314V120.438L105.674,120.438z"/>
	<path fill="#FFFFFF" d="M14.359,2.859c-6.579,0-11.92,5.35-11.92,11.92v91.309c0,6.572,5.342,11.93,11.92,11.93h91.316
		c6.558,0,11.892-5.355,11.892-11.93V14.776c0-6.571-5.334-11.92-11.892-11.92H14.361L14.359,2.859z"/>
</g>
<path d="M67.412,27.979c5.631,0,9.668,4.636,10.518,7.164l6.904,22.704c1.374,4.874-4.84,6.906-6.313,2.148l-6.215-20.83h-3.582
	l10.418,37.022h-9.918v28.901c0,4.933-7.43,4.91-7.43,0V76.02H58.04v29.002c0,5-7.444,5-7.444,0V76.184h-9.949l10.29-37.021h-3.4
	l-6.214,20.89c-1.472,4.538-7.754,2.693-6.305-2.208l6.89-22.704c0.729-2.587,4.014-7.163,9.683-7.163h15.82L67.412,27.979
	L67.412,27.979z"/>
<path d="M59.931,26.271c4.417,0,8.035-3.604,8.035-8.035c0-4.462-3.62-8.067-8.035-8.067c-4.47,0-8.043,3.604-8.043,8.067
	C51.886,22.667,55.46,26.271,59.931,26.271z"/>
</svg>
