<?xml version="1.0" encoding="utf-8"?>
<!-- Generator: Adobe Illustrator 16.0.3, SVG Export Plug-In . SVG Version: 6.00 Build 0)  -->
<!DOCTYPE svg PUBLIC "-//W3C//DTD SVG 1.1//EN" "http://www.w3.org/Graphics/SVG/1.1/DTD/svg11.dtd">
<svg version="1.1"
	 id="Layer_1" xmlns:ns1="http://sozi.baierouge.fr" xmlns:sodipodi="http://sodipodi.sourceforge.net/DTD/sodipodi-0.dtd" xmlns:inkscape="http://www.inkscape.org/namespaces/inkscape" xmlns:svg="http://www.w3.org/2000/svg" xmlns:dc="http://purl.org/dc/elements/1.1/" xmlns:cc="http://web.resource.org/cc/" xmlns:rdf="http://www.w3.org/1999/02/22-rdf-syntax-ns#"
	 xmlns="http://www.w3.org/2000/svg" xmlns:xlink="http://www.w3.org/1999/xlink" x="0px" y="0px"
	 viewBox="0 0 120 120" enable-background="new 0 0 120 120" xml:space="preserve">
<g>
	<path fill="#DCE0DF" d="M105.674,120.438c7.922,0,14.326-6.428,14.326-14.35V14.776c0-7.922-6.404-14.349-14.326-14.349H14.359
		C6.437,0.427,0.01,6.854,0.01,14.776v91.31c0,7.922,6.427,14.35,14.349,14.35h91.314V120.438L105.674,120.438z"/>
	<path fill="#FFFFFF" d="M14.359,2.859c-6.579,0-11.92,5.35-11.92,11.92v91.309c0,6.572,5.342,11.93,11.92,11.93h91.316
		c6.558,0,11.892-5.355,11.892-11.93V14.776c0-6.571-5.334-11.92-11.892-11.92H14.361L14.359,2.859z"/>
</g>
<g>
	<g transform="translate(0.000000,512.000000) scale(0.100000,-0.100000)">
		<path d="M552.329,5018.232c-60.791-6.06-124.536-24.634-176.919-51.216c-175.166-88.95-282.09-269.39-274.863-463.716
			c2.739-74.863,18.965-139.375,52.197-206.035c48.481-98.145,126.675-176.152,224.819-224.824
			c72.915-36.172,140.166-52.012,222.661-52.012c49.658,0,78.193,3.525,122.383,14.668c37.734,9.57,61.191,18.164,97.549,36.162
			c54.736,26.787,87.979,50.635,132.949,95.791c44.756,44.766,70.371,80.352,96.758,134.307
			c22.676,46.143,36.748,91.094,45.371,144.463c5.078,31.66,6.23,106.538,1.953,135.664
			c-11.738,81.328-36.758,148.77-79.375,214.072c-17.207,26.191-36.934,50.244-62.363,76.05
			c-77.598,78.594-172.617,126.685-284.824,143.882C646.172,5019.208,577.349,5020.966,552.329,5018.232z M646.367,4960.561
			c10.361-1.172,11.924-1.753,11.133-4.883c-1.563-5.479-6.846-9.39-23.066-16.426c-8.223-3.521-13.887-7.036-12.715-7.822
			c1.172-0.791,10.352-1.763,20.537-2.349c15.244-0.977,19.346-0.581,23.457,2.153c6.436,4.302,6.25,6.65-1.357,8.599l-6.465,1.563
			l12.52,6.25c6.855,3.521,14.277,6.255,16.23,6.255c6.064,0,40.859-9.189,59.424-15.83c58.057-20.522,108.887-51.421,156.982-95.4
			l18.359-16.812l-13.877-1.367c-16.416-1.753-24.814-4.888-35.576-13.486c-6.055-4.883-10.557-6.65-19.551-7.822
			c-6.445-0.786-13.887-2.729-16.621-4.497c-2.725-1.753-8.789-11.138-13.682-20.728c-10.752-21.499-14.658-25.42-25.42-25.42
			c-9.57,0-18.184,5.674-26.973,17.983c-3.33,4.697-9.395,12.905-13.496,18.384c-5.469,7.231-7.422,11.924-7.422,17.002
			c0,6.06-0.781,7.231-4.102,7.231c-6.25,0-2.344,3.906,9.199,8.999c7.627,3.325,10.557,5.669,10.557,8.594
			c0,4.307-6.064,8.999-14.658,10.757c-10.957,2.344-11.934,2.935-8.809,4.883c1.563,0.981,5.664,0.386,10.166-1.367
			c10.371-4.102,14.072-0.786,7.236,6.455c-4.121,4.307-5.859,4.888-15.449,4.307c-10.547-0.581-11.328,0-8.984,6.255
			c0.781,2.148-6.465,7.822-26.602,20.518c-29.131,18.384-32.842,20.327-32.842,16.616c0-4.302,11.533-13.096,22.871-17.598
			c6.26-2.534,12.119-5.073,12.9-5.864c2.93-2.539-1.963-8.994-8.613-11.729c-5.85-2.539-6.426-2.344-9.746,2.153
			c-8.418,10.947-10.176,11.924-12.324,6.65c-1.758-5.078,0.977-8.999,8.809-12.119c5.273-1.953,8.008-4.497,8.789-7.822
			c2.158-8.018-3.32-9.189-17.207-3.516c-2.539,0.977-3.516,0.386-3.516-1.563c0-1.558,2.734-3.906,5.859-5.283
			c6.66-2.734,7.832-5.869,2.148-5.869c-6.25,0-16.426,4.307-29.316,12.314c-10.176,6.455-14.863,8.213-25.43,8.994l-12.891,1.177
			l6.836,2.539c9.004,3.325,21.504,15.635,21.504,21.113c0,2.939-2.734,6.445-8.203,10.361
			c-26.016,18.379-35.4,21.309-43.408,13.291c-2.939-2.939-5.078-7.441-5.078-10.166c0-8.022-5.273-18.379-10.366-20.332
			c-2.539-0.981-8.594-1.758-13.491-1.758c-10.747,0.186-12.71-0.781-14.268-8.022c-1.367-6.841-4.897-9.966-17.012-15.635
			c-11.934-5.674-26.782-18.96-30.107-26.978c-6.06-14.473,3.325-22.1,46.523-37.734c17.397-6.436,33.037-13.096,34.399-15.059
			c1.372-1.953,1.963-5.674,1.372-8.599c-1.563-7.427,3.516-11.924,12.515-11.138c7.632,0.581,7.827,1.172,5.078,17.207
			c-1.177,6.255-0.786,7.036,5.874,10.557c11.152,6.064,11.738,8.789,6.055,27.368c-5.469,17.397-6.445,29.321-2.93,31.67
			c3.711,2.153,16.816,1.172,28.535-2.349c9.59-2.939,13.301-5.669,24.043-16.807c13.105-13.486,15.84-15.249,19.355-10.752
			c1.172,1.172,4.102,4.888,6.641,8.018c7.441,8.994,12.715,6.255,20.918-10.752c5.488-11.343,9.961-17.002,22.871-28.535
			c8.789-8.022,16.426-16.04,17.207-17.793c1.758-4.497-6.055-10.752-19.551-15.825c-8.398-3.135-15.43-4.102-30.488-4.102
			c-22.871,0-31.289-2.734-35.977-11.733c-1.758-3.516-2.734-6.65-2.344-7.036c0.586-0.581,6.641,2.148,13.672,6.055
			c7.246,3.911,15.059,6.851,17.402,6.45c3.926-0.581,4.512-1.563,4.102-8.213c-0.781-10.947,3.926-15.635,13.691-14.072
			c12.91,2.148,18.574,6.25,24.648,18.379c6.426,12.715,10.156,16.621,15.059,15.64c3.496-0.581,21.094-24.829,19.336-26.582
			c-0.586-0.591-7.422-0.786-15.449-0.591c-16.621,0.591-23.262-1.753-40.273-13.691c-7.031-4.888-15.234-8.789-20.918-9.771
			c-12.5-2.349-15.059,0.791-4.688,5.864c9.59,4.893,10.742,8.994,2.148,7.432c-8.203-1.768-24.824-13.691-34.785-25.02
			c-4.688-5.273-9.57-9.58-10.957-9.58c-3.32,0-10.156-7.607-11.914-13.281c-0.586-2.354-3.906-5.674-7.227-7.432
			c-5.488-2.729-5.879-3.711-4.688-10.566c1.172-7.036,0.586-8.018-5.879-13.096c-15.449-11.924-23.271-18.77-24.834-21.309
			c-0.786-1.367-0.195-7.822,1.563-14.268c3.32-13.101,3.711-19.556,0.977-23.657c-1.362-2.349-2.344-2.153-5.864,0.981
			c-2.344,2.148-6.06,7.036-8.018,11.138c-8.594,17.002-18.379,19.346-51.807,12.705c-19.746-3.906-26.191-6.055-31.86-10.552
			c-8.408-6.846-17.788-24.248-17.788-33.232c0-15.054,11.533-29.517,25.015-31.289c11.929-1.558,17.598,0.596,26.392,10.176
			c6.25,7.036,9.189,8.789,14.463,8.789c9.189,0,10.171-4.302,3.906-16.421c-6.06-11.323-6.65-17.769-2.153-19.546
			c1.753-0.586,7.822-1.172,13.691-1.172c9.575,0,10.747-0.391,13.291-5.664c2.344-4.316,2.539-6.855,0.781-11.348
			c-2.539-6.836-1.172-13.887,3.906-20.332c3.521-4.102,5.479-4.492,24.053-4.883l20.146-0.391l7.832,6.641
			c7.813,6.66,13.691,8.027,21.68,4.883c2.363-0.977,5.879-0.586,9.199,0.977c7.227,3.73,13.281,3.34,20.137-1.172
			c3.906-2.539,9.18-3.906,15.625-3.906c11.543,0,20.723-3.887,38.32-16.016c9.199-6.25,16.23-9.395,25.02-11.152
			c9.375-1.738,14.082-4.102,20.137-9.57c11.328-10.371,12.5-14.668,6.25-25.215c-2.734-4.883-4.688-9.004-4.297-9.57
			c0.566-0.391,3.906,0.186,7.617,1.172c9.961,2.93,13.281,2.344,8.008-1.387c-3.906-2.715-4.102-3.32-0.977-5.469
			c2.734-1.953,3.906-1.563,7.617,2.734l4.316,4.883l10.352-5.078c5.859-2.93,17.598-6.465,26.191-8.027
			c50.254-9.375,58.066-25.02,28.555-56.875c-6.641-7.031-11.934-13.086-11.934-13.301c-0.195-0.371-0.781-8.984-1.758-19.336
			l-1.367-18.77l-11.348-11.133c-8.398-8.613-14.063-12.324-22.48-15.059c-13.105-4.512-17.793-9.004-22.48-21.523
			c-1.758-5.059-7.422-13.867-12.52-19.746c-5.078-5.859-13.281-15.625-18.379-21.484c-4.883-5.859-10.742-10.762-12.695-10.762
			c-11.738,0.195-17.012-0.781-14.473-2.344c2.344-1.582,2.344-3.125-0.586-10.957c-4.316-11.133-12.324-16.621-24.238-16.621
			c-7.051,0-8.613-0.762-10.176-4.883c-0.977-2.539-4.492-6.055-7.637-7.832c-4.492-2.129-6.641-5.254-8.789-12.5
			c-1.563-5.273-5.078-13.105-8.008-17.402c-4.316-6.445-4.902-8.613-3.125-11.934c1.172-2.148,2.148-4.297,2.148-4.688
			s-7.617-1.758-17.012-3.125c-9.59-1.191-20.137-2.754-23.457-3.32c-5.488-0.801-6.445-0.41-6.445,3.125
			c0,2.148-1.367,3.906-2.93,3.906c-4.316,0-3.73,3.32,1.758,10.371c6.445,8.594,9.57,23.066,7.031,32.246
			c-3.125,11.348-2.344,17.988,3.906,36.367c3.711,11.348,6.855,25.996,8.613,43.008c1.738,14.082,4.082,34.805,5.254,46.133
			c2.344,19.355,2.168,21.309-1.348,28.359c-2.363,5.078-8.828,11.543-18.574,18.965c-12.52,9.375-17.598,14.844-30.898,34.785
			c-17.217,25.215-21.318,33.828-18.198,37.734c0.981,1.172,2.344,8.398,2.939,15.84c0.591,9.375,2.148,15.039,5.078,18.965
			c15.063,20.313,17.603,29.902,10.376,38.887c-3.125,3.906-5.273,4.512-14.678,4.102c-14.658-0.391-20.923,2.949-36.558,19.57
			c-11.733,12.52-13.486,13.672-23.076,15.234c-8.013,1.172-12.114,3.32-17.593,8.398c-9.385,8.809-12.314,9.785-23.457,7.246
			c-8.999-1.973-9.775-1.758-29.712,8.398c-25.22,12.71-34.023,20.518-41.445,35.977c-3.13,6.646-9.575,16.416-14.077,21.895
			c-4.497,5.273-11.538,14.268-15.64,19.746c-6.841,9.189-17.788,17.402-20.132,15.059c-1.958-1.963,3.521-14.272,11.138-24.248
			c15.635-20.728,21.113-30.498,14.272-26.187c-4.106,2.729-36.362,46.724-41.646,57.075c-3.716,7.036-8.213,12.515-13.096,15.439
			c-28.154,17.983-39.487,44.775-34.214,80.938c1.367,8.999,2.344,17.988,2.344,20.142c0,3.906-21.895,38.706-29.712,47.31
			c-2.539,2.539-9.966,8.994-16.606,14.067l-12.119,9.194l17.207,19.351c27.949,31.67,63.931,61.187,102.822,84.253
			c21.313,12.705,51.997,27.954,56.499,27.954c1.167,0,3.906-2.935,5.864-6.646c3.525-6.65,10.166-10.942,16.807-10.942
			c7.822,0,6.855-7.827-1.353-11.538c-3.525-1.753-11.343-1.958-25.229-0.977c-17.393,1.172-20.918,0.771-25.41-2.158l-5.278-3.516
			l7.627-4.502c8.999-5.483,12.515-5.859,12.515-1.563c0,2.729,2.544,2.925,22.095,1.958c11.924-0.596,25.415-1.563,29.917-2.349
			c7.036-0.981,8.018-0.581,10.161,4.097c3.32,7.236,2.935,8.799-1.963,8.799c-4.097,0-4.097,0.19-0.977,3.32
			c3.13,3.13,3.716,3.13,12.114-0.977c8.213-3.906,8.809-4.692,5.859-7.427c-4.102-4.302-2.935-9.385,2.354-10.166
			c4.492-0.596,10.361,5.859,10.361,11.533c0,1.958-3.721,6.65-8.218,10.557l-8.394,7.041l5.474,4.883
			c7.041,6.06,12.119,5.864,17.979-0.195c2.734-3.13,5.088-4.302,5.864-2.925c0.581,0.981,4.893,1.958,9.39,2.148
			c7.427,0,7.817,0.195,3.32,1.963c-6.646,2.734-6.646,2.344-1.958,11.343c4.893,9.575,8.022,11.138,27.959,12.9
			c8.208,0.786,16.421,2.734,18.384,4.307c3.33,2.539,3.135,2.734-1.367,1.753c-2.734-0.391-11.733-1.958-20.327-3.13
			c-18.774-2.734-28.54-6.06-40.664-13.887c-17.983-11.533-26.006,1.177-9.976,16.23c4.502,4.307,9.194,5.869,23.853,8.398
			C564.058,4963.1,606.68,4964.467,646.367,4960.561z M1028.555,4632.338c7.021-26.592,7.021-27.563,0.381-28.931
			c-6.846-1.367-14.072,2.344-21.895,11.343c-5.479,6.445-6.064,8.013-6.064,20.723c0,14.658,2.539,20.728,11.533,28.545
			l5.088,4.497l2.539-7.427C1021.504,4657.158,1025.42,4644.257,1028.555,4632.338z M1042.031,4549.829
			c2.949-39.692,0.391-77.808-8.008-119.067c-2.344-10.938-4.688-20.918-5.664-22.08c-2.354-3.916-12.715,2.539-27.959,17.207
			c-21.123,20.322-21.514,20.918-21.904,55.518c-0.391,29.316-0.391,29.316,4.883,35.386c2.949,3.32,6.25,9.185,7.637,13.091
			c2.344,7.041,8.594,14.077,18.164,19.946c3.145,1.958,7.617,7.822,10.371,13.096c2.734,5.273,7.627,12.9,11.133,16.812
			c5.879,6.65,6.25,6.841,7.627,2.939C1039.297,4580.527,1040.859,4565.668,1042.031,4549.829z"/>
	</g>
</g>
</svg>
