<?xml version="1.0" encoding="utf-8"?>
<!-- Generator: Adobe Illustrator 16.0.3, SVG Export Plug-In . SVG Version: 6.00 Build 0)  -->
<!DOCTYPE svg PUBLIC "-//W3C//DTD SVG 1.1//EN" "http://www.w3.org/Graphics/SVG/1.1/DTD/svg11.dtd">
<svg version="1.1"
	 id="Layer_1" xmlns:ns1="http://sozi.baierouge.fr" xmlns:sodipodi="http://sodipodi.sourceforge.net/DTD/sodipodi-0.dtd" xmlns:inkscape="http://www.inkscape.org/namespaces/inkscape" xmlns:svg="http://www.w3.org/2000/svg" xmlns:dc="http://purl.org/dc/elements/1.1/" xmlns:cc="http://web.resource.org/cc/" xmlns:rdf="http://www.w3.org/1999/02/22-rdf-syntax-ns#"
	 xmlns="http://www.w3.org/2000/svg" xmlns:xlink="http://www.w3.org/1999/xlink" x="0px" y="0px"
	 viewBox="0 0 120 120" enable-background="new 0 0 120 120" xml:space="preserve">
<g>
	<path fill="#231F20" d="M105.674,120.438c7.922,0,14.326-6.428,14.326-14.35V14.776c0-7.922-6.404-14.349-14.326-14.349H14.359
		C6.437,0.427,0.01,6.854,0.01,14.776v91.31c0,7.922,6.427,14.35,14.349,14.35h91.314L105.674,120.438L105.674,120.438z"/>
	<path d="M14.359,2.859c-6.579,0-11.92,5.35-11.92,11.92v91.309c0,6.572,5.342,11.93,11.92,11.93h91.316
		c6.558,0,11.892-5.355,11.892-11.93V14.776c0-6.571-5.334-11.92-11.892-11.92H14.361L14.359,2.859z"/>
</g>
<path fill="#FFFFFF" d="M25.347,23.148l20.2,5.501l11.216-7.778l3.9,0.949l-11.109,7.8l61.23,16.785L106.3,62.841L44.848,46.103
	c-23.813-7.095-19.472-22.955-19.472-22.955"/>
<path fill="#FFFFFF" d="M78.448,65.188c-0.067-1.373-0.335-2.678-0.782-3.905l27.703,7.7l-0.887,3.416L78.448,65.188L78.448,65.188z
	"/>
<path fill="#FFFFFF" d="M53.287,58.244c0.751-1.093,1.64-2.064,2.649-2.921L9.714,42.567v3.673L53.287,58.244z"/>
<path fill="#FFFFFF" d="M64.723,70.408c2.488,0,4.5-2.018,4.5-4.508c0-2.488-2.01-4.508-4.5-4.508c-2.496,0-4.508,2.018-4.508,4.508
	S62.225,70.408,64.723,70.408z M109.835,98.008c-2.192,0-4.28-0.494-6.14-1.352c-1.934-0.872-4.09-1.396-6.358-1.396
	c-2.253,0-4.424,0.523-6.329,1.396c-1.889,0.857-3.977,1.352-6.17,1.352c-2.191,0-4.279-0.494-6.162-1.352
	c-1.92-0.872-4.082-1.396-6.335-1.396c-2.261,0-4.425,0.523-6.353,1.396c-1.865,0.857-3.975,1.352-6.152,1.352
	c-2.186,0-4.28-0.494-6.154-1.352c-1.935-0.872-4.105-1.396-6.359-1.396c-2.246,0-4.417,0.523-6.329,1.396
	c-1.875,0.857-3.984,1.352-6.162,1.352c-2.185,0-4.279-0.494-6.169-1.352c-1.905-0.872-4.075-1.396-6.329-1.396
	s-4.424,0.523-6.344,1.396c-1.875,0.857-3.984,1.352-6.154,1.352L9.692,61.303l50.546,13.94c-3.482-1.685-5.904-5.214-5.904-9.341
	c0-5.736,4.644-10.388,10.389-10.388c5.723,0,10.381,4.652,10.381,10.388S70.445,76.29,64.723,76.29
	c-0.349,0-0.689-0.075-1.024-0.099l46.069,12.687L109.835,98.008z"/>
</svg>
