<?xml version="1.0" encoding="utf-8"?>
<!-- Generator: Adobe Illustrator 16.0.3, SVG Export Plug-In . SVG Version: 6.00 Build 0)  -->
<!DOCTYPE svg PUBLIC "-//W3C//DTD SVG 1.1//EN" "http://www.w3.org/Graphics/SVG/1.1/DTD/svg11.dtd">
<svg version="1.1"
	 id="Layer_1" xmlns:ns1="http://sozi.baierouge.fr" xmlns:sodipodi="http://sodipodi.sourceforge.net/DTD/sodipodi-0.dtd" xmlns:inkscape="http://www.inkscape.org/namespaces/inkscape" xmlns:svg="http://www.w3.org/2000/svg" xmlns:dc="http://purl.org/dc/elements/1.1/" xmlns:cc="http://web.resource.org/cc/" xmlns:rdf="http://www.w3.org/1999/02/22-rdf-syntax-ns#"
	 xmlns="http://www.w3.org/2000/svg" xmlns:xlink="http://www.w3.org/1999/xlink" x="0px" y="0px"
	 viewBox="0 0 120 120" enable-background="new 0 0 120 120" xml:space="preserve">
<g>
	<path fill="#231F20" d="M105.951,120.807c7.922,0,14.334-6.396,14.334-14.318V15.165c0-7.922-6.412-14.334-14.334-14.334H14.63
		c-7.922,0-14.334,6.412-14.334,14.334v91.323c0,7.922,6.413,14.319,14.334,14.319L105.951,120.807L105.951,120.807z"/>
	<path d="M14.63,3.261c-6.564,0-11.906,5.342-11.906,11.906v91.323c0,6.564,5.342,11.898,11.906,11.898h91.317
		c6.571,0,11.906-5.334,11.906-11.898V15.168c0-6.564-5.335-11.906-11.906-11.906H14.626L14.63,3.261z"/>
	<path fill="#FFFFFF" d="M55.075,42.046c0,3.165-2.883,6.541-6.616,6.541v53.45c0,7.582-10.35,7.582-10.35,0V48.583
		c-3.642,0-6.807-2.808-6.807-7.02V12.159c0-2.557,3.696-2.663,3.696,0.099v21.741h6.663h-0.273V12.091
		c0-2.458,3.467-2.549,3.467,0.091v21.816h6.616V12.091c0-2.42,3.604-2.512,3.604,0.091v29.859V42.046z"/>
	<path fill="#FFFFFF" d="M87.5,19.008V102c0,7.422-10.365,7.314-10.365,0V69.088h-5.525V19.005c0-11.647,15.891-11.647,15.891,0
		V19.008z"/>
</g>
</svg>
