<?xml version="1.0" encoding="utf-8"?>
<!-- Generator: Adobe Illustrator 16.0.3, SVG Export Plug-In . SVG Version: 6.00 Build 0)  -->
<!DOCTYPE svg PUBLIC "-//W3C//DTD SVG 1.1//EN" "http://www.w3.org/Graphics/SVG/1.1/DTD/svg11.dtd">
<svg version="1.1"
	 id="Layer_1" xmlns:ns1="http://sozi.baierouge.fr" xmlns:sodipodi="http://sodipodi.sourceforge.net/DTD/sodipodi-0.dtd" xmlns:inkscape="http://www.inkscape.org/namespaces/inkscape" xmlns:svg="http://www.w3.org/2000/svg" xmlns:dc="http://purl.org/dc/elements/1.1/" xmlns:cc="http://web.resource.org/cc/" xmlns:rdf="http://www.w3.org/1999/02/22-rdf-syntax-ns#"
	 xmlns="http://www.w3.org/2000/svg" xmlns:xlink="http://www.w3.org/1999/xlink" x="0px" y="0px"
	 viewBox="0 0 120 120" enable-background="new 0 0 120 120" xml:space="preserve">
<g>
	<path fill="#231F20" d="M105.951,120.098c7.914,0,14.342-6.412,14.342-14.334V14.45c0-7.922-6.428-14.342-14.342-14.342H14.622
		C6.708,0.107,0.28,6.527,0.28,14.45v91.317c0,7.922,6.427,14.334,14.342,14.334h91.329V120.098z"/>
	<path d="M14.622,2.542c-6.572,0-11.914,5.334-11.914,11.906v91.317c0,6.563,5.342,11.906,11.914,11.906h91.323
		c6.579,0,11.914-5.343,11.914-11.906V14.451c0-6.572-5.334-11.906-11.914-11.906H14.627L14.622,2.542z"/>
	<path fill="#FFFFFF" d="M69.424,75.168c2.164,0,3.894-1.746,3.894-3.9c0-2.148-1.729-3.908-3.894-3.908
		c-2.154,0-3.907,1.76-3.907,3.908C65.517,73.422,67.27,75.168,69.424,75.168z M108.078,103.295
		c-23.122,0.342-47.283-4.082-65.783-18.933c-0.114-0.106-0.167-0.251-0.167-0.418c0-0.356,0.289-0.63,0.623-0.63l18.233,0.023
		c0.873,0,1.609-0.721,1.609-1.609c0-0.668-0.304-1.13-1.018-1.486l-16.479-7.873c-0.311-0.189-0.523-0.523-0.523-0.926
		c0-0.289,0.122-0.554,0.311-0.759c0,0,20.086-17.749,63.193-17.362V103.295L108.078,103.295z"/>
	<path fill="#FFFFFF" d="M99.268,14.789c-14.272,0.159-28.25,6.253-43.928,19.107c-0.585-0.159-1.875-0.501-1.875-0.501
		c-2.488,0-4.514,2.019-4.514,4.5c0,0,0.175,0.842,0.28,1.358c-0.477,0.449-12.664,11.884-12.664,11.884L25.792,61.289
		c-1.009,0.926-2.314,1.389-3.688,1.328c-1.358-0.068-2.611-0.66-3.521-1.662c-0.88-0.979-1.313-2.208-1.313-3.43
		c0-1.389,0.554-2.77,1.654-3.771c0,0,0.812-0.456,1.427-0.804c0.129,0.918,0.508,3.741,0.508,3.741l8.787-11.192l-9.69,3.3
		c-2.558,0.88-3.604,2.17-3.65,2.223c-3.551,3.21-3.825,8.841-0.546,12.476c3.3,3.643,8.938,3.9,12.573,0.607l0.099-0.122
		l10.214-9.721c0,0,12.611-11.928,13.021-12.324c0.607,0.167,1.799,0.463,1.799,0.463c2.482,0,4.492-2.018,4.492-4.508
		c0,0-0.113-0.66-0.205-1.13C72.915,24.29,86.18,18.371,99.463,18.219c2.725-0.03,4.909,0.334,8.49,1.093l0.736,0.167v-3.552
		l-0.478-0.106c-3.7-0.79-6.139-1.063-8.946-1.033H99.268z"/>
</g>
</svg>
