<?xml version="1.0" encoding="utf-8"?>
<!-- Generator: Adobe Illustrator 16.0.3, SVG Export Plug-In . SVG Version: 6.00 Build 0)  -->
<!DOCTYPE svg PUBLIC "-//W3C//DTD SVG 1.1//EN" "http://www.w3.org/Graphics/SVG/1.1/DTD/svg11.dtd">
<svg version="1.1"
	 id="Layer_1" xmlns:ns1="http://sozi.baierouge.fr" xmlns:sodipodi="http://sodipodi.sourceforge.net/DTD/sodipodi-0.dtd" xmlns:inkscape="http://www.inkscape.org/namespaces/inkscape" xmlns:svg="http://www.w3.org/2000/svg" xmlns:dc="http://purl.org/dc/elements/1.1/" xmlns:cc="http://web.resource.org/cc/" xmlns:rdf="http://www.w3.org/1999/02/22-rdf-syntax-ns#"
	 xmlns="http://www.w3.org/2000/svg" xmlns:xlink="http://www.w3.org/1999/xlink" x="0px" y="0px"
	 viewBox="0 0 120 120" enable-background="new 0 0 120 120" xml:space="preserve">
<g>
	<path fill="#231F20" d="M105.674,120.438c7.922,0,14.326-6.428,14.326-14.35V14.776c0-7.922-6.404-14.349-14.326-14.349H14.359
		C6.437,0.427,0.01,6.854,0.01,14.776v91.31c0,7.922,6.427,14.35,14.349,14.35h91.314V120.438z"/>
	<path d="M14.359,2.859c-6.579,0-11.92,5.35-11.92,11.92v91.309c0,6.572,5.342,11.93,11.92,11.93h91.316
		c6.558,0,11.892-5.357,11.892-11.93V14.776c0-6.571-5.334-11.92-11.892-11.92H14.361L14.359,2.859z"/>
</g>
<g>
	<polygon fill="#FFFFFF" points="67.074,38.943 83.08,8.35 99.072,38.943 	"/>
	<polygon fill="#FFFFFF" points="60.654,63.219 82.848,20.794 105.004,63.219 	"/>
	<polygon fill="#FFFFFF" points="55.373,88.449 82.848,35.927 110.299,88.449 	"/>
	<rect x="77.703" y="84.646" fill="#FFFFFF" width="9.261" height="21.77"/>
</g>
<path fill="#FFFFFF" d="M76.713,66.119c1.18,9.915-4.488,17.412-9.865,22.177c-5.078,1.167-15.168-1.333-16.415,2.267
	c-2.208,6.013,4.342,16.313,4.342,16.313s-15.314,0-23.045,0c2.944-3.979,4.933-8.742,5.522-15.14
	C8.978,103.596,1.021,67.605,17.071,55.503c-2.943-4.524-0.736-13.195,9.064-12.808c4.27-20.298,31.066-14.288,36.08-1.486
	c0.953,2.426,2.135,9.143,2.135,9.143s3.16,1.326,6.402,4.372c0.074,0,0.074,0.08,0.146,0.153
	C73.324,58.315,76.123,61.201,76.713,66.119z M53.741,83.846c17.958,7.496,26.651-17.566,13.916-27.016
	c-2.798-3.279-5.888-3.118-9.573-3.745c2.208-5.071,0.146-8.59-1.618-12.648c-5.894-13.354-34.971-5.931-25.333,8.743
	c0.518,0.78-9.566-2.732-9.274,2.966c-0.736,5.544,3.533,1.799,4.641,7.417c-19.366-0.933-15.314,35.13,4.859,27.714
	c3.679-1.174,4.124-8.59,8.102-9.53C52.051,75.021,48.881,81.82,53.741,83.846z"/>
</svg>
