<?xml version="1.0" encoding="utf-8"?>
<!-- Generator: Adobe Illustrator 16.0.3, SVG Export Plug-In . SVG Version: 6.00 Build 0)  -->
<!DOCTYPE svg PUBLIC "-//W3C//DTD SVG 1.1//EN" "http://www.w3.org/Graphics/SVG/1.1/DTD/svg11.dtd">
<svg version="1.1"
	 id="Layer_1" xmlns:rdf="http://www.w3.org/1999/02/22-rdf-syntax-ns#" xmlns:cc="http://web.resource.org/cc/" xmlns:dc="http://purl.org/dc/elements/1.1/" xmlns:svg="http://www.w3.org/2000/svg" xmlns:inkscape="http://www.inkscape.org/namespaces/inkscape" xmlns:sodipodi="http://sodipodi.sourceforge.net/DTD/sodipodi-0.dtd" xmlns:ns1="http://sozi.baierouge.fr"
	 xmlns="http://www.w3.org/2000/svg" xmlns:xlink="http://www.w3.org/1999/xlink" x="0px" y="0px"
	 viewBox="0 0 120 120" enable-background="new 0 0 120 120" xml:space="preserve">
<g>
	<path fill="#231F20" d="M105.674,120.438c7.922,0,14.326-6.428,14.326-14.35V14.776c0-7.922-6.404-14.349-14.326-14.349H14.359
		C6.437,0.427,0.01,6.854,0.01,14.776v91.31c0,7.922,6.427,14.35,14.349,14.35h91.314V120.438L105.674,120.438z"/>
	<path d="M14.359,2.859c-6.579,0-11.92,5.35-11.92,11.92v91.309c0,6.572,5.342,11.93,11.92,11.93h91.316
		c6.558,0,11.892-5.356,11.892-11.93V14.776c0-6.571-5.334-11.92-11.892-11.92H14.361L14.359,2.859z"/>
</g>
<path fill="#FFFFFF" d="M36.839,12.641c3.84,0.708,8.22,1.944,12.06,3.384c7.74,2.928,15.551,7.513,20.675,12.132
	c0.445,0.409,6.732,6.457,13.98,13.44l13.188,12.72l-0.707,0.732c-0.685,0.696-7.704,8.1-8.028,8.46
	c-0.132,0.144-1.393-1.056-7.823-7.404c-4.225-4.176-7.717-7.584-7.777-7.584c-0.059,0-1.512,1.404-3.239,3.132l-3.132,3.121
	l-0.672-0.324l-0.672-0.336l-6.097,6.024c-3.348,3.301-7.152,7.068-8.436,8.364c-1.285,1.296-9.457,9.431-18.156,18.095
	l-15.816,15.733l-3.744-3.757l-3.744-3.743l23.988-23.905l23.977-23.903l-0.432-0.744c-0.24-0.408-0.432-0.768-0.432-0.816
	c0-0.048,1.849-1.98,4.116-4.308c2.256-2.315,4.308-4.512,4.548-4.872c0.732-1.068,0.828-2.268,0.264-3.384
	c-0.743-1.464-6.384-6.66-10.667-9.828c-5.34-3.948-12.012-7.308-19.08-9.588c-0.456-0.144-0.888-0.312-0.936-0.36
	c-0.18-0.168,0.264-0.84,0.552-0.84C34.739,12.281,35.747,12.449,36.839,12.641z"/>
<path fill="#FFFFFF" d="M85.727,88.709c2.508,1.332,4.584,2.436,4.608,2.46c0.024,0.036,0.504,1.776,1.056,3.876l1.02,3.815
	l-1.223,3.276c-1.009,2.7-1.285,3.324-1.537,3.48c-1.523,0.924-2.195,1.428-2.76,2.1l-0.648,0.768l-1.932-0.564
	c-1.068-0.311-2.291-0.672-2.724-0.803l-0.78-0.24l-1.08,0.624c-0.588,0.336-1.296,0.743-1.56,0.888l-0.504,0.288l-0.433-0.336
	c-0.359-0.265-0.516-0.312-0.863-0.265c-0.24,0.049-0.528,0.156-0.637,0.253c-0.324,0.288-0.792-0.013-1.355-0.888
	c-0.42-0.637-0.648-0.84-1.225-1.141c-0.972-0.492-2.136-0.492-3.119-0.012l-0.672,0.324l-1.801-1.465
	c-0.996-0.804-1.788-1.523-1.764-1.596s0.336-1.439,0.696-3.048l0.636-2.903h0.672h0.685l0.563-0.828l0.563-0.816l0.564,0.048
	c0.313,0.036,0.853,0.108,1.2,0.155c0.432,0.084,0.72,0.072,0.924-0.023c0.312-0.145,0.324-0.156,0.36-0.756
	c0.012-0.204,0.119-0.793,0.239-1.32c0.145-0.66,0.216-1.548,0.24-2.868l0.024-1.919l3.036-2.004l3.035-2.004l0.973,0.516
	C80.747,86.068,83.23,87.389,85.727,88.709z"/>
<path fill="#FFFFFF" d="M103.979,97.301c1.656,0.432,3.108,0.84,3.24,0.888c0.156,0.06,0.769,1.032,1.56,2.425
	c0.721,1.283,1.381,2.436,1.464,2.579c0.145,0.228,0.049,0.313-1.739,1.524c-2.616,1.752-2.893,2.148-2.904,4.188
	c0,1.033-0.024,1.176-0.204,1.188c-0.12,0-1.235,0.097-2.496,0.217l-2.279,0.216l-2.28-1.355l-2.28-1.368l-0.132-1.885l-0.144-1.896
	l1.044-0.996c0.563-0.552,1.332-1.224,1.692-1.5c0.863-0.672,1.14-1.164,1.128-2.004c0-0.372-0.097-0.828-0.217-1.056
	c-0.228-0.444-0.228-0.444,0.564-1.381c0.396-0.443,0.672-0.672,0.792-0.635C100.895,96.484,102.335,96.869,103.979,97.301z"/>
<path fill="#FFFFFF" d="M58.859,101.021c1.008,0.276,1.428,0.433,1.404,0.552c-0.144,0.601,0.516,1.693,1.116,1.836
	c0.24,0.061,0.3,0.156,0.3,0.433s-0.084,0.396-0.372,0.54c-0.552,0.288-1.272,0.984-1.572,1.523
	c-0.168,0.301-0.336,0.456-0.457,0.42c-0.095-0.023-1.031-0.42-2.064-0.875l-1.895-0.828v-0.637c0-1.439,1.188-3.636,1.848-3.432
	C57.311,100.602,58.067,100.805,58.859,101.021z"/>
</svg>
