<?xml version="1.0" encoding="utf-8"?>
<!-- Generator: Adobe Illustrator 16.0.3, SVG Export Plug-In . SVG Version: 6.00 Build 0)  -->
<!DOCTYPE svg PUBLIC "-//W3C//DTD SVG 1.1//EN" "http://www.w3.org/Graphics/SVG/1.1/DTD/svg11.dtd">
<svg version="1.1"
	 id="Layer_1" xmlns:ns1="http://sozi.baierouge.fr" xmlns:sodipodi="http://sodipodi.sourceforge.net/DTD/sodipodi-0.dtd" xmlns:inkscape="http://www.inkscape.org/namespaces/inkscape" xmlns:svg="http://www.w3.org/2000/svg" xmlns:dc="http://purl.org/dc/elements/1.1/" xmlns:cc="http://web.resource.org/cc/" xmlns:rdf="http://www.w3.org/1999/02/22-rdf-syntax-ns#"
	 xmlns="http://www.w3.org/2000/svg" xmlns:xlink="http://www.w3.org/1999/xlink" x="0px" y="0px"
	 viewBox="0 0 120 120" enable-background="new 0 0 120 120" xml:space="preserve">
<g>
	<path fill="#231F20" d="M15.199-0.122C6.958-0.122,0.25,6.609,0.25,14.85v90.147c0,8.249,6.708,14.964,14.949,14.964h90.155
		c8.256,0,14.964-6.715,14.964-14.964V14.853c0-8.24-6.708-14.971-14.964-14.971H15.195L15.199-0.122z"/>
	<path d="M15.199,2.307c-6.905,0-12.521,5.63-12.521,12.543v90.147c0,6.913,5.615,12.536,12.521,12.536h90.155
		c6.913,0,12.535-5.623,12.535-12.536V14.853c0-6.913-5.622-12.543-12.535-12.543H15.195L15.199,2.307z"/>
	<path fill="#FFFFFF" d="M52.906,25.284c-4.341,0-7.846,3.467-7.846,7.732c0,4.279,3.505,7.74,7.846,7.74
		c4.317,0,7.824-3.46,7.824-7.74C60.729,28.751,57.223,25.284,52.906,25.284z"/>
	<path fill="#FFFFFF" d="M92.66,40.581c-0.297-1.669-1.662-2.617-1.746-2.679L44.854,7.535l-4.279,6.2
		c-0.796,1.222-0.448,2.846,0.774,3.642c1.214,0.805,2.838,0.478,3.635-0.744l2.504-3.582l37.411,24.684l-30.649,5.517
		c-2.17,0.364-3.742,2.534-3.256,4.659l6.67,25.785L36.09,106.053c-1.29,2.207-0.508,5.039,1.722,6.305
		c2.253,1.282,5.107,0.502,6.405-1.707c0,0,22.499-33.836,22.583-34.049c0,0,1.16,4.697,1.16,4.72l-3.375,25.386
		c-0.426,2.527,1.289,4.887,3.839,5.312c2.55,0.426,4.97-1.268,5.396-3.779l3.49-26.11c0.106-0.669-0.029-2.133-0.182-2.777
		l-7.695-30.575l20.018-3.604C91.59,44.794,93.039,42.73,92.66,40.581L92.66,40.581z"/>
</g>
</svg>
