<?xml version="1.0" encoding="utf-8"?>
<!-- Generator: Adobe Illustrator 16.0.3, SVG Export Plug-In . SVG Version: 6.00 Build 0)  -->
<!DOCTYPE svg PUBLIC "-//W3C//DTD SVG 1.1//EN" "http://www.w3.org/Graphics/SVG/1.1/DTD/svg11.dtd">
<svg version="1.1"
	 id="Layer_1" xmlns:ns1="http://sozi.baierouge.fr" xmlns:sodipodi="http://sodipodi.sourceforge.net/DTD/sodipodi-0.dtd" xmlns:inkscape="http://www.inkscape.org/namespaces/inkscape" xmlns:svg="http://www.w3.org/2000/svg" xmlns:dc="http://purl.org/dc/elements/1.1/" xmlns:cc="http://web.resource.org/cc/" xmlns:rdf="http://www.w3.org/1999/02/22-rdf-syntax-ns#"
	 xmlns="http://www.w3.org/2000/svg" xmlns:xlink="http://www.w3.org/1999/xlink" x="0px" y="0px"
	 viewBox="0 0 120 120" enable-background="new 0 0 120 120" xml:space="preserve">
<g>
	<path fill="#231F20" d="M105.494,120.243c7.914,0,14.342-6.405,14.342-14.319v-91.32c0-7.914-6.426-14.342-14.342-14.342H14.177
		c-7.922,0-14.349,6.427-14.349,14.342v91.324c0,7.914,6.427,14.318,14.349,14.318h91.317V120.243z"/>
	<path d="M14.177,2.676c-6.572,0-11.914,5.364-11.914,11.928v91.323c0,6.541,5.342,11.877,11.914,11.877h91.317
		c6.578,0,11.92-5.335,11.92-11.877v-91.32c0-6.564-5.342-11.928-11.92-11.928H14.176L14.177,2.676z"/>
	<path fill="#FFFFFF" d="M98.287,51.713l-4.689-0.873l-2.73,5.402c0.455,0.091,0.902,0.144,1.373,0.144
		C95.156,56.387,97.598,54.415,98.287,51.713z M76.376,54.347l17.946-18.592l-0.516,4.841l8.817,5.904
		c1.495,0.804,2.019,2.701,1.161,4.173c-0.638,1.161-1.943,1.73-3.18,1.487l-0.706-0.137c-0.857,3.438-3.961,5.972-7.665,5.972
		c-0.735,0-1.418-0.091-2.086-0.281l-6.707,13.704l-0.023,18.758c0,1.639-1.305,2.936-2.921,2.936c-1.608,0-2.914-1.297-2.914-2.936
		V70.973H62.785l-2.634,4.529l5.524,13.204c0.782,1.396,0.311,3.179-1.084,3.983c-1.404,0.782-3.18,0.312-3.984-1.092L54.15,76.354
		v-4.812l-2.892,4.522v14.113c0,1.641-1.306,2.937-2.944,2.937c-1.608,0-2.914-1.298-2.914-2.937V73.886l2.413-3.771V57.291
		L45.4,60.963v10.668h-4.606V60.842c0-3.583,2.898-6.497,6.488-6.497h29.093V54.347z"/>
	<polygon fill="#FFFFFF" points="20.2,49.103 10.692,52.738 10.692,43.511 105.426,7.42 105.426,16.618 29.025,45.741 
		29.048,99.409 105.426,99.409 105.426,108.248 20.2,108.248 	"/>
</g>
</svg>
