<?xml version="1.0" encoding="utf-8"?>
<!-- Generator: Adobe Illustrator 16.0.3, SVG Export Plug-In . SVG Version: 6.00 Build 0)  -->
<!DOCTYPE svg PUBLIC "-//W3C//DTD SVG 1.1//EN" "http://www.w3.org/Graphics/SVG/1.1/DTD/svg11.dtd">
<svg version="1.1"
	 id="Layer_1" xmlns:ns1="http://sozi.baierouge.fr" xmlns:sodipodi="http://sodipodi.sourceforge.net/DTD/sodipodi-0.dtd" xmlns:inkscape="http://www.inkscape.org/namespaces/inkscape" xmlns:svg="http://www.w3.org/2000/svg" xmlns:dc="http://purl.org/dc/elements/1.1/" xmlns:cc="http://web.resource.org/cc/" xmlns:rdf="http://www.w3.org/1999/02/22-rdf-syntax-ns#"
	 xmlns="http://www.w3.org/2000/svg" xmlns:xlink="http://www.w3.org/1999/xlink" x="0px" y="0px"
	 viewBox="0 0 120 120" enable-background="new 0 0 120 120" xml:space="preserve">
<g>
	<path fill="#231F20" d="M104.941,120.612c7.922,0,14.342-6.397,14.342-14.319V14.968c0-7.922-6.42-14.334-14.342-14.334H13.615
		c-7.914,0-14.319,6.412-14.319,14.334v91.323c0,7.922,6.405,14.319,14.319,14.319h91.326V120.612z"/>
	<path d="M13.615,3.064c-6.556,0-11.891,5.342-11.891,11.906v91.323c0,6.572,5.334,11.906,11.891,11.906h91.324
		c6.578,0,11.914-5.334,11.914-11.906V14.968c0-6.564-5.335-11.906-11.914-11.906H13.613L13.615,3.064z"/>
	<path fill="#FFFFFF" d="M50.803,23.371c3.817,0,6.905-3.081,6.905-6.875c0-3.825-3.088-6.905-6.905-6.905
		c-3.794,0-6.875,3.081-6.875,6.905C43.928,20.29,47.009,23.371,50.803,23.371z"/>
	<path fill="#FFFFFF" d="M101.998,43.214l-7.301-1.396l-4.25,8.445c0.691,0.159,1.404,0.235,2.133,0.235
		C97.113,50.499,100.91,47.418,101.998,43.214z M12.293,57.473c0-5.601,4.53-10.153,10.13-10.153h21.361V31.977
		c0-3.817,3.081-6.898,6.905-6.898c3.817,0,6.898,3.081,6.898,6.898v2.375l10.176,2.603c1.775,0.41,2.914,2.185,2.512,3.961
		c-0.402,1.806-2.186,2.921-3.984,2.52l-8.704-2.042v5.927h10.245l28.029-29.002l-0.834,7.543l13.803,9.174
		c2.277,1.306,3.104,4.25,1.807,6.526c-1.025,1.821-3.066,2.701-4.986,2.345l-1.115-0.205c-1.328,5.372-6.184,9.333-11.951,9.333
		c-1.139,0-2.246-0.167-3.294-0.448L78.827,73.947v29.306c0,2.512-2.063,4.554-4.575,4.554s-4.554-2.042-4.554-4.554V73.275H46.623
		l-4.128,7.064l8.636,20.587c1.26,2.208,0.47,4.978-1.708,6.214c-2.208,1.252-4.978,0.471-6.237-1.707l-10.077-23.76v-7.565
		l-4.508,7.095v22.052c0,2.512-2.042,4.554-4.554,4.554s-4.576-2.042-4.576-4.554v-25.47l3.771-5.903V51.91l-3.748,5.736v16.625
		h-7.209V57.472L12.293,57.473z"/>
</g>
</svg>
