<?xml version="1.0" encoding="utf-8"?>
<!-- Generator: Adobe Illustrator 16.0.3, SVG Export Plug-In . SVG Version: 6.00 Build 0)  -->
<!DOCTYPE svg PUBLIC "-//W3C//DTD SVG 1.1//EN" "http://www.w3.org/Graphics/SVG/1.1/DTD/svg11.dtd">
<svg version="1.1"
	 id="Layer_1" xmlns:ns1="http://sozi.baierouge.fr" xmlns:sodipodi="http://sodipodi.sourceforge.net/DTD/sodipodi-0.dtd" xmlns:inkscape="http://www.inkscape.org/namespaces/inkscape" xmlns:svg="http://www.w3.org/2000/svg" xmlns:dc="http://purl.org/dc/elements/1.1/" xmlns:cc="http://web.resource.org/cc/" xmlns:rdf="http://www.w3.org/1999/02/22-rdf-syntax-ns#"
	 xmlns="http://www.w3.org/2000/svg" xmlns:xlink="http://www.w3.org/1999/xlink" x="0px" y="0px"
	 viewBox="0 0 120 120" enable-background="new 0 0 120 120" xml:space="preserve">
<g>
	<path fill="#231F20" d="M105.674,120.438c7.922,0,14.326-6.428,14.326-14.35V14.776c0-7.922-6.404-14.349-14.326-14.349H14.359
		C6.437,0.427,0.01,6.854,0.01,14.776v91.31c0,7.922,6.427,14.35,14.349,14.35h91.314V120.438L105.674,120.438z"/>
	<path d="M14.359,2.859c-6.579,0-11.92,5.35-11.92,11.92v91.309c0,6.572,5.342,11.93,11.92,11.93h91.316
		c6.558,0,11.892-5.356,11.892-11.93V14.776c0-6.571-5.334-11.92-11.892-11.92H14.361L14.359,2.859z"/>
</g>
<path fill="#FFFFFF" d="M17.27,32.117c1.613-4.608,5.3-7.604,9.447-7.604c4.032,0,7.718,2.88,9.331,7.372l0,0
	c1.383,3.227,4.146,5.185,7.258,5.185l0,0l0,0c3.11,0,5.875-1.958,7.257-5.185l0,0c1.613-4.492,5.3-7.257,9.331-7.257
	c4.032,0,7.604,2.765,9.331,7.143l0,0c1.27,3.226,4.264,5.299,7.488,5.299l0,0c2.996,0,5.876-2.073,7.258-5.414l0,0
	c1.729-4.378,5.299-7.143,9.332-7.143c4.031,0,7.604,2.88,9.33,7.258c0.23,0.691,0,1.382-0.574,1.728
	c-0.117,0.115-0.347,0.115-0.461,0.115c-0.347,0-0.807-0.23-0.922-0.807c-1.383-3.456-4.264-5.76-7.373-5.76
	s-5.99,2.188-7.373,5.646l0,0l0,0c-1.729,4.146-5.414,6.797-9.217,6.797l0,0c-4.031,0-7.718-2.65-9.33-6.797l0,0l0,0
	c-1.383-3.457-4.264-5.761-7.373-5.761c-3.226,0-6.105,2.304-7.488,5.875l0,0l0,0c-1.729,4.032-5.3,6.566-9.102,6.566l0,0
	c-3.916,0-7.372-2.534-9.101-6.566l0,0l0,0c-1.267-3.571-4.262-5.875-7.487-5.875s-6.221,2.304-7.488,5.99
	c-0.23,0.807-0.576,1.037-1.037,1.037c-0.115,0-0.229,0-0.461-0.115C17.386,33.614,17.04,32.808,17.27,32.117z"/>
<path fill="#FFFFFF" d="M93.303,43.062c-3.916,0-7.604,2.764-9.332,7.142l0,0c-1.382,3.226-4.262,5.415-7.258,5.415l0,0
	c-3.225,0-6.105-2.074-7.488-5.3l0,0c-1.727-4.377-5.299-7.143-9.331-7.143c-4.031,0-7.718,2.88-9.331,7.258l0,0
	c-1.382,3.226-4.146,5.185-7.257,5.185l0,0l0,0c-3.111,0-5.875-1.959-7.258-5.185l0,0c-1.613-4.492-5.299-7.372-9.331-7.372
	c-4.147,0-7.834,2.994-9.447,7.603c-0.229,0.691,0,1.383,0.576,1.729c0.115,0.114,0.231,0.114,0.461,0.114
	c0.461,0,0.807-0.345,1.037-0.806c1.268-3.687,4.263-5.991,7.488-5.991s6.105,2.305,7.487,5.875l0,0l0,0
	c1.729,4.033,5.3,6.566,9.101,6.566l0,0c3.803,0,7.373-2.533,9.102-6.566l0,0l0,0c1.267-3.57,4.263-5.875,7.488-5.875
	c3.109,0,6.105,2.189,7.373,5.761l0,0l0,0c1.612,4.147,5.299,6.797,9.33,6.797l0,0c3.803,0,7.488-2.649,9.217-6.797l0,0l0,0
	c1.383-3.456,4.264-5.646,7.373-5.646s6.105,2.189,7.373,5.76c0.229,0.462,0.575,0.808,0.922,0.808c0.114,0,0.344,0,0.461-0.116
	c0.574-0.346,0.805-1.036,0.574-1.728C101.021,45.941,97.334,43.062,93.303,43.062z"/>
<path fill="#FFFFFF" d="M93.303,61.493c-3.916,0-7.604,2.764-9.332,7.142l0,0c-1.382,3.227-4.262,5.414-7.258,5.414l0,0
	c-3.225,0-6.105-2.072-7.488-5.299l0,0c-1.727-4.377-5.299-7.143-9.331-7.143c-4.031,0-7.718,2.882-9.331,7.259l0,0
	c-1.382,3.226-4.146,5.183-7.257,5.183l0,0l0,0c-3.111,0-5.875-1.957-7.258-5.183l0,0c-1.613-4.493-5.299-7.373-9.331-7.373
	c-4.147,0-7.834,2.996-9.447,7.604c-0.229,0.689,0,1.381,0.576,1.728c0.115,0.114,0.231,0.114,0.461,0.114
	c0.461,0,0.807-0.344,1.037-0.807c1.268-3.688,4.263-5.99,7.488-5.99s6.105,2.305,7.487,5.875l0,0l0,0
	c1.729,4.031,5.3,6.566,9.101,6.566l0,0c3.803,0,7.373-2.535,9.102-6.566l0,0l0,0c1.267-3.57,4.263-5.875,7.488-5.875
	c3.109,0,6.105,2.188,7.373,5.762l0,0l0,0c1.612,4.146,5.299,6.797,9.33,6.797l0,0c3.803,0,7.488-2.651,9.217-6.797l0,0l0,0
	c1.383-3.457,4.264-5.646,7.373-5.646s6.105,2.189,7.373,5.762c0.229,0.461,0.575,0.807,0.922,0.807c0.114,0,0.344,0,0.461-0.115
	c0.574-0.346,0.805-1.037,0.574-1.729C101.021,64.373,97.334,61.493,93.303,61.493z"/>
<path fill="#FFFFFF" d="M93.303,80.04c-3.916,0-7.604,2.767-9.332,7.144l0,0c-1.382,3.226-4.262,5.414-7.258,5.414l0,0
	c-3.225,0-6.105-2.074-7.488-5.3l0,0c-1.727-4.378-5.299-7.144-9.331-7.144c-4.031,0-7.718,2.881-9.331,7.259l0,0
	c-1.382,3.226-4.146,5.185-7.257,5.185l0,0l0,0c-3.111,0-5.875-1.959-7.258-5.185l0,0c-1.613-4.493-5.299-7.373-9.331-7.373
	c-4.147,0-7.834,2.995-9.447,7.603c-0.229,0.691,0,1.383,0.576,1.729c0.115,0.114,0.231,0.114,0.461,0.114
	c0.461,0,0.807-0.346,1.037-0.807c1.268-3.686,4.263-5.988,7.488-5.988s6.105,2.304,7.487,5.875l0,0l0,0
	c1.729,4.031,5.3,6.564,9.101,6.564l0,0c3.803,0,7.373-2.533,9.102-6.564l0,0l0,0c1.267-3.571,4.263-5.875,7.488-5.875
	c3.109,0,6.105,2.188,7.373,5.759l0,0l0,0c1.612,4.147,5.299,6.797,9.33,6.797l0,0c3.803,0,7.488-2.647,9.217-6.797l0,0l0,0
	c1.383-3.455,4.264-5.644,7.373-5.644s6.105,2.188,7.373,5.76c0.229,0.459,0.575,0.806,0.922,0.806c0.114,0,0.344,0,0.461-0.116
	c0.574-0.344,0.805-1.035,0.574-1.727C101.021,82.92,97.334,80.04,93.303,80.04z"/>
</svg>
