<?xml version="1.0" encoding="utf-8"?>
<!-- Generator: Adobe Illustrator 16.0.3, SVG Export Plug-In . SVG Version: 6.00 Build 0)  -->
<!DOCTYPE svg PUBLIC "-//W3C//DTD SVG 1.1//EN" "http://www.w3.org/Graphics/SVG/1.1/DTD/svg11.dtd">
<svg version="1.1"
	 id="Layer_1" xmlns:ns1="http://sozi.baierouge.fr" xmlns:sodipodi="http://sodipodi.sourceforge.net/DTD/sodipodi-0.dtd" xmlns:inkscape="http://www.inkscape.org/namespaces/inkscape" xmlns:svg="http://www.w3.org/2000/svg" xmlns:dc="http://purl.org/dc/elements/1.1/" xmlns:cc="http://web.resource.org/cc/" xmlns:rdf="http://www.w3.org/1999/02/22-rdf-syntax-ns#"
	 xmlns="http://www.w3.org/2000/svg" xmlns:xlink="http://www.w3.org/1999/xlink" x="0px" y="0px"
	 viewBox="0 0 120 120" enable-background="new 0 0 120 120" xml:space="preserve">
<g>
	<path fill="#231F20" d="M105.475,120.243c7.922,0,14.35-6.419,14.35-14.319V14.588c0-7.9-6.428-14.327-14.35-14.327H14.153
		c-7.922,0-14.334,6.427-14.334,14.327v91.339c0,7.898,6.412,14.318,14.334,14.318h91.321V120.243z"/>
	<path d="M14.153,2.692c-6.564,0-11.906,5.334-11.906,11.898v91.339c0,6.556,5.342,11.891,11.906,11.891h91.323
		c6.572,0,11.906-5.335,11.906-11.891V14.593c0-6.563-5.334-11.898-11.906-11.898H14.155L14.153,2.692z"/>
	<path fill="#FFFFFF" d="M99.579,69.902v14.417h7.61V62.77H22.063V31.582c0-2.086-1.67-3.794-3.779-3.794
		c-2.086,0-3.772,1.708-3.772,3.794v52.738h7.55V69.902h77.513H99.579z"/>
	<path fill="#FFFFFF" d="M33.685,46.781c3.786,0,6.845-3.058,6.845-6.853c0-3.771-3.058-6.829-6.845-6.829
		c-3.779,0-6.837,3.058-6.837,6.829C26.847,43.723,29.905,46.781,33.685,46.781z"/>
	<path fill="#FFFFFF" d="M107.311,57.101l-0.022-9.417c-0.022-2.982-2.542-5.046-5.456-5.402l-53.738-5.366
		c-0.106-0.022-0.205-0.068-0.296-0.068c-1.867,0-3.369,1.517-3.369,3.369v10.146H30.375c-1.882,0-3.384,1.517-3.384,3.369
		c0,1.875,1.502,3.37,3.384,3.37L107.311,57.101L107.311,57.101z"/>
</g>
</svg>
