<?xml version="1.0" encoding="utf-8"?>
<!-- Generator: Adobe Illustrator 21.0.2, SVG Export Plug-In . SVG Version: 6.00 Build 0)  -->
<svg version="1.2" baseProfile="tiny"
	 id="Layer_1" xmlns:cc="http://web.resource.org/cc/" xmlns:dc="http://purl.org/dc/elements/1.1/" xmlns:inkscape="http://www.inkscape.org/namespaces/inkscape" xmlns:ns1="http://sozi.baierouge.fr" xmlns:rdf="http://www.w3.org/1999/02/22-rdf-syntax-ns#" xmlns:sodipodi="http://sodipodi.sourceforge.net/DTD/sodipodi-0.dtd" xmlns:svg="http://www.w3.org/2000/svg"
	 xmlns="http://www.w3.org/2000/svg" xmlns:xlink="http://www.w3.org/1999/xlink" x="0px" y="0px" width="120px" height="120px" viewBox="0 0 120 120"
	 overflow="scroll" xml:space="preserve">
<g>
	<path fill="#231F20" d="M105.7,120c7.9,0,14.3-6.4,14.3-14.3V14.3C120,6.4,113.6,0,105.7,0H14.4C6.5,0,0.1,6.4,0.1,14.3v91.3
		c0,7.9,6.4,14.3,14.3,14.3L105.7,120L105.7,120L105.7,120z"/>
	<path d="M14.4,2.4C7.8,2.4,2.5,7.8,2.5,14.3v91.3c0,6.6,5.3,11.9,11.9,11.9h91.3c6.6,0,11.9-5.4,11.9-11.9V14.3
		c0-6.6-5.3-11.9-11.9-11.9L14.4,2.4L14.4,2.4z"/>
</g>
<path fill="#231F20" d="M63.4,62.7C63.3,62.7,63.3,62.7,63.4,62.7L63,62.6c-0.4,1.2-1.6,2.2-3,2.2c-1.4,0-2.6-0.9-3-2.1l-0.3,0.1
	c0,0-0.1,0-0.1,0c-0.2,0-0.3-0.1-0.3-0.3c0,0,0-0.1,0-0.1l0.2-1.5c0-0.1,0.1-0.2,0.3-0.2c0.1,0,0.2,0,0.2,0.1l1.1,1c0,0,0,0,0.1,0.1
	c0.1,0.1,0.1,0.3-0.1,0.4c0,0-0.1,0-0.1,0l-0.3,0.1c0.3,0.8,0.9,1.3,1.8,1.5l0-4.9c-0.4-0.2-0.7-0.6-0.7-1c0-0.6,0.5-1.1,1.1-1.1
	c0.6,0,1.1,0.5,1.1,1.1c0,0.4-0.3,0.8-0.7,1l0,4.9c0.8-0.2,1.4-0.7,1.7-1.5l-0.3-0.1c0,0-0.1,0-0.1,0c-0.1-0.1-0.2-0.3-0.1-0.4
	c0,0,0,0,0.1-0.1l1.1-1c0.1-0.1,0.1-0.1,0.2-0.1c0.1,0,0.3,0.1,0.3,0.2l0.2,1.5c0,0,0,0,0,0.1C63.7,62.5,63.5,62.7,63.4,62.7z"/>
<circle fill="#231F20" cx="60" cy="57.9" r="0.4"/>
<path fill="#231F20" d="M103.2,85.4c-0.4,0-0.8-0.1-1.2-0.2l-3.4-1.1c-5.3,16.2-20.6,28-38.6,28s-33.3-11.7-38.6-27.9l-3.4,1.1
	c-0.4,0.1-0.8,0.2-1.2,0.2c-2.3,0-4.1-1.9-4.1-4.1c0-0.3,0-0.7,0.1-1L15.9,61c0.3-1.8,1.9-3.2,3.8-3.2c1.1,0,2.2,0.5,2.9,1.3
	l14.3,13.4c0.3,0.2,0.5,0.4,0.7,0.7c1.4,1.8,1,4.4-0.9,5.8c-0.4,0.3-0.7,0.4-1.1,0.6L32,80.8c3.5,9.9,12.3,17.4,22.9,19.3l0-63.5
	c-5.1-2.2-8.7-7.2-8.7-13c0-7.8,6.3-14.1,14.1-14.1c7.8,0,14.1,6.3,14.1,14.1c0,5.8-3.5,10.9-8.6,13l0,63.4
	c10.4-2.1,18.8-9.5,22.2-19.2l-3.6-1.2c-0.4-0.2-0.8-0.3-1.1-0.6c-1.8-1.4-2.2-4-0.9-5.8c0.2-0.3,0.4-0.5,0.7-0.7l14.3-13.4
	c0.7-0.8,1.8-1.3,2.9-1.3c1.9,0,3.5,1.4,3.8,3.2l3.1,19.3c0.1,0.3,0.1,0.6,0.1,1C107.4,83.6,105.5,85.4,103.2,85.4z"/>
<path fill="#FFFFFF" d="M104.2,61c-0.4-1.8-1.9-3.2-3.8-3.2c-1.1,0-2.2,0.5-2.9,1.3L83.2,72.5c-0.2,0.2-0.5,0.4-0.7,0.7
	c-1.3,1.8-1,4.4,0.9,5.8c0.4,0.3,0.7,0.4,1.1,0.6l3.6,1.2c-3.5,9.8-11.9,17.2-22.2,19.2l0-63.4c5.1-2.2,8.6-7.2,8.6-13
	c0-7.8-6.3-14.1-14.1-14.1c-7.8,0-14.1,6.3-14.1,14.1c0,5.8,3.6,10.9,8.7,13l0,63.5C44.3,98.2,35.5,90.7,32,80.8l3.6-1.2
	c0.4-0.2,0.8-0.3,1.1-0.6c1.8-1.4,2.2-4,0.9-5.8c-0.2-0.3-0.4-0.5-0.7-0.7L22.6,59.1c-0.7-0.8-1.8-1.3-2.9-1.3
	c-1.9,0-3.5,1.4-3.8,3.2l-3.1,19.3c-0.1,0.3-0.1,0.6-0.1,1c0,2.3,1.9,4.1,4.1,4.1c0.4,0,0.8-0.1,1.2-0.2l3.4-1.1
	c5.3,16.2,20.6,27.9,38.6,27.9s33.3-11.7,38.6-28l3.4,1.1c0.4,0.1,0.8,0.2,1.2,0.2c2.3,0,4.1-1.9,4.1-4.1c0-0.3,0-0.7-0.1-1
	L104.2,61z"/>
<path fill="#231F20" d="M60,17.8c-3.2,0-5.8,2.6-5.8,5.8c0,3.2,2.6,5.8,5.8,5.8c3.2,0,5.8-2.6,5.8-5.8C65.8,20.4,63.3,17.8,60,17.8z
	"/>
</svg>
