<?xml version="1.0" encoding="utf-8"?>
<!-- Generator: Adobe Illustrator 16.0.3, SVG Export Plug-In . SVG Version: 6.00 Build 0)  -->
<!DOCTYPE svg PUBLIC "-//W3C//DTD SVG 1.1//EN" "http://www.w3.org/Graphics/SVG/1.1/DTD/svg11.dtd">
<svg version="1.1"
	 id="Layer_1" xmlns:ns1="http://sozi.baierouge.fr" xmlns:sodipodi="http://sodipodi.sourceforge.net/DTD/sodipodi-0.dtd" xmlns:inkscape="http://www.inkscape.org/namespaces/inkscape" xmlns:svg="http://www.w3.org/2000/svg" xmlns:dc="http://purl.org/dc/elements/1.1/" xmlns:cc="http://web.resource.org/cc/" xmlns:rdf="http://www.w3.org/1999/02/22-rdf-syntax-ns#"
	 xmlns="http://www.w3.org/2000/svg" xmlns:xlink="http://www.w3.org/1999/xlink" x="0px" y="0px"
	 viewBox="0 0 120 120" enable-background="new 0 0 120 120" xml:space="preserve">
<g>
	<path fill="#231F20" d="M105.674,120.438c7.922,0,14.326-6.428,14.326-14.35V14.776c0-7.922-6.404-14.349-14.326-14.349H14.359
		C6.437,0.427,0.01,6.854,0.01,14.776v91.31c0,7.922,6.427,14.35,14.349,14.35h91.314V120.438L105.674,120.438z"/>
	<path d="M14.359,2.859c-6.579,0-11.92,5.35-11.92,11.92v91.309c0,6.572,5.342,11.93,11.92,11.93h91.316
		c6.558,0,11.892-5.355,11.892-11.93V14.776c0-6.571-5.334-11.92-11.892-11.92H14.361L14.359,2.859z"/>
</g>
<g>
	<path fill="#FFFFFF" d="M79.795,16.91l-0.041,2.488c0,0.194,0.081,0.398,0.244,0.612l0.205,0.214l0.265,0.143h0.052
		c0.144,0,0.215-0.082,0.265-0.132l0.03-0.031l0.113-0.398c0.01-0.051,0.029-0.082,0.039-0.112l0.143,0.153l0.216,0.459
		c0.215,0.326,0.47,0.397,0.643,0.397c0.175,0,0.347-0.071,0.552-0.225l0.643-0.683c0.092-0.071,0.133-0.082,0.133-0.082
		c0.01,0.01,0.072,0.062,0.112,0.327v0.112c0.093,0.531,0.347,0.806,0.755,0.806c0.123,0,0.256-0.021,0.408-0.082l0.734-0.327
		l0.233-0.336l0.011,0.01c0.307,0.347,0.928,0.521,1.836,0.521c0.499,0,0.54-0.449,0.563-0.612l-0.031-0.602v-0.021l0.122,0.061
		l0.255,0.479l0.193,0.184c0.266,0.408,0.644,0.612,1.152,0.612c0.418,0,0.674-0.051,0.838-0.153l0.295-0.449l0.121-0.602
		c0.032-0.224,0.164-0.408,0.276-0.531c0.408-0.489,0.326-0.887,0.192-1.122c-0.143-0.316-0.438-0.582-0.998-0.877l-1.418-0.52
		l-1.377-0.132c-0.308,0.03-0.582,0.132-0.948,0.367l-1.531,1.041c-0.028,0-0.04,0.01-0.05,0.01c-0.012,0-0.053,0-0.063-0.092
		l-0.01-0.041c-0.133-0.275-0.357-0.643-0.785-0.643c-0.145,0-0.287,0.041-0.438,0.112l-0.826,0.684
		c-0.071-0.051-0.192-0.194-0.377-0.521l-0.349-0.754l-0.029-0.041c-0.174-0.194-0.5-0.327-0.948-0.388
		c-0.082-0.01-0.133-0.021-0.174-0.03l0.897-0.786c0.162-0.235,0.121-0.5-0.082-0.643c-0.367-0.377-0.907-0.571-1.643-0.571l0,0
		l-0.928,0.061l-0.082,0.021c-0.275,0.143-0.266,0.541,0.02,1.377L79.795,16.91z"/>
	<path fill="#FFFFFF" d="M70.186,23.376c0.316,0.643,0.256,1.122-0.203,1.561c-0.102,0-0.356-0.214-0.418-0.275l-0.571-0.592
		c-0.224-0.306-0.562-0.235-0.703,0.194c-0.11,0.316-0.123,0.571-0.021,0.785c0.295,0.459,0.5,0.745,0.732,0.989l0.889,0.592
		c0.397,0.204,0.644,0.429,0.826,0.745l0.459,0.857c0.194,0.306,0.5,0.479,0.867,0.479c0.031,0,0.07,0,0.08,0
		c0.266,0,0.43-0.112,0.49-0.336l0.011-0.051l-0.286-0.592c0.418,0.469,0.857,0.398,1.102-0.204l0.449-1.448
		c0.163-0.418,0.144-0.816-0.051-1.163c-0.225-0.347-0.611-0.541-1.111-0.541c-0.052,0-0.092,0-0.123,0
		c-0.172,0-0.225-0.051-0.233-0.143l0.847-1.683c0.234-0.418,0.133-0.693-0.052-0.806c-0.326-0.214-0.724-0.163-1.172,0.194
		l-0.316,0.255c-0.01,0-0.021,0.01-0.041,0.01c-0.011,0-0.03,0-0.071-0.062c-0.244-0.254-0.734-0.336-1.672-0.295H69.82
		l-0.051,0.041c-0.193,0.173-0.144,0.51-0.029,0.765L70.186,23.376z"/>
	<path fill="#FFFFFF" d="M99.338,31.465c-0.021,0.01-0.031,0.01-0.051,0.021l-0.979,0.255c-0.041,0-0.063,0-0.082-0.01
		c0.021-0.041,0.082-0.133,0.254-0.275l0.5-0.316l0.408-0.295l0.031-0.031c0.122-0.153,0.051-0.377-0.174-0.582
		c-0.193-0.194-0.387-0.306-0.572-0.306h-0.08c-0.092,0-0.215,0.041-0.623,0.245l-0.408,0.03c-0.039-0.071-0.082-0.224-0.082-0.459
		c-0.049-0.306-0.233-0.51-0.479-0.51l-0.488,0.173c0-0.01,0.01-0.01,0.01-0.021l0.5-0.724c0.041-0.102,0.029-0.204-0.03-0.286
		c-0.093-0.132-0.285-0.234-0.603-0.286l-0.795-0.102l-0.552,0.663c-0.052,0.072-0.103,0.133-0.133,0.174l-0.296-0.888l-0.021-0.041
		c-0.132-0.163-0.285-0.255-0.438-0.255c-0.307,0-0.51,0.316-0.633,0.541c-0.021,0.041-0.051,0.062-0.041,0.062
		c0,0-0.021-0.01-0.051-0.051c-0.134-0.173-0.123-0.224-0.111-0.234l0.429-0.469c0.151-0.224,0.296-0.479,0.173-0.724l-0.623-1.122
		c-0.102-0.163-0.367-0.275-0.867-0.357c-0.672-0.092-0.773-0.204-0.785-0.204l-0.029-0.031c-0.417-0.295-0.815-0.255-1.192,0.143
		c-0.317,0.347-0.46,0.714-0.418,1.102l0.029,0.489l-0.062,0.204l-0.254-0.571c-0.063-0.102-0.267-0.418-0.582-0.418
		c-0.174,0-0.337,0.092-0.479,0.265l-0.552,0.541c-0.02,0-0.03,0-0.041,0c-0.082,0-0.151-0.153-0.192-0.398
		c-0.031-0.275,0.071-0.704,0.308-1.286c0.161-0.377,0.151-0.683,0.102-0.887l-0.582-1.663L87.67,22.52
		c-0.275-0.316-0.693-0.469-1.193-0.429c-0.479,0.041-0.99,0.245-1.449,0.582c-0.366,0.255-0.53,0.49-0.53,0.724
		c0.011,0.173,0.112,0.336,0.328,0.469c0.143,0.092,0.202,0.153,0.243,0.184c-0.01,0-0.021,0.01-0.041,0.021l-0.562,0.031
		l-0.346,0.091l-0.062,0.031c-0.285,0.194-0.438,0.429-0.438,0.673c0,0.347,0.296,0.724,0.896,1.142l0.112,0.143
		c-0.01,0.01-0.021,0.01-0.021,0.01c-0.664,0.132-0.795,0.51-0.795,0.785c0,0.214,0.061,0.418,0.213,0.673l0.336,0.388
		c0.205,0.255,0.257,0.622,0.145,1.02l-0.775,0.021c-0.01-0.031-0.01-0.061,0-0.082c0.021-0.051,0.104-0.092,0.176-0.123
		l0.377-0.163v-0.357l-0.663-0.867c-0.255-0.306-0.429-0.591-0.479-0.785c0-0.082,0-0.194,0.062-0.388l0.123-0.52l-0.5-0.694
		c-0.052-0.418,0.03-0.765,0.255-1.04c0.51-0.694,0.785-1.254,0.814-1.642c0.021-0.245-0.021-0.428-0.143-0.541
		c-0.102-0.102-0.254-0.143-0.406-0.143c-0.42-0.071-0.807,0.102-1.287,0.388c-0.479,0.286-0.906,0.684-1.367,1.254
		c-0.377,0.49-0.682,1.367-0.928,2.622c-0.051,0.133,0.051,0.255,0.194,0.438l0.204,0.275l-0.204,0.164
		c-0.185,0.061-0.367,0.153-0.367,0.306c-0.082,0.836,0.04,1.051,0.144,1.143c0.062,0.061,0.144,0.082,0.184,0.082
		c0.581,0.092,1.122,0.296,1.54,0.561c0.204,0.163,0.429,0.347,0.541,0.5l-0.062,0.041h-0.623c-0.071,0-0.133,0-0.192,0
		c-0.255,0-0.603,0.021-0.726,0.225c-0.051,0.071-0.071,0.204,0.062,0.377c0.276,0.449,0.612,0.755,1.01,0.908
		c0.46,0.225,0.919,0.133,1.203-0.234c0.054-0.061,0.093-0.092,0.113-0.112c0.021,0.03,0.051,0.102,0.082,0.254l0.192,0.51
		l0.215,0.336l4.091,0.521l0.602,0.367l0.285-0.132l-0.091-0.521c-0.032-0.132-0.042-0.214-0.053-0.275l1.185,0.53l0.755-0.041
		l0.051-0.061c0.389-0.49-0.184-0.999-0.652-1.336l-0.672-0.52c-0.012-0.01-0.012-0.01-0.021-0.01
		c0.113,0.041,0.275,0.122,0.49,0.234l1.58,1.153l0.123,0.388c0.041,0.163,0.162,0.377,0.611,0.438
		c0.377,0.03,0.674,0.234,0.93,0.652c0.143,0.225,0.203,0.408,0.224,0.541l-0.233,0.041c-0.205,0-0.685,0-0.705,0.316
		c-0.123,0.377-0.123,0.602,0,0.755c0.093,0.102,0.234,0.153,0.418,0.153c0.357,0,0.715-0.194,1.134-0.489
		c0,0,0.173,0.02,0.622,0.54l0.906,1.153l0.267,0.582l0.233,0.949c0.082,1.071-0.162,1.234-0.266,1.254l-0.173,0.03l0.03,0.153
		c0.01,0.041,0.031,0.173-0.367,0.418c-0.377,0.204-0.622,0.418-0.725,0.581l-0.021,0.041c-0.052,0.214,0.082,0.479,0.428,0.806
		c0.408,0.408,0.439,0.561,0.419,0.582c-0.041,0-0.082-0.011-0.133-0.031L93.992,41.4l-0.713,0.316
		c-0.123,0.082-0.256,0.204-0.316,0.357c-0.041-0.063-0.102-0.112-0.164-0.163c-0.152-0.153-0.295-0.225-0.469-0.225h-0.01
		l-0.592-0.092c-0.063-0.01-0.123-0.01-0.162-0.01c-0.072,0-0.287,0-0.39,0.133c-0.041,0.051-0.071,0.143,0,0.295
		c0.031,0.042,0.041,0.062-0.122,0.184c-0.111,0.071-0.203,0.123-0.275,0.153c-0.092,0.051-0.162,0.082-0.193,0.143
		c-0.234,0.286-0.275,0.561-0.102,0.826c0.143,0.205,0.396,0.368,0.754,0.47l0.949,0.123l0.643-0.215l0.744-0.03l0.378,0.041
		l0.04-0.01c0.113-0.041,0.164-0.092,0.186-0.143c0.051-0.102,0-0.204-0.053-0.316c-0.03-0.041-0.051-0.062-0.061-0.082h0.295
		c0.234,0,0.49,0.194,0.703,0.551l0.308,0.51l0.438,0.428l0.041,0.031c0.53,0.286,0.57,0.449,0.57,0.5v0.245
		c0,0.184,0.04,0.316,0.184,0.469c0.377,0.357,1.071,0.795,2.021,1.275c0.745,0.367,1.53,0.684,2.243,0.918
		c0.174,0.051,0.307,0.071,0.429,0.071c0.226,0,0.327-0.102,0.356-0.163c0.113-0.184,0-0.479-0.377-0.949l-0.815-0.897l-0.683-0.561
		c-0.308-0.163-0.449-0.397-0.408-0.632l0.061-0.123c0.051,0.021,0.103,0.041,0.133,0.071l0.367,0.418l0.172-0.143
		c0.063,0.051,0.123,0.122,0.205,0.204l0.918,0.775l0.604,0.377l0.447,0.397l0.693,0.347l-0.184-0.49
		C97.318,43.45,96.176,36.361,99.338,31.465z"/>
	<path fill="#FFFFFF" d="M111.006,61.943c-0.061-0.094-0.111-0.227-0.039-0.521l0.029-0.723c-0.041-0.256-0.255-0.419-0.541-0.419
		c-0.04,0-0.07,0-0.111,0.01l-0.378,0.052c0-0.021,0.011-0.052,0.021-0.102c0.093-0.174,0.103-0.316,0.041-0.429
		c-0.051-0.082-0.133-0.133-0.213-0.153c-0.276-0.091-0.563-0.091-0.826-0.03c0.214-0.071,0.396-0.185,0.457-0.337
		c0.072-0.316-0.418-0.551-0.896-0.734l-1.765-0.398c0-0.082,0.029-0.245,0.102-0.561c0-0.184-0.184-0.408-0.5-0.612l-0.806-0.5
		l-0.336-0.296c0.123-0.01,0.418,0.01,0.528-0.132c0.145-0.194,0.113-0.551-0.51-1.805l-1.408-2.407
		c-0.336-0.694-0.672-1.01-1.02-1.01c-0.184,0-0.346,0.081-0.499,0.254l-0.815,1.632l-0.051,0.285l-0.052-0.152L101,52.702
		l-0.234,0.5c-0.111,0.225-0.233,0.347-0.336,0.357l-0.418-0.204l-0.479-0.347c-0.396-0.214-0.796-0.204-1.152,0.062
		c0-0.01-0.01-0.031-0.01-0.051c-0.031-0.102-0.031-0.153-0.031-0.163c0.093,0,0.175-0.042,0.235-0.092
		c0.111-0.123,0.111-0.316,0-0.755l-0.338-0.806c-0.062-0.204-0.03-0.367,0.093-0.561l0.255-0.531c0.081-0.265,0-0.521-0.245-0.684
		c-0.121-0.071-0.377-0.173-0.692-0.265c-0.408-0.132-0.664-0.286-0.808-0.377c-0.323-0.174-0.569-0.398-0.764-0.673
		c-0.326-0.51-0.622-0.786-0.949-0.908l-0.856-0.041l-0.713,0.184c-0.267,0.021-0.5-0.021-0.785-0.153
		c-0.531-0.286-0.949-0.418-1.348-0.418c-0.429,0-0.938,0.164-0.938,0.877c-0.051,0.234,0.121,0.438,0.265,0.582l0.163,0.357
		l-0.273,0.632c-0.236,0.479-0.267,0.622-0.205,0.745l0.051,0.051c0.103,0.072,0.234,0.143,0.408,0.173l0.244,1.051l-0.213,0.541
		l-0.318,0.521c-0.232,0.479-0.254,0.908-0.069,1.326c0.112,0.286,0.356,0.632,0.685,0.979l0.643,0.805
		c0.152,0.255,0.203,0.521,0.152,0.775c-0.052,0.316-0.295,0.694-0.795,1.224c-0.49,0.53-0.918,0.826-1.429,1.01l-0.428,0.194
		c-0.195,0.112-0.226,0.296-0.226,0.428l0.111,0.327l0.266,0.285c0.172,0.225,0.244,0.51,0.244,0.969
		c0,0.306,0.062,0.674,0.174,1.021l0.133,0.725l-0.234,0.674l-0.367-0.041l-0.051,0.021c-0.122,0.051-0.307,0.193-0.234,0.539v0.164
		c-0.062-0.021-0.152-0.082-0.265-0.174c-0.226-0.266-0.408-0.551-0.479-0.785c-0.062-0.205-0.308-0.315-0.582-0.418
		c-0.285-0.063-0.377-0.133-0.388-0.153l-0.02-0.04c-0.357-0.551-0.5-1.163-0.431-1.867l-0.039-1.091
		c-0.053-0.49-0.185-1.153-0.733-1.153c-1.39,0-2.693-0.336-3.856-0.989l-1.673-1.255c-0.551-0.326-1.11-0.5-1.663-0.5
		c-0.101,0-0.203,0-0.326,0.021l-0.562,0.143h-0.367c-0.062-0.071-0.202-0.326-0.296-0.918c-0.109-0.755-0.307-1.173-0.611-1.326
		l-0.561-0.112c-0.204-0.051-0.348-0.123-0.438-0.225c-0.205-0.204-0.297-0.5-0.297-0.969c-0.029-0.378,0-0.827,0.092-1.306
		l0.062-0.174c0.153-0.408,0.265-0.754,0.438-1.03c0.315-0.479,0.521-0.582,0.592-0.592l0.133-0.041l-0.01-0.132
		c-0.031-0.418,0.172-0.795,0.611-1.163l0.57-0.367l0.104-0.408l-0.063-0.061c-0.069-0.072-0.11-0.133-0.151-0.163l0.725-0.082
		c0.285-0.031,0.498-0.173,0.602-0.418c0.102-0.315-0.285-0.663-1.162-1.03L77.3,44.554c-0.03-0.01-0.051-0.031-0.082-0.041
		c0.163,0.03,0.429,0.102,0.867,0.265c0.806,0.266,1.356,0.409,1.653,0.409c0.039,0,0.07,0,0.07,0l0.111-0.01l0.051-0.051
		c0.123-0.112,0.112-0.397,0.094-0.643c-0.021-0.071-0.031-0.143-0.041-0.194c0.162,0.092,0.347,0.143,0.52,0.143l0,0
		c0.316,0.041,0.57-0.041,0.949-0.266c0.367-0.193,0.582-0.541,0.691-0.795c0.166-0.326,0.227-0.724,0.153-1.061l-0.03-0.143
		l-0.162,0.01c-0.336,0.021-0.652-0.041-0.867-0.164l-1.295-1.071c-0.145-0.091-0.297-0.163-0.459-0.214
		c0.07,0,0.151,0.01,0.233,0.02c0.511,0.123,1.112,0.459,1.642,0.928l0.063,0.062l0.571-0.071l0.774-0.49l0.489-0.683l0.021-0.042
		c0.113-0.346-0.07-0.54-0.254-0.602c-0.215-0.112-0.267-0.184-0.275-0.184c0.029-0.041,0.092-0.092,0.255-0.092
		c0.051,0,0.122,0.01,0.235,0.03c0.162,0,0.324,0.062,0.52,0.215l0.449,0.275l0.102-0.061c0,0,0.041-0.02,0.164-0.02
		c0.111,0,0.254,0.01,0.418,0.041c0.225,0.061,0.408-0.01,0.469-0.082c0.052-0.051,0.103-0.153,0.072-0.316l-0.012-0.041
		l-0.592-0.582c-0.285-0.286-0.336-0.398-0.356-0.418c0.03,0,0.173,0.041,0.489,0.418l0.5,0.53l0.378,0.306l0.04,0.021
		c0.041,0.021,0.092,0.03,0.143,0.03c0.164,0,0.459-0.082,1.123-0.765c0.53-0.633,0.734-1.122,0.611-1.52l-0.244-0.602l-0.377-0.5
		c-0.389-0.469-0.592-0.959-0.592-1.479c-0.012-0.061,0.051-0.133,0.174-0.204c0.02,0.041,0.061,0.102,0.121,0.225l0.336,0.489
		l0.165-0.163c0.325-0.326,0.438-0.724,0.356-1.367l-0.356-0.602l-0.409,0.03l-0.541-0.5c-0.469-0.347-0.865-0.551-1.285-0.643
		l-1.009-0.03l-0.042,0.01c-0.355,0.112-0.529,0.326-0.529,0.612c-0.041,0.275,0.103,0.591,0.418,0.938
		c0.388,0.418,0.459,0.704,0.408,0.816l-0.244,0.061c-0.256,0-0.459,0.103-0.521,0.276l-0.408,1.652
		c-0.224,0.734-0.459,1.041-0.622,1.163c-0.041-0.01-0.133-0.041-0.244-0.143l-0.633-0.53c-0.684-0.796-0.316-1.041-0.174-1.132
		c0.326-0.214,0.469-0.572,0.377-0.99c-0.122-0.357-0.295-0.612-0.551-0.836c-0.275-0.316-0.592-0.429-0.896-0.368
		c-0.338,0.021-0.5,0.296-0.5,0.826c0,0.51-0.113,0.684-0.102,0.704c0,0-0.072-0.031-0.195-0.224l-0.408-0.827
		c-0.133-0.418-0.091-0.582-0.041-0.673c0.133-0.368,0.072-0.643-0.162-0.806L77.678,32.4c-0.062-0.031-0.113-0.051-0.012-0.316
		c0.051-0.123,0.123-0.234,0.316-0.306l0.438-0.408l0.011-0.041c0.051-0.194-0.123-0.438-0.552-0.958
		c-0.541-0.582-0.621-0.796-0.621-0.877c-0.032-0.643-0.187-1.153-0.479-1.602c-0.245-0.306-0.582-0.51-1.123-0.693l-0.04-0.01
		l-0.663,0.041c-0.387,0.081-0.479,0.336-0.52,0.591v0.031l0.172,0.632l-0.102-0.071h-0.063c-0.377,0-0.59,0.326-0.713,0.571
		c-0.215,0.388-0.297,0.704-0.225,0.948c0,0.153,0.111,0.286,0.305,0.449l0.275,0.224c-0.01,0.071-0.04,0.092-0.102,0.133
		l-0.275,0.183l-0.051,0.051c-0.327,0.479-0.021,0.816,0.244,1.02l1.336,0.551c0.57,0.174,1.093,0.337,1.246,0.479l0.05,0.031
		c0.296,0.132,0.438,0.316,0.368,0.489c-0.041,0.092-0.113,0.204-0.194,0.204l-0.767,0.061l-0.049,0.01
		c-0.134,0.051-0.246,0.092-0.287,0.194c-0.021,0.041-0.029,0.103,0.021,0.184l0.307,0.245c0.469,0.234,0.438,0.418,0.428,0.479
		c-0.029,0.225-0.205,0.479-0.52,0.806c-0.512,0.377-0.775,0.663-0.889,0.948l-0.01,0.082c-0.021,0.071-0.051,0.204,0,0.388v0.581
		c0,0.204-0.041,0.429-0.144,0.429c-0.01,0-0.03,0-0.021,0c-0.368-0.164-0.512-0.388-0.479-0.755l0.062-1.122
		c-0.051-0.336-0.336-0.479-0.672-0.592l-1.012-0.123l-0.755,0.173l-0.041,0.051c-0.051,0.061-0.062,0.143-0.03,0.225
		c0.051,0.132,0.227,0.234,0.489,0.316c0.521,0.193,0.815,0.377,0.918,0.602c0.021,0.03,0.021,0.051,0.021,0.061
		c-0.01,0.021-0.082,0.051-0.203,0.051l-0.93-0.449h-2.121l-0.448,0.153l-0.49,0.082c-0.233-0.031-0.562-0.133-1.081-0.327
		l-1.15-0.357l-0.634-0.286c-0.225-0.153-0.53-0.336-0.704-0.336h-0.07l-0.348,0.306l-0.111,0.143
		c-0.726-0.021-1.174,0.102-1.397,0.377c-0.185,0.224-0.194,0.541-0.03,0.938c0.193,0.397,0.254,0.724,0.203,0.989
		c-0.061,0.235-0.121,0.367-0.234,0.449c-0.041,0.021-0.09,0.041-0.11,0.041c-0.013,0-0.041,0-0.082-0.041
		c-0.103-0.153-0.123-0.377-0.041-0.663c0.03-0.296-0.062-0.714-0.651-1.082c-0.398-0.286-0.949-0.449-1.593-0.489h-0.03
		L59.538,36.8l-1.816,0.031c-0.612-0.031-1-0.163-1.112-0.235c-0.061-0.071-0.214-0.255,0.255-0.632l0.041-0.041
		c0.01-0.01,0.102-0.092,0.684-0.132l0.061-0.01c0.194-0.071,0.234-0.193,0.245-0.255c0.031-0.184-0.133-0.388-0.479-0.622
		c-0.377-0.245-0.847-0.52-1.53-0.714c-0.398-0.133-0.959-0.316-1.704-0.459l-1.724-0.51c-0.693-0.234-1.183-0.469-1.54-0.724
		c-0.367-0.296-0.684-0.428-0.938-0.428c-0.194,0-0.459,0.081-0.591,0.428c-0.265,0.541-0.561,0.602-0.766,0.602h-0.02l-0.296-0.143
		c-0.021-0.051-0.01-0.112,0.051-0.204c0.082-0.143,0.143-0.286,0.071-0.418c-0.061-0.092-0.183-0.153-0.315-0.153
		c-0.051,0-0.103,0.01-0.133,0.031c-0.337,0.132-0.571,0.459-0.694,0.989c-0.428-0.082-0.734-0.316-0.928-0.693L45.769,31.1
		c-0.164-0.276-0.316-0.479-0.439-0.643l-0.082-0.102c-0.235-0.204-0.52-0.204-0.612-0.041l-0.021,0.428l0.5,0.867
		c0,0-0.03,0.133-0.571,0.418c-0.214,0.092-0.938,0.418-1.071,0.541l-0.846,0.612c-0.245,0.214-0.479,0.326-0.766,0.346
		c-0.306,0.041-0.632,0.266-0.846,0.582c-0.265,0.337-0.377,0.643-0.347,0.898c-0.011,0.071-0.011,0.132-0.021,0.173l-0.153-0.265
		l-0.336-0.337c-0.184-0.184-0.204-0.234-0.224-0.234l0.693-0.327l2.04-1.571c0.214-0.163,0.49-0.388,0.745-0.754
		c0.071-0.133,0.133-0.296,0.041-0.409c-0.051-0.071-0.183-0.193-0.714,0.021l-1.346,0.612c-0.591,0.296-1,0.5-1.285,0.755
		c-0.031,0.021-0.204,0.123-1.408,0.326c-0.571,0.133-0.897,0.306-1.02,0.561c-0.082,0.174-0.061,0.377,0.071,0.582
		c0.173,0.306,0.133,0.377,0.143,0.377c0,0-0.03,0.02-0.152,0.02c-0.082,0-0.174-0.01-0.235-0.01l-1.397-0.51l-0.979-0.673
		c-0.52-0.388-0.856-0.602-1.183-0.561l-0.582-0.143l-0.092-0.01c-0.244-0.122-0.5-0.295-0.805-0.5l-0.623-0.459
		c-0.224-0.163-0.571-0.275-0.816-0.275l0,0l-0.306-0.031c-1.612,0.693-3.509,1.102-5.712,1.102c-1.734,0-3.274-0.265-4.641-0.704
		c-1.03,0.428-2.183,0.724-3.438,0.897c-0.296,0.551-0.643,1.061-1.03,1.561c-0.469,0.694-1.041,1.326-1.693,1.907
		c0.163,0.867,0.204,1.754,0.163,2.642c0.031,0.112,0.062,0.224,0.092,0.347c0.102,0.061,0.245,0.112,0.5,0.112h0.01l0.734,0.112
		c0,0-0.01,0.143-0.684,0.428c-0.153,0.061-0.255,0.092-0.377,0.132c0.173,0.918,0.214,1.856,0.152,2.785
		c0.031-0.01,0.072-0.021,0.082-0.021c0.031,0,0.041,0.011,0.041,0c0.051,0.143,0.062,0.531-0.041,1.214
		c-0.143,0.714-0.316,1.05-0.398,1.102c-0.021,0.01-0.051,0.03-0.082,0.041c-0.194,0.673-0.449,1.326-0.765,1.958
		c0.754,2.03,0.958,4.243,0.489,6.354c0.102,0.01,0.214,0.021,0.388-0.041l0.673-0.244l0.337-0.143l0.958,0.387l0.918,0.102
		l-0.041-0.204c0-0.031-0.01-0.051-0.01-0.071l0.112,0.112l0.061,0.011c0.153,0.041,0.418,0,0.582-0.092l0.296-0.071
		c-0.01,0.091-0.031,0.255-0.102,0.521l-0.245,0.968c0,0.235-0.122,0.439-0.408,0.653l-0.653,0.653
		c-0.683,0.153-1.204,0.469-1.52,0.918c-0.123,0.214-0.143,0.377-0.071,0.51c0.01,0.01,0.01,0.031,0.021,0.041l-0.214-0.102
		l-0.653-0.092l-0.602,0.418l-0.49,0.469l0.082,0.173l-0.316-0.275L12.8,58.311l0.062,0.051h-0.255l-0.765,0.286l-0.367,0.286
		c-0.071,0.03-0.194,0.082-0.214,0.194c-0.03,0.132,0.082,0.234,0.092,0.234c0.143,0.214,0.326,0.234,0.429,0.234
		c0.041,0,0.091-0.01,0.132-0.02l0.377-0.316l0.041-0.041c0.03-0.051,0.051-0.071,0.061-0.091c0.245,0.112,0.531,0.071,0.796-0.133
		l0.062-0.041V58.76l-0.011-0.061l0.398,0.112l0.091-0.245l0.5-0.143l0.5-0.357c0.102-0.123,0.194-0.153,0.378-0.153h0.275
		c0.316,0,0.459-0.153,0.459-0.316v-0.082l0.857-0.062l0.53-0.357l0.408-0.551c0.418-0.51,0.795-0.754,1.214-0.785h0.082l1.52-1.52
		c0.602-0.347,1.204-0.734,1.561-1.244l0.021-0.041v-0.041c0-0.072,0-0.174-0.102-0.306l-0.225-0.234
		c-0.123-0.255,0.112-0.418,0.327-0.521l0.153-0.123c0.143-0.123,0.286-0.234,0.418-0.438l0.347-0.664
		c0.265-0.479,0.612-0.816,1.132-1.071l0.469-0.357c0.102-0.102,0.194-0.143,0.265-0.152l0.368,0.194l0.194,0.163
		c-0.021,0-0.042,0.01-0.072,0.01h-0.551l-0.082,0.021c-0.418,0.183-0.745,0.632-1,1.367c-0.183,0.591-0.285,1.112-0.285,1.561
		c0,0.112,0.091,0.194,0.214,0.194c0.133,0,0.316-0.072,1.347-0.969c0.765-0.459,1.061-0.53,1.224-0.53c0,0,0.021,0.03,0.01,0.133
		l-0.041,0.326l0.316-0.174c0.561-0.295,0.5-0.642,0.336-0.877L26.5,50.203l-0.021-0.143c0.112-0.174,0.204-0.398,0.164-0.653
		c-0.011-0.062,0-0.092,0.02-0.092c0.021,0,0.051,0,0.143,0.02c0.122,0.021,0.265,0.061,0.469,0.205l0.541,0.183l0.061,0.01
		c0.174,0,0.275,0.071,0.357,0.133l0.755,0.653c0.152,0.092,0.315,0.112,0.632,0.01c0.031-0.01,0.051-0.02,0.062-0.03
		c0.275,0.316,0.856,0.489,1.866,0.551l0.99,0.092c0.133,0,0.225,0.031,0.234,0.051c0.051,0.296,0.347,0.5,0.765,0.5
		c0.336,0,0.612-0.031,0.897-0.153l0.286-0.041c0,0.01-0.01,0.041-0.03,0.062l-0.102,0.51l0.295,0.296l0.062,0.041
		c0.459,0.163,0.734,0.336,0.949,0.612l0.704,0.551l0.469,0.041l0.418-0.03l0.082-0.021c0.102-0.05,0.153-0.122,0.163-0.204
		c0.011-0.082-0.03-0.153-0.071-0.194c0.276,0.286,0.49,0.408,0.673,0.408s0.388-0.102,0.388-0.612l-0.01-0.102l1.969,3.049
		l0.336,0.775l0.214,0.704l0.958-0.03c0.041,0.041,0.133,0.153,0.255,0.408c0.133,0.286,0.113,0.449,0.102,0.5l-0.051,0.153
		l0.592,0.163c0,0.03-0.01,0.081-0.021,0.152l-0.081,0.276c0.775,0.714,1.417,1.509,1.928,2.376l0,0l0.071-0.01v0.122
		c0.123,0.214,0.235,0.418,0.347,0.644l0.214,0.061l0.071,0.01c-0.03,0.032-0.061,0.063-0.112,0.093l-0.071,0.063
		c0.225,0.479,0.418,0.979,0.571,1.489l0.306,0.039c0.092,0.164,0.306,0.39,0.775,0.541c0.296,0.123,0.521,0.185,0.694,0.185
		c0,0.233,0.071,0.489,0.367,0.684c0.153,0.112,0.336,0.152,0.5,0.122c0.041,0.163,0.143,0.256,0.224,0.307
		c0.143,0.102,0.306,0.123,0.449,0.082c0.01,0.123,0.05,0.244,0.112,0.367h-0.031l0.092,0.103c0.021,0.03,0.051,0.071,0.071,0.102
		l0.388,0.418c0.204,0.603,0.163,1.041-0.123,1.388l-0.122,0.03v-0.01l0.143-0.337c0.092-0.133,0.112-0.255,0.072-0.367
		c-0.031-0.082-0.102-0.143-0.204-0.174l-0.367-0.092l-0.347-0.051l-0.429-0.256h-0.52l-0.041,0.021
		c-0.122,0.07-0.204,0.174-0.214,0.295c-0.041,0.236,0.143,0.551,0.551,0.939l0.102,3.283l-0.184,0.652l0.163,0.46l-0.438,0.714
		c-0.113,0.153-0.071,0.396,0.132,0.674l0.265,0.498c0.041,0.113,0.051,0.215,0.071,0.338c0.011,0.041,0.011,0.092,0.021,0.143
		l-0.112,0.48c-0.245,0.428,0,1.264,0.765,2.569l1.53,2.272l1.03,1.308l1.53,0.958l0.551,0.227l0.377,0.092
		c0.092,0.028,0.286,0.143,0.489,0.631l0.092,0.502h0.153l0.234,0.324l0.01,0.021c0.683,0.11,1.336,0.254,1.948,0.449
		c0.01-0.011,0-0.021,0.01-0.031c0.061-0.071,0.164-0.103,0.286-0.122l0.622,0.063c0.174,0.102,0.337,0.336,0.51,0.643
		c3.092,1.396,5.07,3.887,5.928,6.682l0.143,0.143c0.449,0.306,0.725,0.643,0.814,1.029l0.245,0.775
		c0.082,0.184,0.093,0.367,0.093,0.54l-0.111,0.175l-0.154,0.172l-0.01,0.053c-0.02,0.193,0.164,0.367,0.592,0.539
		c0.234,0.082,0.541,0.267,0.93,0.552c0.273,0.245,0.621,0.407,1.049,0.51c0.369,0.093,0.693,0.236,0.908,0.379l0.826,0.488
		c0.592,0.366,1.541,0.704,2.907,1.04c0.459,0.133,1.009,0.123,1.458,0.011l1.469-0.153c0.439,0.032,0.93,0.267,1.418,0.694
		l0.807,0.767l-0.021-0.145l0.256,0.145l1.296,0.305l-0.021,0.01l0.355,0.104c0.276,0.082,0.521,0.152,0.745,0.215
		c0.847,0.244,1.274,0.365,1.419,0.438c0.039,0.102,0.162,0.193,0.377,0.326l0.674,0.469l0.315,0.613l0.05,0.051l0.104,0.336
		c0.091,0.234,0.387,0.489,0.805,0.684l2.052,1.193v-0.041c0.561,0.307,0.906,0.449,1.12,0.5l0.328-0.029
		c0.04,0.029,0.101,0.062,0.183,0.121l0.53,0.134l0.072-0.052c0.11-0.082,0.11-0.185,0.11-0.256v-0.051l-0.184-0.254l-0.081-0.164
		c0.03-0.021,0.111-0.051,0.276-0.061l0.609-0.275c0.082-0.031,0.164-0.042,0.235-0.042c0.103,0,0.254,0.03,0.396,0.276l0.563,0.795
		v0.01l0.245,0.379l0.47-1.266l-0.326-0.327c-0.256-0.286-0.521-0.448-0.807-0.511l-0.021-0.01l-1.172,0.03l-0.063,0.011
		c-0.5,0.184-0.814,0.336-1.111,0.53c-0.029,0.021-0.051,0.031-0.102,0.031c-0.092,0-0.368-0.052-0.939-0.521l-0.224-0.144
		l-0.815-0.767l-0.103-0.182c-0.194-0.348-0.163-0.898,0.071-1.582l0.274-0.908c0.082-0.233,0.071-0.449-0.021-0.643l0.103-0.051
		l-0.838-0.592l-1.132-0.275l-1.295,0.092h-1.021l-0.254-0.029h-0.01L81.26,98.33c-0.102-0.071-0.121-0.122-0.133-0.162l-0.01-0.031
		l0.01-0.07c0.012-0.112,0.063-0.297,0.266-0.612l0.418-0.897l0.133-0.539L81.979,96l0.021-0.092
		c0.071-0.326,0.051-0.57-0.051-0.756c-0.082-0.162,0-0.365,0.233-0.57l0.408-0.621l-0.021-0.063
		c-0.08-0.234-0.479-0.355-1.174-0.355c-0.08,0-0.162,0-0.265,0.01l-1.571,0.286c-0.314,0.11-0.5,0.356-0.58,0.509l-0.244,0.612
		l-0.174,0.582l-0.408,0.438l-0.797,0.143h-0.732l-0.571,0.162l-0.378,0.072l-0.439-0.571l-0.438,0.03h-0.326l-0.307-0.336
		l-0.266-0.471l-0.029-0.039c-0.582-0.541-0.949-1.103-1.113-1.715c-0.121-0.488-0.01-1.499,0.338-3.081l0.04,0.011l0.062-0.162
		c0.103-0.308,0.093-0.744-0.03-1.347c-0.069-0.419,0.041-0.471,0.103-0.5c0.379-0.143,0.563-0.348,0.551-0.562l0.307-0.063
		c0.563,0,0.979-0.162,1.244-0.529l0.123-0.266c0.072-0.063,0.143-0.092,0.215-0.113l1.203,0.031l1.051-0.061l0,0
		c0.092,0.02,0.266,0.08,0.418,0.133l1.039,0.325l0.715,0.093h0.051c0.043,0,0.072,0,0.104,0c0.093,0,0.316,0,0.388-0.152
		c0.081-0.164-0.102-0.316-0.184-0.389c-0.041-0.031-0.093-0.111-0.052-0.389c0.021-0.143,0.062-0.225,0.144-0.225l1.428-0.062
		l1.438,0.112l0.234,0.316l0.348,0.377l0.488-0.07l0.379-0.205c0.184-0.102,0.367-0.01,0.703,0.275
		c0.246,0.225,0.407,0.551,0.5,1.03c0.071,0.53,0.164,0.917,0.43,1.091l0.855,1.02l0.969,0.961l0.123-0.205
		c0.315-0.489,0.448-1.069,0.367-1.631c-0.031-0.379-0.185-0.817-0.5-1.471l-0.582-1.314c-0.162-0.479-0.162-0.897,0-1.266
		c0.174-0.488,0.479-0.867,0.928-1.132l0.644-0.407l0.622-0.521l0.686-0.346l0.672-0.502c0.052-0.051,0.144-0.121,0.215-0.143
		l0.47-0.163l0.204-0.286l0.021-0.039c0.02-0.082,0.061-0.134,0.11-0.175c0.479-0.225,0.623-0.673,0.438-1.325l-0.205-0.685
		l-0.02-0.08c0.03,0.01,0.051,0.01,0.082,0.021c-1.214-4.998,1.039-10.742,6.782-12.914l0.153-0.185l0.887-0.184l0.256-0.479
		c0.051-0.123,0.081-0.174,0.092-0.193l0.041-0.021c0.611-0.337,1.295-0.479,2.07-0.429c0.846,0.051,1.591,0.082,2.223,0.082
		c1.541,0,2.387-0.164,2.663-0.5l0.54-0.541c0.255-0.225,0.418-0.316,0.602-0.316l0.838-0.164l0.908-0.367
		c0.285-0.133,0.457-0.295,0.5-0.488C111.189,62.32,111.182,62.137,111.006,61.943z"/>
	<path fill="#FFFFFF" d="M92.841,93.949l-1.692-0.621c-0.194-0.255-0.521-0.408-0.93-0.438c-0.365-0.031-0.662-0.094-0.806-0.195
		c-0.642-0.449-1.356-0.674-2.101-0.674c-0.267,0-0.541,0.03-0.797,0.082c-0.888,0.164-1.539,0.521-2.029,1.103l-0.348,0.407
		l1.307-0.377l0.775-0.348c0.479-0.314,0.57-0.234,0.621-0.183l0.194,0.295l0.133,0.051c0.062,0.031,0.144,0.062,0.265,0.062
		c0.448,0,1.215,0.226,2.336,0.684c0.797,0.357,1.215,0.623,1.244,0.797c0.01,0.03,0,0.061-0.021,0.092
		c-0.093,0.071-0.123,0.144-0.103,0.215l0.021,0.051c0.062,0.081,0.245,0.193,1.062,0.193c0.092,0,0.205,0,0.325,0
		c1.062-0.102,1.582-0.164,1.786-0.297c0.061-0.051,0.081-0.123,0.061-0.193C94.125,94.521,93.941,94.328,92.841,93.949z"/>
	<path fill="#FFFFFF" d="M68.482,32.638l0.938,0.184h0.622l0.041-0.123c0.062-0.214-0.071-0.541-0.336-0.856l-0.521-0.725
		l-1.511-0.805c-0.622-0.327-0.948-0.694-0.948-1.071c0-0.398-0.104-0.969-0.315-1.785l-0.347-1.571
		c0-0.449-0.063-0.836-0.185-1.122c-0.133-0.255-0.327-0.479-0.562-0.622l-1.887-0.959l-0.093,0.051
		c-0.438,0.234-0.51,0.836-0.226,1.908l0.308,1.111c0.03,0.133,0.062,0.255,0.093,0.367c0.061,0.225,0.11,0.408,0.11,0.51
		c0,0.214-0.04,0.316-0.051,0.347l-0.429-0.398l-0.367-1.183c-0.103-0.53-0.274-0.908-0.551-1.183
		c-0.356-0.266-0.644-0.398-0.877-0.398l0,0l-0.082-0.01c-0.123,0-0.225,0.051-0.285,0.133c-0.103,0.143-0.071,0.357,0.103,0.693
		c0.11,0.163,0.144,0.265,0.144,0.306h-0.152l-0.398,0.173l-0.041,0.031c-0.234,0.204-0.377,0.296-0.458,0.326L60.2,25.733
		l0.041-0.612c0-0.092,0-0.234-1.153-0.632l-0.081-0.031l-0.49,0.245l-0.286,0.357l-0.153,0.092l-0.336,0.071
		c-0.03-0.01-0.051-0.03-0.051-0.041c-0.051-0.071-0.102-0.316,0.164-1.05c0.061-0.214,0-0.337-0.062-0.418
		c-0.061-0.071-0.183-0.153-0.428-0.153c-0.123,0-0.275,0.021-0.428,0.071c-0.622,0.133-1.265,0.439-1.867,0.877
		c-0.765,0.51-1.265,1.02-1.51,1.551c-0.316,0.724-0.194,1.295,0.388,1.805c0.184,0.164,0.408,0.255,0.724,0.316l1.53,0.439
		c-0.01,0-0.01,0.01-0.02,0.02l-2.02,0.541c-0.337,0.092-0.51,0.234-0.531,0.408c-0.01,0.112,0.041,0.275,0.368,0.429
		c0.428,0.183,0.856,0.224,1.132,0.224h0.01l2.723,0.214c0.796,0.092,1.745,0.286,1.816,0.704c-0.092,0.041-0.449,0.183-1.826,0.285
		l-2.305,0.061c-0.266,0-0.939,0-1.01,0.429c-0.05,0.204,0.031,0.418,0.265,0.724l0.898,0.673l0.867,0.368
		c0.49,0.112,0.826,0.255,1.081,0.428l0.398,0.582l0.632,0.5l1.53,0.062h0.01c0.418-0.031,1.266-0.357,2.734-1.041
		c1.244-0.571,1.631-0.684,1.754-0.693c0.296,0.275,0.715,0.54,1.326,0.847c0.459,0.234,0.917,0.357,1.336,0.357
		c0.133,0,0.266-0.011,0.418-0.041c0.397-0.143,0.714-0.327,0.907-0.449c0.255-0.184,0.397-0.388,0.408-0.582
		c0.092-0.255-0.041-0.439-0.184-0.52l-0.051-0.031l-0.797,0.062L67.9,33.14l-0.154-0.204c-0.021-0.071-0.03-0.153,0.012-0.204
		C67.811,32.607,68.084,32.577,68.482,32.638z"/>
	<path fill="#FFFFFF" d="M54.835,23.591l0.551-0.367c0.102-0.061,0.265-0.123,0.47-0.184L55.967,23l0.051-0.021
		c0.143-0.102,0.306-0.235,0.306-0.459c-0.041-0.204-0.214-0.408-0.489-0.623l-0.623-0.602c-0.204-0.214-0.551-0.326-1.01-0.326
		h-0.826c-0.03,0-0.224-0.051-0.52-0.285c-0.092-0.041-0.184-0.112-0.306-0.194c-0.092-0.061-0.184-0.133-0.296-0.204l-0.51-0.377
		l-2.55,0.153h-0.612l-0.704,0.072l-0.041,0.091c-0.082,0.214-0.082,0.479,0,0.796l0.316,0.826c0.296,0.663,0.255,1.275-0.123,1.765
		c-0.245,0.357-0.408,0.826-0.479,1.367c-0.061,0.561-0.194,0.979-0.398,1.285c-0.132,0.265-0.224,0.53-0.01,0.765l0.52,0.296
		l0.693,0.255c0.174,0.102,0.316,0.286,0.367,0.469c0.082,0.408,0.347,0.806,0.765,1.132c0.204,0.234,0.408,0.347,0.612,0.347
		c0.123,0,0.408-0.051,0.5-0.5c0.112-0.418,0.316-0.479,0.541-0.479l0.469-0.061c0.214-0.051,0.357-0.153,0.439-0.336
		c0.071-0.164,0.081-0.48,0.041-1.071s0.062-0.684,0.102-0.704L54.835,23.591z"/>
	<path fill="#FFFFFF" d="M57.12,18.767c0.234,0.204,0.734,0.316,1.408,0.316h0.449c0.602,0,0.999-0.082,1.214-0.235
		c0.336-0.204,0.774-0.336,1.315-0.397c0.152-0.031,0.297-0.041,0.408-0.041c0.389,0,0.479,0.143,0.51,0.234
		c0.021,0.173-0.428,0.408-0.744,0.551l-1.316,0.428l-0.509,0.397l-0.042,0.051c-0.143,0.265,0.113,0.49,0.235,0.592
		c0.296,0.184,0.775,0.397,1.429,0.397c0.285,0,0.602-0.153,1.08-0.397l1.071-0.755c0.438-0.326,0.726-0.52,0.938-0.633l0.651-0.05
		l0.275,0.183c0.5,0.266,1,0.286,1.418,0.102c0.521-0.193,0.806-0.51,0.969-1.071c0.112-0.377,0.144-0.734,0.112-1.082
		c-0.03-0.367-0.123-0.724-0.286-1.163l-0.356-0.429c-0.091-0.081-0.224-0.183-0.418-0.183c-0.041,0-0.092,0.01-0.092,0.01
		c-0.143,0-0.347,0.03-0.418,0.265l-0.011,0.03l0.041,0.49c0.062,0.153,0.082,0.255,0.082,0.316
		c-0.031-0.01-0.072-0.041-0.134-0.082l-0.897-0.754l-0.062-0.265c-0.377,0.295-0.774,0.561-1.203,0.806
		c0.134,0.286,0.203,0.541,0.113,0.724l-0.084,0.112l-0.306,0.143c-0.233,0.021-0.419,0.021-0.692,0l-0.512-0.173
		c-0.02-0.011-0.04-0.031-0.07-0.042c-1.551,0.623-3.355,0.969-5.427,0.969c-0.143,0-0.286-0.01-0.428-0.02
		C56.824,18.368,56.875,18.603,57.12,18.767z"/>
	<path fill="#FFFFFF" d="M76.418,14.543c0.063,0.102,0.184,0.163,1.479,0.592c0.103,0.041,0.193,0.061,0.276,0.061
		c0.111,0,0.213-0.041,0.295-0.102c0.144-0.132,0.194-0.367,0.162-0.806l-0.172-0.632l-0.338-0.531l-0.57-0.102l-0.774-0.408
		l-0.918,0.03l-0.092,0.021c-0.246,0.133-0.297,0.336-0.123,0.622l0.338,0.439L76.418,14.543z"/>
	<path fill="#FFFFFF" d="M99.369,95.857l-0.113-0.041c-0.102-0.041-0.203-0.07-0.214-0.092l-0.418-0.162
		c-0.071-0.021-0.144-0.041-0.204-0.052c-0.041-0.012-0.104-0.021-0.104,0l-0.062-0.163l-0.203-0.234h-0.366l-0.685-0.266
		c-0.347-0.103-0.487-0.092-0.61,0.01l-0.123,0.041l-0.529,0.072l-0.664-0.052c-0.204-0.052-0.286,0.021-0.326,0.052h-0.234
		l0.193,0.243c0.081,0.113,0.214,0.185,0.389,0.226l0.029,0.01h0.031c0.029,0,0.051,0,0.082,0c0.051,0,0.07,0.012,0.091,0.012
		l-0.021,0.051c-0.031,0.152-0.041,0.264,0,0.377l0.041,0.062c0.092,0.082,0.103,0.133,0.103,0.153l-0.531-0.03l-0.683-0.123
		c-0.041-0.011-0.082-0.011-0.113-0.011c-0.152,0-0.203,0.062-0.244,0.144c-0.01,0.062,0.012,0.112,0.041,0.153
		c0.102,0.203,0.266,0.314,0.459,0.314c0.041,0,0.061,0,0.07-0.01l0.502-0.03l0.702,0.062l0.551,0.031l0.112,0.225
		c0.072,0.133,0.195,0.204,0.356,0.204h0.041l0.04-0.011c0.133-0.052,0.215-0.174,0.286-0.379l0.173-0.305
		c0.03,0.02,0.083,0.051,0.163,0.122c0.153,0.133,0.367,0.021,0.49-0.071l0.03-0.041c0,0,0.062-0.041,0.355-0.041h0.408
		c0.186,0.123,0.357,0.174,0.531,0.185h0.061l0.348-0.234l0.01-0.062c0.021-0.104-0.021-0.174-0.062-0.225
		C99.491,95.889,99.439,95.868,99.369,95.857z"/>
	<path fill="#FFFFFF" d="M101.531,96.031l-0.398,0.092c-0.398-0.102-0.693-0.102-0.814,0.051l-0.133,0.194l0.143,0.336l0.47,0.071
		l0.377-0.092l0.397,0.092l0.326-0.193l0.072-0.234l0.01-0.041C101.98,96.186,101.898,96.041,101.531,96.031z"/>
	<path fill="#FFFFFF" d="M91.402,96.063l-1.133,0.133l-0.011,0.144c-0.011,0.152,0.112,0.267,0.275,0.377l0.521,0.234l0.541-0.134
		l0.907-0.08l-0.551-0.438L91.402,96.063z"/>
	<path fill="#FFFFFF" d="M107.59,60.107c0.102-0.051,0.326-0.132,0.602-0.224c0.144-0.041,0.308-0.102,0.459-0.154
		c0.052-0.01,0.103-0.03,0.162-0.04c-0.213,0.081-0.416,0.203-0.609,0.376c-0.153,0.133-0.337,0.214-0.571,0.255l-0.418,0.092
		C107.264,60.332,107.375,60.229,107.59,60.107z"/>
</g>
</svg>
