<?xml version="1.0" encoding="utf-8"?>
<!-- Generator: Adobe Illustrator 16.0.3, SVG Export Plug-In . SVG Version: 6.00 Build 0)  -->
<!DOCTYPE svg PUBLIC "-//W3C//DTD SVG 1.1//EN" "http://www.w3.org/Graphics/SVG/1.1/DTD/svg11.dtd">
<svg version="1.1"
	 id="Layer_1" xmlns:ns1="http://sozi.baierouge.fr" xmlns:sodipodi="http://sodipodi.sourceforge.net/DTD/sodipodi-0.dtd" xmlns:inkscape="http://www.inkscape.org/namespaces/inkscape" xmlns:svg="http://www.w3.org/2000/svg" xmlns:dc="http://purl.org/dc/elements/1.1/" xmlns:cc="http://web.resource.org/cc/" xmlns:rdf="http://www.w3.org/1999/02/22-rdf-syntax-ns#"
	 xmlns="http://www.w3.org/2000/svg" xmlns:xlink="http://www.w3.org/1999/xlink" x="0px" y="0px"
	 viewBox="0 0 120 120" enable-background="new 0 0 120 120" xml:space="preserve">
<g>
	<g>
		<path fill="#0088CF" d="M105.655,0.03H14.318C6.419,0.03,0,6.435,0,14.356v91.317c0,7.922,6.419,14.348,14.318,14.348h91.339
			c7.893,0,14.319-6.426,14.319-14.348V14.355c0.01-7.922-6.421-14.327-14.317-14.327L105.655,0.03z M117.563,105.678
			c0,6.571-5.343,11.905-11.906,11.905H14.32c-6.556,0-11.89-5.334-11.89-11.905V14.359c0-6.572,5.334-11.906,11.89-11.906h91.339
			c6.564,0,11.906,5.334,11.906,11.906v91.318H117.563z"/>
		<path fill="#0088CF" d="M105.655,2.45H14.318c-6.556,0-11.89,5.334-11.89,11.906v91.317c0,6.571,5.334,11.905,11.89,11.905h91.339
			c6.564,0,11.906-5.334,11.906-11.905V14.355C117.563,7.784,112.222,2.449,105.655,2.45L105.655,2.45z"/>
	</g>
	<path fill="#FFFFFF" d="M58.505,9.166c-4.841,0.516-22.438,8.582-22.954,50.051c-0.546,43.708,18.112,52.906,23,52.814V83.17
		c-4.029,0-4.841-4.387-5.768-13.447c-0.591-6.002-0.782-13.4,0-20.776c0.569-5.167,1.517-10.221,5.744-10.221L58.505,9.161V9.166z"
		/>
	<path fill="#FFFFFF" d="M71.846,112.075c1.875,0,3.202-1.517,3.202-3.225l0.022-0.022c0,0-0.022-22.483-0.022-22.507
		c0-1.775-1.448-3.173-3.202-3.173h-8.18v28.927c0,0,8.156,0.022,8.156,0H71.846L71.846,112.075z"/>
	<path fill="#FFFFFF" d="M71.846,38.73c1.875,0,3.202-1.517,3.202-3.225h0.022c0,0-0.022-23.144-0.022-23.167
		c0-1.775-1.448-3.172-3.202-3.172h-8.18V38.73l8.156,0.03L71.846,38.73L71.846,38.73z"/>
</g>
</svg>
