<?xml version="1.0" encoding="UTF-8" standalone="no"?>
<!-- Generator: Adobe Illustrator 16.0.3, SVG Export Plug-In . SVG Version: 6.00 Build 0)  -->

<svg
   xmlns:dc="http://purl.org/dc/elements/1.1/"
   xmlns:cc="http://creativecommons.org/ns#"
   xmlns:rdf="http://www.w3.org/1999/02/22-rdf-syntax-ns#"
   xmlns:svg="http://www.w3.org/2000/svg"
   xmlns="http://www.w3.org/2000/svg"
   xmlns:sodipodi="http://sodipodi.sourceforge.net/DTD/sodipodi-0.dtd"
   xmlns:inkscape="http://www.inkscape.org/namespaces/inkscape"
   version="1.1"
   id="Layer_1"
   x="0px"
   y="0px"
   viewBox="0.5 0.5 120 120"
   enable-background="new 0.5 0.5 120 120"
   xml:space="preserve"
   sodipodi:docname="POI.svg"
   inkscape:version="0.92.2 (5c3e80d, 2017-08-06)"
   inkscape:export-filename="M:\My Pictures\Map Symbles\Archaeology.png"
   inkscape:export-xdpi="400"
   inkscape:export-ydpi="400"><metadata
     id="metadata13"><rdf:RDF><cc:Work
         rdf:about=""><dc:format>image/svg+xml</dc:format><dc:type
           rdf:resource="http://purl.org/dc/dcmitype/StillImage" /><dc:title></dc:title></cc:Work></rdf:RDF></metadata><defs
     id="defs11"><filter
       style="color-interpolation-filters:sRGB;"
       inkscape:label="Invert"
       id="filter3845"><feColorMatrix
         type="hueRotate"
         values="180"
         result="color1"
         id="feColorMatrix3841" /><feColorMatrix
         values="-1 0 0 0 1 0 -1 0 0 1 0 0 -1 0 1 -0.21 -0.72 -0.07 2 0 "
         result="color2"
         id="feColorMatrix3843" /></filter><inkscape:perspective
       id="perspective5302"
       inkscape:persp3d-origin="372.04724 : 350.78739 : 1"
       inkscape:vp_z="744.09448 : 526.18109 : 1"
       inkscape:vp_y="0 : 1000 : 0"
       inkscape:vp_x="0 : 526.18109 : 1"
       sodipodi:type="inkscape:persp3d" /></defs><sodipodi:namedview
     pagecolor="#ffffff"
     bordercolor="#666666"
     borderopacity="1"
     objecttolerance="10"
     gridtolerance="10"
     guidetolerance="10"
     inkscape:pageopacity="0"
     inkscape:pageshadow="2"
     inkscape:window-width="1920"
     inkscape:window-height="1027"
     id="namedview9"
     showgrid="false"
     inkscape:zoom="2.7812867"
     inkscape:cx="47.822759"
     inkscape:cy="60"
     inkscape:window-x="-8"
     inkscape:window-y="-8"
     inkscape:window-maximized="1"
     inkscape:current-layer="Layer_1" /><g
     style="filter:url(#filter3845)"
     id="g6"><path
       style="fill:#dce0df"
       inkscape:connector-curvature="0"
       d="m 106.174,120.719 c 7.922,0 14.326,-6.428 14.326,-14.35 V 15.057 C 120.5,7.135 114.096,0.708 106.174,0.708 H 14.859 C 6.937,0.708 0.51,7.135 0.51,15.057 v 91.31 c 0,7.922 6.427,14.35 14.349,14.35 h 91.314 z"
       id="path2" /><path
       style="fill:#ffffff"
       inkscape:connector-curvature="0"
       d="M 14.859,3.14 C 8.28,3.14 2.939,8.49 2.939,15.06 v 91.309 c 0,6.572 5.342,11.93 11.92,11.93 h 91.316 c 6.558,0 11.892,-5.355 11.892,-11.93 V 15.057 c 0,-6.571 -5.334,-11.92 -11.892,-11.92 H 14.861 Z"
       id="path4" /></g><g
     id="g4720"
     transform="matrix(10.253018,0,0,-10.253018,71.59971,76.568418)"><path
       inkscape:connector-curvature="0"
       d="m 0,0 c -0.143,0.141 -0.143,0.371 0,0.512 0.141,0.142 0.371,0.142 0.512,0 l 0.724,-0.723 v 1.024 c 0,0.199 0.162,0.363 0.364,0.363 0.199,0 0.363,-0.164 0.363,-0.363 v -1.024 l 0.723,0.723 c 0.142,0.142 0.371,0.142 0.513,0 C 3.342,0.371 3.342,0.141 3.199,0 L 2.477,-0.723 3.5,-0.725 c 0.199,0 0.361,-0.162 0.361,-0.363 0,-0.199 -0.162,-0.363 -0.361,-0.363 H 2.477 l 0.722,-0.723 c 0.143,-0.142 0.143,-0.371 0,-0.514 -0.142,-0.14 -0.371,-0.14 -0.513,0 L 1.965,-1.965 1.963,-2.986 c 0,-0.202 -0.164,-0.364 -0.363,-0.364 -0.202,0 -0.364,0.162 -0.364,0.364 v 1.023 L 0.512,-2.688 c -0.141,-0.14 -0.371,-0.14 -0.512,0 -0.143,0.143 -0.143,0.372 0,0.514 l 0.723,0.723 h -1.024 c -0.199,0 -0.363,0.164 -0.363,0.363 0,0.201 0.164,0.363 0.363,0.363 h 1.024 z"
       style="fill:#ffffff;fill-opacity:1;fill-rule:nonzero;stroke:none"
       id="path4722" /></g><g
     id="g4724"
     transform="matrix(22.156949,0,0,-22.156949,220.0215,6.7923375)"><path
       inkscape:connector-curvature="0"
       d="m -6.9402175,-0.74782556 c 0,0.13767515 -0.1120772,0.24975241 -0.2511361,0.24975241 -0.1390588,0 -0.2518279,-0.11207726 -0.2518279,-0.24975241 V -1.7869616 l -1.4687656,1.46738186 c -0.096857,0.0989324 -0.2566707,0.0989324 -0.3535276,0 -0.098932,-0.0968569 -0.098932,-0.25667076 0,-0.35421948 l 1.4673819,-1.46876558 h -1.0391361 c -0.1376751,0 -0.2504442,-0.1120772 -0.2504442,-0.251136 0,-0.1376752 0.1127691,-0.2511361 0.2504442,-0.2511361 l 1.6444917,0.00138 c 0.065032,0 0.1279894,0.024214 0.1784934,0.072643 0.048428,0.04912 0.072643,0.1134609 0.072643,0.1771098 z"
       style="fill:#ffffff;fill-opacity:1;fill-rule:nonzero;stroke:none;stroke-width:0.69183493"
       id="path4726" /></g></svg>