<?xml version="1.0" encoding="UTF-8" standalone="no"?>
<svg
   xmlns:dc="http://purl.org/dc/elements/1.1/"
   xmlns:cc="http://creativecommons.org/ns#"
   xmlns:rdf="http://www.w3.org/1999/02/22-rdf-syntax-ns#"
   xmlns:svg="http://www.w3.org/2000/svg"
   xmlns="http://www.w3.org/2000/svg"
   xml:space="preserve"
   enable-background="new 0 -1771.511 2272.113 2271.511"
   viewBox="0 -1771.511 9467.138 9464.6288"
   height="500"
   width="500"
   y="0px"
   x="0px"
   id="Layer_1"
   version="1.1"><metadata
     id="metadata9"><rdf:RDF><cc:Work
         rdf:about=""><dc:format>image/svg+xml</dc:format><dc:type
           rdf:resource="http://purl.org/dc/dcmitype/StillImage" /><dc:title></dc:title></cc:Work></rdf:RDF></metadata><defs
     id="defs7"><filter
       id="filter60"
       style="color-interpolation-filters:sRGB;"><feColorMatrix
         id="feColorMatrix56"
         result="color1"
         values="180"
         type="hueRotate" /><feColorMatrix
         id="feColorMatrix58"
         result="color2"
         values="-1 0 0 0 1 0 -1 0 0 1 0 0 -1 0 1 -0.21 -0.72 -0.07 2 0 " /></filter></defs><g
     style="filter:url(#filter60)"
     transform="matrix(4.1670499,0,0,4.1670499,0,-24368.462)"
     id="g14"><path
       id="path27"
       d="m 2000.398,7694.3725 c 149.977,0 271.215,-121.693 271.215,-271.67 v -1728.69 c 0,-149.977 -121.238,-271.65 -271.215,-271.65 H 271.65 c -149.977,0 -271.65,121.674 -271.65,271.65 v 1728.652 c 0,149.977 121.674,271.669 271.65,271.669 h 1728.729 z"
       style="fill:#dce0df" /><path
       id="path29"
       d="m 271.65,5468.4035 c -124.551,0 -225.666,101.285 -225.666,225.666 v 1728.633 c 0,124.42 101.133,225.855 225.666,225.855 h 1728.767 c 124.154,0 225.136,-101.379 225.136,-225.855 v -1728.69 c 0,-124.4 -100.981,-225.666 -225.136,-225.666 H 271.688 Z"
       style="fill:#ffffff" /><path
       id="path3961"
       d="m 1607.957,7533.6285 c -8.991,-4.561 -20.8,-14.326 -26.24,-21.703 -9.238,-12.525 -10.004,-20.866 -11.575,-126.181 -0.958,-64.186 -3.671,-114.753 -6.299,-117.375 -2.978,-2.971 -32.007,22.702 -81.748,72.294 -42.423,42.295 -81.808,79.284 -87.523,82.196 -28.47,14.508 -74.463,0.018 -88.472,-27.873 -9.502,-18.919 -10.973,-48.003 -3.206,-63.409 2.888,-5.727 39.509,-45.075 81.381,-87.439 44.251,-44.771 74.757,-79.239 72.849,-82.31 -2.25,-3.624 -37.244,-5.213 -111.346,-5.058 -93.472,0.197 -110.273,-0.894 -124.413,-8.065 -25.372,-12.868 -36.124,-30.884 -36.188,-60.636 -0.064,-29.752 10.609,-47.814 35.926,-60.792 14.109,-7.232 30.905,-8.395 124.377,-8.604 74.102,-0.165 109.088,-1.906 111.323,-5.54 1.895,-3.08 -28.761,-37.415 -73.205,-81.995 -42.055,-42.183 -78.846,-81.371 -81.758,-87.086 -14.395,-28.248 -0.132,-72.854 28.167,-88.112 18.21,-9.816 47.44,-11.468 63.115,-3.566 5.728,2.888 45.075,39.509 87.439,81.381 44.771,44.251 79.238,74.757 82.311,72.849 3.623,-2.25 5.213,-37.244 5.058,-111.346 -0.255,-121.029 2.011,-131.62 32.515,-152.094 32.74,-21.975 78.649,-9.11 96.978,27.174 7.227,14.306 8.396,31.242 8.604,124.621 0.164,74.102 1.906,109.089 5.539,111.323 3.08,1.895 37.416,-28.76 81.995,-73.205 42.183,-42.055 81.371,-78.846 87.086,-81.758 14.902,-7.594 47.218,-6.6 63.867,1.964 28.035,14.421 42.366,60.447 27.812,89.318 -2.888,5.728 -39.509,45.075 -81.381,87.439 -44.251,44.771 -74.757,79.239 -72.85,82.311 2.251,3.624 37.244,5.213 111.347,5.058 93.378,-0.198 110.319,0.9 124.656,8.064 50.421,25.196 50.574,96.014 0.263,121.428 -14.278,7.212 -31.148,8.396 -122.669,8.6 -92.734,0.206 -106.479,1.196 -109.013,7.839 -2.056,5.391 18.672,29.244 71.253,81.999 40.784,40.918 76.535,79.072 79.447,84.787 7.595,14.902 6.602,47.217 -1.963,63.867 -14.421,28.035 -60.447,42.366 -89.318,27.811 -5.728,-2.888 -45.075,-39.509 -87.439,-81.381 -44.771,-44.251 -79.239,-74.757 -82.311,-72.849 -3.624,2.25 -5.213,37.244 -5.058,111.346 0.197,93.379 -0.9,110.32 -8.064,124.656 -17.181,34.38 -56.93,47.468 -91.269,30.052 z M 326.943,6632.0165 c -38.434,-20.239 -59.457,-54.439 -59.501,-96.79 -0.051,-48.092 32.39,-89.587 78.476,-100.38 10.279,-2.407 122.094,-4.652 248.478,-4.988 162.374,-0.432 229.785,-2.131 229.776,-5.794 0,-2.851 -146.25,-152.016 -324.986,-331.479 -179.173,-179.9 -329.078,-334.215 -334.118,-343.946 -13.18,-25.448 -12.468,-71.668 1.482,-96.181 23.997,-42.165 73.933,-63.247 120.51,-50.877 22.088,5.866 41.742,24.451 355.842,336.488 240.461,238.884 334.557,329.47 340.034,327.354 6.786,-2.621 7.519,-27.849 7.054,-242.829 l -0.52,-239.904 11.036,-21.014 c 6.069,-11.558 20.101,-27.428 31.18,-35.267 16.956,-11.998 25.63,-14.542 54.803,-16.079 28.027,-1.476 38.364,0.054 54.025,8.002 26.771,13.585 47.604,40.351 53.929,69.29 3.634,16.625 5.049,140.451 4.574,400.308 l -0.688,376.237 -13.311,22.757 c -7.321,12.516 -22.13,28.622 -32.91,35.79 l -19.599,13.033 -395.631,1.9 c -353.562,1.7 -397.151,1.101 -409.935,-5.631 z"
       style="fill:#000000;fill-opacity:1" /></g></svg>