<?xml version="1.0" encoding="utf-8"?>
<!-- Generator: Adobe Illustrator 16.0.3, SVG Export Plug-In . SVG Version: 6.00 Build 0)  -->
<svg version="1.2" baseProfile="tiny"
	 id="Layer_1" xmlns:ns1="http://sozi.baierouge.fr" xmlns:sodipodi="http://sodipodi.sourceforge.net/DTD/sodipodi-0.dtd" xmlns:inkscape="http://www.inkscape.org/namespaces/inkscape" xmlns:svg="http://www.w3.org/2000/svg" xmlns:dc="http://purl.org/dc/elements/1.1/" xmlns:cc="http://web.resource.org/cc/" xmlns:rdf="http://www.w3.org/1999/02/22-rdf-syntax-ns#"
	 xmlns="http://www.w3.org/2000/svg" xmlns:xlink="http://www.w3.org/1999/xlink" x="0px" y="0px"
	 viewBox="0 0 120 120" xml:space="preserve">
<g>
	<path fill="#231F20" d="M105.664,120c7.922,0,14.326-6.428,14.326-14.35V14.338c0-7.922-6.404-14.349-14.326-14.349H14.349
		C6.427-0.011,0,6.416,0,14.338v91.311c0,7.922,6.427,14.35,14.349,14.35h91.314L105.664,120L105.664,120z"/>
	<path d="M14.349,2.421c-6.579,0-11.92,5.35-11.92,11.92v91.31c0,6.572,5.342,11.93,11.92,11.93h91.316
		c6.558,0,11.892-5.355,11.892-11.93V14.338c0-6.571-5.334-11.92-11.892-11.92H14.351L14.349,2.421z"/>
</g>
<path fill="#FFFFFF" d="M60,7.5c-18.121,0-32.813,14.688-32.813,32.813c0,5.076,1.153,9.889,3.214,14.176
	C30.517,54.732,60,112.5,60,112.5l29.243-57.294c2.281-4.466,3.569-9.53,3.569-14.894C92.813,22.188,78.123,7.5,60,7.5z M60,60
	c-10.873,0-19.688-8.818-19.688-19.688S49.127,20.625,60,20.625c10.869,0,19.688,8.818,19.688,19.688S70.869,60,60,60z"/>
</svg>
