<?xml version="1.0" encoding="utf-8"?>
<!-- Generator: Adobe Illustrator 16.0.3, SVG Export Plug-In . SVG Version: 6.00 Build 0)  -->
<!DOCTYPE svg PUBLIC "-//W3C//DTD SVG 1.1//EN" "http://www.w3.org/Graphics/SVG/1.1/DTD/svg11.dtd">
<svg version="1.1"
	 id="Layer_1" xmlns:ns1="http://sozi.baierouge.fr" xmlns:sodipodi="http://sodipodi.sourceforge.net/DTD/sodipodi-0.dtd" xmlns:inkscape="http://www.inkscape.org/namespaces/inkscape" xmlns:svg="http://www.w3.org/2000/svg" xmlns:dc="http://purl.org/dc/elements/1.1/" xmlns:cc="http://web.resource.org/cc/" xmlns:rdf="http://www.w3.org/1999/02/22-rdf-syntax-ns#"
	 xmlns="http://www.w3.org/2000/svg" xmlns:xlink="http://www.w3.org/1999/xlink" x="0px" y="0px"
	 viewBox="0 0 120 120" enable-background="new 0 0 120 120" xml:space="preserve">
<g>
	<path fill="#231F20" d="M105.674,120.438c7.922,0,14.326-6.428,14.326-14.35V14.776c0-7.922-6.404-14.349-14.326-14.349H14.359
		C6.437,0.427,0.01,6.854,0.01,14.776v91.31c0,7.922,6.427,14.35,14.349,14.35h91.314L105.674,120.438L105.674,120.438z"/>
	<path d="M14.359,2.859c-6.579,0-11.92,5.35-11.92,11.92v91.309c0,6.572,5.342,11.93,11.92,11.93h91.316
		c6.558,0,11.892-5.355,11.892-11.93V14.776c0-6.571-5.334-11.92-11.892-11.92H14.361L14.359,2.859z"/>
</g>
<path fill="#FFFFFF" d="M12.067,51.176l7.193,4.15l1.92,1.108l-5.607,9.705c-0.508,0.873-0.767,1.844-0.767,2.815
	c0,0.956,0.235,1.897,0.744,2.755c0,0,4.91,8.536,8.909,15.436c0.296-0.973,0.66-1.922,1.168-2.815l10.98-18.97l1.889,1.084
	l7.209,4.175L34.482,51.199L12.067,51.176L12.067,51.176z"/>
<path fill="#FFFFFF" d="M33.511,78.35c-0.979,1.685-4.538,7.846-4.538,7.846c-0.629,1.048-0.926,2.209-0.926,3.369
	c0,1.162,0.296,2.3,0.903,3.324c1.168,2.064,3.392,3.316,5.774,3.293h22.15v-17.83c-3.361-0.004-21.323-0.004-23.364-0.004v0.002
	H33.511z"/>
<path fill="#FFFFFF" d="M92.473,22.53l-7.209,4.15l-1.922,1.115l-5.576-9.729c-0.494-0.873-1.229-1.586-2.063-2.064
	c-0.828-0.494-1.775-0.729-2.746-0.729h-17.84c0.698,0.729,1.335,1.517,1.837,2.413L67.9,36.658l-1.866,1.115l-7.239,4.15h22.439
	L92.473,22.53z"/>
<path fill="#FFFFFF" d="M58.204,27.486c-0.972-1.684-4.522-7.854-4.522-7.854c-0.607-1.039-1.457-1.897-2.466-2.488
	c-0.994-0.569-2.125-0.872-3.308-0.896c-2.368,0.022-4.583,1.305-5.736,3.384c0,0-9.341,16.156-11.102,19.191
	c2.777,1.586,12.687,7.3,15.465,8.885C48.194,44.817,57.187,29.239,58.204,27.486z"/>
<path fill="#FFFFFF" d="M76.604,106.422V95.92l11.192,0.021c1.024,0,2.019-0.265,2.847-0.758c0.834-0.479,1.541-1.16,2.019-2.019
	c0,0,4.955-8.537,8.916-15.437c-0.972,0.213-1.995,0.402-3.013,0.402l-21.941-0.016V75.91l0.029-8.324L65.408,87.012L76.6,106.426
	L76.604,106.422z"/>
<path fill="#FFFFFF" d="M89.436,74.297h9.062c1.207,0,2.392-0.311,3.416-0.902c0.971-0.569,1.799-1.373,2.412-2.42
	c1.168-2.064,1.139-4.6-0.046-6.641c0,0-9.318-16.17-11.07-19.206c-2.755,1.608-12.688,7.33-15.441,8.917
	c1.67,2.891,10.662,18.492,11.678,20.252H89.436z"/>
</svg>
