<?xml version="1.0" encoding="utf-8"?>
<!-- Generator: Adobe Illustrator 16.0.3, SVG Export Plug-In . SVG Version: 6.00 Build 0)  -->
<!DOCTYPE svg PUBLIC "-//W3C//DTD SVG 1.1//EN" "http://www.w3.org/Graphics/SVG/1.1/DTD/svg11.dtd">
<svg version="1.1"
	 id="Layer_1" xmlns:ns1="http://sozi.baierouge.fr" xmlns:sodipodi="http://sodipodi.sourceforge.net/DTD/sodipodi-0.dtd" xmlns:inkscape="http://www.inkscape.org/namespaces/inkscape" xmlns:svg="http://www.w3.org/2000/svg" xmlns:dc="http://purl.org/dc/elements/1.1/" xmlns:cc="http://web.resource.org/cc/" xmlns:rdf="http://www.w3.org/1999/02/22-rdf-syntax-ns#"
	 xmlns="http://www.w3.org/2000/svg" xmlns:xlink="http://www.w3.org/1999/xlink" x="0px" y="0px"
	 viewBox="0 0 120 120" enable-background="new 0 0 120 120" xml:space="preserve">
<g>
	<path fill="#231F20" d="M105.674,120.438c7.922,0,14.326-6.428,14.326-14.35V14.776c0-7.922-6.404-14.349-14.326-14.349H14.359
		C6.437,0.427,0.01,6.854,0.01,14.776v91.31c0,7.922,6.427,14.35,14.349,14.35h91.314L105.674,120.438L105.674,120.438z"/>
	<path d="M14.359,2.859c-6.579,0-11.92,5.35-11.92,11.92v91.309c0,6.572,5.342,11.93,11.92,11.93h91.316
		c6.558,0,11.892-5.355,11.892-11.93V14.776c0-6.571-5.334-11.92-11.892-11.92H14.361L14.359,2.859z"/>
</g>
<polygon fill="#FFFFFF" points="19.879,53.64 10.721,57.245 10.721,48.093 103.813,12.565 103.813,21.725 28.629,50.294 
	28.652,98.428 103.813,98.428 103.813,106.898 19.879,106.898 "/>
<path fill="#FFFFFF" d="M39.472,83.25c3.324,0,6.025-2.701,6.025-6.025c0-3.339-2.701-6.039-6.025-6.039
	c-3.339,0-6.048,2.7-6.048,6.039C33.425,80.548,36.134,83.25,39.472,83.25z"/>
<path fill="#FFFFFF" d="M103.766,93.047l-0.022-8.302c-0.021-2.634-2.229-4.454-4.812-4.767l-46.689-4.742
	c-0.091,0-0.189-0.045-0.258-0.045c-1.64,0-2.967,1.328-2.967,2.959v8.969H35.923c-1.632,0-2.96,1.32-2.96,2.96
	c0,1.662,1.328,2.968,2.96,2.968h67.835H103.766z"/>
</svg>
