<?xml version="1.0" encoding="utf-8"?>
<!-- Generator: Adobe Illustrator 16.0.3, SVG Export Plug-In . SVG Version: 6.00 Build 0)  -->
<!DOCTYPE svg PUBLIC "-//W3C//DTD SVG 1.1//EN" "http://www.w3.org/Graphics/SVG/1.1/DTD/svg11.dtd">
<svg version="1.1"
	 id="Layer_1" xmlns:ns1="http://sozi.baierouge.fr" xmlns:sodipodi="http://sodipodi.sourceforge.net/DTD/sodipodi-0.dtd" xmlns:inkscape="http://www.inkscape.org/namespaces/inkscape" xmlns:svg="http://www.w3.org/2000/svg" xmlns:dc="http://purl.org/dc/elements/1.1/" xmlns:cc="http://web.resource.org/cc/" xmlns:rdf="http://www.w3.org/1999/02/22-rdf-syntax-ns#"
	 xmlns="http://www.w3.org/2000/svg" xmlns:xlink="http://www.w3.org/1999/xlink" x="0px" y="0px"
	 viewBox="0 0 120 120" enable-background="new 0 0 120 120" xml:space="preserve">
<g>
	<path fill="#231F20" d="M106.932,121.438c7.922,0,14.326-6.428,14.326-14.35V15.776c0-7.922-6.404-14.349-14.326-14.349H15.617
		c-7.922,0-14.349,6.427-14.349,14.349v91.31c0,7.922,6.427,14.35,14.349,14.35h91.314V121.438z"/>
	<path d="M15.617,3.859c-6.579,0-11.92,5.35-11.92,11.92v91.309c0,6.572,5.342,11.93,11.92,11.93h91.316
		c6.558,0,11.892-5.357,11.892-11.93V15.776c0-6.571-5.334-11.92-11.892-11.92H15.619L15.617,3.859z"/>
</g>
<g>
	<path fill="#FCFCFC" d="M62.006,19.12c0,0-19.637,8.289-11.755,22.592c6.337-1.44,12.694-2.422,18.949-3.048
		C48.372,31.365,62.006,19.12,62.006,19.12z"/>
	<path fill="#FCFCFC" d="M34.236,60.953c6.922-2.548,14.261-4.667,21.809-6.15C30.289,30.416,57.527,19.12,57.527,19.12
		S21.457,28.849,34.236,60.953z"/>
	<path fill="#FCFCFC" d="M46.325,21.28c0,0-40.904,16.401-32.291,51.533c1.43,4.875,3.048,10.262,5.074,16.182
		c6.003-2.652,12.789-5.491,20.494-8.133c-2.986-6.055-5.565-11.4-7.862-16.131C17.49,35.729,46.325,21.28,46.325,21.28z"/>
	<path fill="#FCFCFC" d="M60.586,54.167c7.393-1.211,14.564-1.775,21.329-1.952c-4.103-4.343-8.06-8.165-11.724-11.662
		c-6.357,0.533-12.853,1.461-19.356,2.86C53.79,46.67,57.037,50.199,60.586,54.167z"/>
	<path fill="#FCFCFC" d="M35.885,63.344c2.558,4.708,5.45,10.043,8.749,16.098c8.039-2.516,16.423-4.385,24.679-5.584
		c0.096-0.931,0.252-1.849,0.461-2.735c-4.029-5.222-7.83-9.804-11.287-13.885C50.689,58.656,43.068,60.754,35.885,63.344z"/>
	<path fill="#FCFCFC" d="M84.588,55.2c-0.137-0.146-0.271-0.302-0.408-0.448c-6.796,0.115-14.051,0.605-21.6,1.785
		c2.746,3.111,5.669,6.515,8.707,10.263C73.876,61.287,78.7,57.038,84.588,55.2z"/>
	<path fill="#FCFCFC" d="M114.061,92.492l-7.34-7.36c-0.125-0.125-0.261-0.22-0.396-0.323c1.815-2.787,2.87-6.106,2.87-9.679
		c0-9.823-7.954-17.779-17.779-17.779c-9.813,0-17.789,7.965-17.789,17.779c0,9.824,7.966,17.78,17.789,17.78
		c3.57,0,6.9-1.066,9.688-2.883c0.104,0.137,0.199,0.271,0.324,0.396l7.34,7.36c0.73,0.729,1.691,1.096,2.65,1.096
		c0.961,0,1.911-0.364,2.643-1.096C115.521,96.324,115.521,93.953,114.061,92.492z M91.415,87.292
		c-6.712,0-12.173-5.46-12.173-12.173c0-6.701,5.461-12.172,12.173-12.172c6.702,0,12.173,5.46,12.173,12.172
		C103.588,81.832,98.117,87.292,91.415,87.292z"/>
</g>
</svg>
