<?xml version="1.0" encoding="utf-8"?>
<!-- Generator: Adobe Illustrator 16.0.3, SVG Export Plug-In . SVG Version: 6.00 Build 0)  -->
<!DOCTYPE svg PUBLIC "-//W3C//DTD SVG 1.1//EN" "http://www.w3.org/Graphics/SVG/1.1/DTD/svg11.dtd">
<svg version="1.1"
	 id="Layer_1" xmlns:ns1="http://sozi.baierouge.fr" xmlns:sodipodi="http://sodipodi.sourceforge.net/DTD/sodipodi-0.dtd" xmlns:inkscape="http://www.inkscape.org/namespaces/inkscape" xmlns:svg="http://www.w3.org/2000/svg" xmlns:dc="http://purl.org/dc/elements/1.1/" xmlns:cc="http://web.resource.org/cc/" xmlns:rdf="http://www.w3.org/1999/02/22-rdf-syntax-ns#"
	 xmlns="http://www.w3.org/2000/svg" xmlns:xlink="http://www.w3.org/1999/xlink" x="0px" y="0px"
	 viewBox="0 0 120 120" enable-background="new 0 0 120 120" xml:space="preserve">
<g>
	<path fill="#231F20" d="M105.666,120.996c7.914,0,14.334-6.418,14.334-14.342v-91.32C120,7.42,113.58,1,105.666,1H14.337
		C6.423,1,0.003,7.419,0.003,15.334v91.324C0.003,114.58,6.422,121,14.337,121h91.329V120.996L105.666,120.996z"/>
	<path d="M14.337,3.432c-6.564,0-11.898,5.342-11.898,11.898v91.324c0,6.578,5.334,11.914,11.898,11.914h91.323
		c6.557,0,11.897-5.336,11.897-11.914V15.333c0-6.556-5.342-11.898-11.897-11.898H14.342L14.337,3.432z"/>
	<path fill="#FFFFFF" d="M79.703,32.455c-1.569,1.517-3.688,2.117-6.023,2.117c-2.975,0-5.684-1.214-7.23-3.513
		c-1.541,2.345-4.272,3.513-7.285,3.513c-2.974,0-5.653-1.236-7.209-3.536c-1.541,2.368-4.257,3.536-7.3,3.536
		c-2.208,0-4.219-0.501-5.736-1.851l-1.154-8.256c1.578,2.086,4.082,3.437,6.89,3.437c3.043,0,5.76-1.487,7.3-3.863
		c1.556,2.299,4.234,3.863,7.209,3.863c3.012,0,5.744-1.487,7.285-3.839c1.548,2.299,4.257,3.839,7.23,3.839
		c3.035,0,5.715-1.563,7.246-3.931L79.703,32.455L79.703,32.455z"/>
	<polygon fill="#FFFFFF" points="81.896,102.178 95.048,18.242 86.199,18.325 74.232,93.318 44.442,93.318 32.475,18.325 
		23.635,18.242 36.778,102.178 	"/>
</g>
</svg>
