<?xml version="1.0" encoding="utf-8"?>
<!-- Generator: Adobe Illustrator 16.0.3, SVG Export Plug-In . SVG Version: 6.00 Build 0)  -->
<!DOCTYPE svg PUBLIC "-//W3C//DTD SVG 1.1//EN" "http://www.w3.org/Graphics/SVG/1.1/DTD/svg11.dtd">
<svg version="1.1"
	 id="Layer_1" xmlns:ns1="http://sozi.baierouge.fr" xmlns:sodipodi="http://sodipodi.sourceforge.net/DTD/sodipodi-0.dtd" xmlns:inkscape="http://www.inkscape.org/namespaces/inkscape" xmlns:svg="http://www.w3.org/2000/svg" xmlns:dc="http://purl.org/dc/elements/1.1/" xmlns:cc="http://web.resource.org/cc/" xmlns:rdf="http://www.w3.org/1999/02/22-rdf-syntax-ns#"
	 xmlns="http://www.w3.org/2000/svg" xmlns:xlink="http://www.w3.org/1999/xlink" x="0px" y="0px"
	 viewBox="0 0 120 120" enable-background="new 0 0 120 120" xml:space="preserve">
<g>
	<path fill="#231F20" d="M105.664,120.011c7.922,0,14.326-6.428,14.326-14.35V14.349C119.99,6.427,113.586,0,105.664,0H14.349
		C6.427,0,0,6.427,0,14.349v91.31c0,7.922,6.427,14.35,14.349,14.35h91.314L105.664,120.011L105.664,120.011z"/>
	<path d="M14.349,2.432c-6.579,0-11.92,5.35-11.92,11.92v91.309c0,6.572,5.342,11.93,11.92,11.93h91.316
		c6.558,0,11.892-5.355,11.892-11.93V14.349c0-6.571-5.334-11.92-11.892-11.92H14.351L14.349,2.432z"/>
</g>
<path fill="#FFFFFF" d="M47.695,28.305c4.773,0,8.609-3.891,8.609-8.609c0-4.766-3.836-8.609-8.609-8.609
	c-4.742,0-8.609,3.844-8.609,8.609C39.086,24.414,42.953,28.305,47.695,28.305"/>
<path fill="#FFFFFF" d="M53.227,102.195c-14.117,0-25.563-11.422-25.563-25.578c0-7.75,3.508-14.656,8.969-19.344l-0.461-7.992
	c-9.156,5.703-15.281,15.766-15.281,27.336c0,17.844,14.461,32.344,32.336,32.344c13.156,0,24.406-7.906,29.453-19.18l-4.547-7.883
	C75.695,93.461,65.516,102.195,53.227,102.195"/>
<path fill="#FFFFFF" d="M104.047,86.961h-5.969L83.547,61.859c-0.914-1.547-2.516-2.391-4.164-2.438H57.852l-0.227-6.516h15.664
	c2.133-0.133,3.883-1.758,3.883-3.93c0-2.156-1.703-3.82-3.883-3.898H57.172l-0.531-7.391c-0.313-4.531-4.195-8.078-8.789-7.82
	c-4.586,0.25-8.063,4.195-7.828,8.773l1.484,26.133c0.406,4.594,4.234,7.844,8.773,7.828h27.906l11.43,19.742
	c0.906,1.523,2.664,2.359,4.414,2.359l0.023,0.078h9.992c2.148-0.125,3.898-1.75,3.898-3.938
	C107.945,88.688,106.242,87.039,104.047,86.961"/>
</svg>
