<?xml version="1.0" encoding="utf-8"?>
<!-- Generator: Adobe Illustrator 16.0.3, SVG Export Plug-In . SVG Version: 6.00 Build 0)  -->
<!DOCTYPE svg PUBLIC "-//W3C//DTD SVG 1.1//EN" "http://www.w3.org/Graphics/SVG/1.1/DTD/svg11.dtd">
<svg version="1.1"
	 id="Layer_1" xmlns:ns1="http://sozi.baierouge.fr" xmlns:sodipodi="http://sodipodi.sourceforge.net/DTD/sodipodi-0.dtd" xmlns:inkscape="http://www.inkscape.org/namespaces/inkscape" xmlns:svg="http://www.w3.org/2000/svg" xmlns:dc="http://purl.org/dc/elements/1.1/" xmlns:cc="http://web.resource.org/cc/" xmlns:rdf="http://www.w3.org/1999/02/22-rdf-syntax-ns#"
	 xmlns="http://www.w3.org/2000/svg" xmlns:xlink="http://www.w3.org/1999/xlink" x="0px" y="0px"
	 viewBox="0 0 120 120" enable-background="new 0 0 120 120" xml:space="preserve">
<g>
	<path d="M105.863,121.078c7.922,0,14.349-6.404,14.349-14.326v-91.32c0-7.922-6.427-14.334-14.349-14.334H14.537
		c-7.914,0-14.334,6.412-14.334,14.334v91.324c0,7.922,6.419,14.326,14.334,14.326h91.326V121.078z"/>
	<path d="M14.537,3.526c-6.564,0-11.898,5.342-11.898,11.906v91.324c0,6.572,5.334,11.906,11.898,11.906h91.324
		c6.571,0,11.906-5.334,11.906-11.906v-91.32c0-6.564-5.335-11.906-11.906-11.906H14.535L14.537,3.526z"/>
	<path fill="#FFFFFF" d="M66.412,28.979c5.631,0,9.668,4.636,10.518,7.164l6.904,22.704c1.374,4.873-4.84,6.906-6.313,2.148
		l-6.215-20.83h-3.582l10.419,37.022h-9.918v28.903c0,4.932-7.429,4.91-7.429,0V77.02h-3.755v29.002c0,5-7.444,5-7.444,0V77.184
		h-9.949l10.29-37.023h-3.4l-6.214,20.89c-1.472,4.538-7.754,2.693-6.305-2.208l6.89-22.704c0.729-2.587,4.014-7.163,9.683-7.163
		h15.82V28.979z"/>
	<path fill="#FFFFFF" d="M58.931,27.271c4.417,0,8.035-3.604,8.035-8.035c0-4.462-3.62-8.067-8.035-8.067
		c-4.47,0-8.043,3.604-8.043,8.067C50.886,23.667,54.46,27.271,58.931,27.271z"/>
</g>
</svg>
